<?xml version="1.0" encoding="UTF-8" standalone="no"?>
<svg
   xmlns:dc="http://purl.org/dc/elements/1.1/"
   xmlns:cc="http://creativecommons.org/ns#"
   xmlns:rdf="http://www.w3.org/1999/02/22-rdf-syntax-ns#"
   xmlns:svg="http://www.w3.org/2000/svg"
   xmlns="http://www.w3.org/2000/svg"
   viewBox="0 0 433.80267 433.80533"
   height="433.80533"
   width="433.80267"
   xml:space="preserve"
   id="svg2"
   version="1.1"><metadata
     id="metadata8"><rdf:RDF><cc:Work
         rdf:about=""><dc:format>image/svg+xml</dc:format><dc:type
           rdf:resource="http://purl.org/dc/dcmitype/StillImage" /></cc:Work></rdf:RDF></metadata><defs
     id="defs6"><clipPath
       id="clipPath18"
       clipPathUnits="userSpaceOnUse"><path
         id="path16"
         d="M 0,325.354 H 325.352 V 0 H 0 Z" /></clipPath></defs><g
     transform="matrix(1.3333333,0,0,-1.3333333,0,433.80533)"
     id="g10"><g
       id="g12"><g
         clip-path="url(#clipPath18)"
         id="g14"><g
           transform="translate(166.4717,146.6426)"
           id="g20"><path
             id="path22"
             style="fill:#000000;fill-opacity:1;fill-rule:nonzero;stroke:none"
             d="m 0,0 c 2.534,0 4.525,0.461 5.968,1.379 1.443,0.92 2.166,2.353 2.166,4.293 V 5.82 c 0,1.741 -0.672,3.122 -2.016,4.143 -1.345,1.019 -3.507,1.529 -6.493,1.529 H -13.661 V 0 Z m -3.061,21.047 c 2.534,0 4.553,0.435 6.045,1.305 1.493,0.87 2.24,2.277 2.24,4.215 v 0.153 c 0,1.738 -0.647,3.069 -1.942,3.989 -1.294,0.924 -3.161,1.383 -5.596,1.383 H -13.661 V 21.047 Z M -25.339,42.17 h 24.696 c 6.009,0 10.555,-1.542 13.635,-4.629 2.383,-2.391 3.575,-5.352 3.575,-8.883 V 28.51 c 0,-1.495 -0.184,-2.814 -0.554,-3.956 -0.374,-1.146 -0.867,-2.176 -1.486,-3.095 -0.617,-0.924 -1.334,-1.73 -2.152,-2.43 -0.813,-0.695 -1.689,-1.291 -2.63,-1.787 3.02,-1.149 5.399,-2.702 7.13,-4.666 1.735,-1.966 2.603,-4.689 2.603,-8.174 V 4.256 c 0,-2.391 -0.46,-4.479 -1.378,-6.27 -0.919,-1.791 -2.237,-3.285 -3.952,-4.478 -1.712,-1.195 -3.77,-2.094 -6.183,-2.691 -2.408,-0.595 -5.077,-0.895 -8.008,-0.895 h -25.296 z" /></g><path
           id="path24"
           style="fill:#000000;fill-opacity:1;fill-rule:nonzero;stroke:none"
           d="m 205.046,120.315 h -84.741 v 84.743 h 84.741 z m -96.595,96.598 v -108.45 -0.002 h 108.45 v 0.002 108.45 z" /></g></g></g></svg>