<?xml version="1.0" encoding="UTF-8" standalone="no"?>
<svg
   xmlns:dc="http://purl.org/dc/elements/1.1/"
   xmlns:cc="http://creativecommons.org/ns#"
   xmlns:rdf="http://www.w3.org/1999/02/22-rdf-syntax-ns#"
   xmlns:svg="http://www.w3.org/2000/svg"
   xmlns="http://www.w3.org/2000/svg"
   viewBox="0 0 554.59601 344.07199"
   height="344.07199"
   width="554.59601"
   xml:space="preserve"
   id="svg2"
   version="1.1"><metadata
     id="metadata8"><rdf:RDF><cc:Work
         rdf:about=""><dc:format>image/svg+xml</dc:format><dc:type
           rdf:resource="http://purl.org/dc/dcmitype/StillImage" /></cc:Work></rdf:RDF></metadata><defs
     id="defs6"><clipPath
       id="clipPath24"
       clipPathUnits="userSpaceOnUse"><path
         id="path22"
         d="M 0,258.054 H 415.947 V 0 H 0 Z" /></clipPath></defs><g
     transform="matrix(1.3333333,0,0,-1.3333333,0,344.072)"
     id="g10"><path
       id="path12"
       style="fill:#000000;fill-opacity:1;fill-rule:nonzero;stroke:none"
       d="m 69.434,83.615 h 2.057 v -15.37 h -2.057 z" /><g
       transform="translate(86.3179,81.7471)"
       id="g14"><path
         id="path16"
         style="fill:#000000;fill-opacity:1;fill-rule:nonzero;stroke:none"
         d="M 0,0 H -4.989 V -13.502 H -7.046 V 0 h -4.989 V 1.868 H 0 Z" /></g><g
       id="g18"><g
         clip-path="url(#clipPath24)"
         id="g20"><g
           transform="translate(100.4395,78.3408)"
           id="g26"><path
             id="path28"
             style="fill:#000000;fill-opacity:1;fill-rule:nonzero;stroke:none"
             d="M 0,0 H -3.264 V -10.096 H -5.227 V 0 h -2.245 v 1.728 h 1.182 c 0.957,0 1.063,0.1 1.063,1.016 v 1.418 c 0,1.845 0.719,2.53 2.649,2.53 h 2.484 V 4.966 h -3.17 V 1.728 l 3.264,0 z" /></g><g
           transform="translate(110.9395,74.1182)"
           id="g30"><path
             id="path32"
             style="fill:#000000;fill-opacity:1;fill-rule:nonzero;stroke:none"
             d="m 0,0 v 0.073 c 0,2.735 -1.428,4.458 -3.681,4.458 -2.339,0 -3.748,-1.777 -3.748,-4.458 V 0 c 0,-2.727 1.438,-4.455 3.748,-4.455 C -1.426,-4.455 0,-2.725 0,0 m -9.434,0 v 0.073 c 0,3.844 2.36,6.255 5.753,6.255 3.345,0 5.678,-2.411 5.678,-6.255 L 1.997,0 c 0,-3.84 -2.333,-6.25 -5.678,-6.25 -3.393,0 -5.753,2.41 -5.753,6.25" /></g><g
           transform="translate(121.9404,80.0684)"
           id="g34"><path
             id="path36"
             style="fill:#000000;fill-opacity:1;fill-rule:nonzero;stroke:none"
             d="m 0,0 v -2.145 h -1.302 c -2.531,0 -3.122,-1.369 -3.122,-3.301 v -6.377 H -6.387 V 0 h 1.822 V -1.915 H -4.37 C -3.546,-0.82 -2.253,0 -0.384,0 Z" /></g><g
           transform="translate(139.2651,74.2031)"
           id="g38"><path
             id="path40"
             style="fill:#000000;fill-opacity:1;fill-rule:nonzero;stroke:none"
             d="M 0,0 C 0,2.9 -1.329,4.482 -3.646,4.475 -5.94,4.466 -7.257,2.914 -7.257,0 v -0.091 c 0,-2.835 1.253,-4.472 3.646,-4.472 2.367,0 3.611,1.641 3.611,4.472 z m 1.999,0 v -0.091 c 0,-3.834 -2.041,-6.24 -5.333,-6.24 -1.735,0 -2.957,0.67 -3.721,1.88 h -0.211 v -6.235 H -9.213 V 5.877 h 1.805 V 4.12 h 0.241 c 0.852,1.392 2.242,2.127 3.991,2.127 3.164,0 5.175,-2.409 5.175,-6.247" /></g><g
           transform="translate(145.1685,74.9121)"
           id="g42"><path
             id="path44"
             style="fill:#000000;fill-opacity:1;fill-rule:nonzero;stroke:none"
             d="M 0,0 H 7.012 C 6.968,2.405 5.623,3.831 3.625,3.831 1.582,3.831 0.119,2.344 0,0 m 8.921,-1.522 h -8.92 c 0.13,-2.321 1.587,-3.844 3.756,-3.844 1.425,0 2.406,0.525 2.905,1.64 h 2.02 C 8.16,-5.771 6.373,-7.044 3.752,-7.044 c -3.596,0 -5.741,2.397 -5.741,6.244 v 0.091 c 0,3.944 2.264,6.243 5.647,6.243 3.382,0 5.291,-2.293 5.291,-6.308 0,-0.273 -0.009,-0.511 -0.028,-0.748" /></g><g
           transform="translate(165.5747,74.1182)"
           id="g46"><path
             id="path48"
             style="fill:#000000;fill-opacity:1;fill-rule:nonzero;stroke:none"
             d="M 0,0 V 0.073 C 0,2.808 -1.428,4.531 -3.682,4.531 -6.021,4.531 -7.43,2.754 -7.43,0.073 V 0 c 0,-2.727 1.438,-4.455 3.748,-4.455 C -1.426,-4.455 0,-2.725 0,0 m -9.435,0 v 0.073 c 0,3.844 2.36,6.255 5.753,6.255 3.346,0 5.678,-2.411 5.678,-6.255 L 1.996,0 c 0,-3.84 -2.332,-6.25 -5.678,-6.25 -3.393,0 -5.753,2.41 -5.753,6.25" /></g><g
           transform="translate(179.4014,74.2031)"
           id="g50"><path
             id="path52"
             style="fill:#000000;fill-opacity:1;fill-rule:nonzero;stroke:none"
             d="M 0,0 C 0,2.9 -1.329,4.482 -3.646,4.475 -5.939,4.466 -7.257,2.914 -7.257,0 v -0.091 c 0,-2.835 1.253,-4.472 3.647,-4.472 2.366,0 3.61,1.641 3.61,4.472 z m 1.999,0 v -0.091 c 0,-3.834 -2.042,-6.24 -5.333,-6.24 -1.735,0 -2.957,0.67 -3.722,1.88 h -0.21 v -6.235 H -9.213 V 5.877 h 1.805 V 4.12 h 0.241 c 0.852,1.392 2.242,2.127 3.99,2.127 3.164,0 5.176,-2.409 5.176,-6.247" /></g><path
           id="path54"
           style="fill:#000000;fill-opacity:1;fill-rule:nonzero;stroke:none"
           d="m 184.142,85.033 h 1.963 V 68.245 h -1.963 z" /><g
           transform="translate(190.7925,74.9121)"
           id="g56"><path
             id="path58"
             style="fill:#000000;fill-opacity:1;fill-rule:nonzero;stroke:none"
             d="M 0,0 H 7.012 C 6.968,2.405 5.622,3.831 3.624,3.831 1.582,3.831 0.118,2.344 0,0 m 8.921,-1.522 h -8.92 c 0.129,-2.321 1.587,-3.844 3.755,-3.844 1.425,0 2.407,0.525 2.905,1.64 H 8.682 C 8.159,-5.771 6.373,-7.044 3.751,-7.044 c -3.596,0 -5.74,2.397 -5.74,6.244 v 0.091 c 0,3.944 2.263,6.243 5.646,6.243 3.381,0 5.293,-2.293 5.293,-6.308 0,-0.273 -0.009,-0.511 -0.029,-0.748" /></g><path
           id="path60"
           style="fill:#000000;fill-opacity:1;fill-rule:nonzero;stroke:none"
           d="m 201.575,70.643 h 2.486 v -2.407 h -2.486 z" /><g
           transform="translate(222.2793,78.6377)"
           id="g62"><path
             id="path64"
             style="fill:#000000;fill-opacity:1;fill-rule:nonzero;stroke:none"
             d="M 0,0 C 0,2.132 -1.1,3.109 -3.7,3.109 H -7.389 V -3.299 H -3.7 c 2.518,0 3.7,0.918 3.7,3.113 z m 2.121,0 v -0.186 c 0,-3.245 -2.101,-4.981 -5.655,-4.981 h -3.855 v -5.226 H -9.446 V 4.978 h 5.912 C 0.097,4.978 2.121,3.166 2.121,0" /></g><g
           transform="translate(228.1851,74.9121)"
           id="g66"><path
             id="path68"
             style="fill:#000000;fill-opacity:1;fill-rule:nonzero;stroke:none"
             d="M 0,0 H 7.012 C 6.968,2.405 5.622,3.831 3.625,3.831 1.583,3.831 0.119,2.344 0,0 m 8.922,-1.522 h -8.92 c 0.13,-2.321 1.586,-3.844 3.754,-3.844 1.426,0 2.408,0.525 2.905,1.64 H 8.682 C 8.16,-5.771 6.374,-7.044 3.752,-7.044 c -3.596,0 -5.741,2.397 -5.741,6.244 v 0.091 c 0,3.944 2.263,6.243 5.646,6.243 3.383,0 5.292,-2.293 5.292,-6.308 0,-0.273 -0.009,-0.511 -0.027,-0.748" /></g><g
           transform="translate(248.5923,74.1182)"
           id="g70"><path
             id="path72"
             style="fill:#000000;fill-opacity:1;fill-rule:nonzero;stroke:none"
             d="M 0,0 V 0.073 C 0,2.808 -1.428,4.531 -3.683,4.531 -6.02,4.531 -7.43,2.754 -7.43,0.073 V 0 c 0,-2.727 1.438,-4.455 3.747,-4.455 C -1.426,-4.455 0,-2.725 0,0 m -9.435,0 v 0.073 c 0,3.844 2.36,6.255 5.752,6.255 3.347,0 5.678,-2.411 5.678,-6.255 L 1.995,0 c 0,-3.84 -2.331,-6.25 -5.678,-6.25 -3.392,0 -5.752,2.41 -5.752,6.25" /></g><g
           transform="translate(262.4175,74.2031)"
           id="g74"><path
             id="path76"
             style="fill:#000000;fill-opacity:1;fill-rule:nonzero;stroke:none"
             d="M 0,0 C 0,2.9 -1.329,4.482 -3.647,4.475 -5.939,4.466 -7.257,2.914 -7.257,0 v -0.091 c 0,-2.835 1.254,-4.472 3.648,-4.472 2.365,0 3.609,1.641 3.609,4.472 z m 1.999,0 v -0.091 c 0,-3.834 -2.041,-6.24 -5.332,-6.24 -1.736,0 -2.958,0.67 -3.723,1.88 h -0.211 v -6.235 H -9.212 V 5.877 h 1.804 V 4.12 h 0.241 c 0.853,1.392 2.242,2.127 3.992,2.127 3.163,0 5.174,-2.409 5.174,-6.247" /></g><path
           id="path78"
           style="fill:#000000;fill-opacity:1;fill-rule:nonzero;stroke:none"
           d="m 267.16,85.033 h 1.962 V 68.245 h -1.962 z" /><g
           transform="translate(273.8086,74.9121)"
           id="g80"><path
             id="path82"
             style="fill:#000000;fill-opacity:1;fill-rule:nonzero;stroke:none"
             d="M 0,0 H 7.012 C 6.968,2.405 5.622,3.831 3.624,3.831 1.582,3.831 0.117,2.344 0,0 m 8.922,-1.522 h -8.92 c 0.128,-2.321 1.585,-3.844 3.754,-3.844 1.425,0 2.407,0.525 2.905,1.64 h 2.02 c -0.522,-2.045 -2.307,-3.318 -4.93,-3.318 -3.597,0 -5.74,2.397 -5.74,6.244 v 0.091 c 0,3.944 2.263,6.243 5.646,6.243 3.38,0 5.292,-2.293 5.292,-6.308 0,-0.273 -0.009,-0.511 -0.027,-0.748" /></g><g
           transform="translate(297.3379,78.3408)"
           id="g84"><path
             id="path86"
             style="fill:#000000;fill-opacity:1;fill-rule:nonzero;stroke:none"
             d="M 0,0 H -3.264 V -10.096 H -5.226 V 0 h -2.246 v 1.728 h 1.182 c 0.957,0 1.064,0.1 1.064,1.016 v 1.418 c 0,1.845 0.719,2.53 2.648,2.53 h 2.482 V 4.966 H -3.264 V 1.728 l 3.264,0 z" /></g><g
           transform="translate(307.8389,74.1182)"
           id="g88"><path
             id="path90"
             style="fill:#000000;fill-opacity:1;fill-rule:nonzero;stroke:none"
             d="M 0,0 V 0.073 C 0,2.808 -1.428,4.531 -3.682,4.531 -6.02,4.531 -7.43,2.754 -7.43,0.073 V 0 c 0,-2.727 1.438,-4.455 3.748,-4.455 C -1.426,-4.455 0,-2.725 0,0 m -9.434,0 v 0.073 c 0,3.844 2.359,6.255 5.752,6.255 3.346,0 5.678,-2.411 5.678,-6.255 L 1.996,0 c 0,-3.84 -2.332,-6.25 -5.678,-6.25 -3.393,0 -5.752,2.41 -5.752,6.25" /></g><g
           transform="translate(318.8398,80.0684)"
           id="g92"><path
             id="path94"
             style="fill:#000000;fill-opacity:1;fill-rule:nonzero;stroke:none"
             d="m 0,0 v -2.145 h -1.303 c -2.53,0 -3.121,-1.369 -3.121,-3.301 v -6.377 H -6.388 V 0 h 1.822 v -1.915 h 0.195 C -3.547,-0.82 -2.253,0 -0.386,0 Z" /></g><path
           id="path96"
           style="fill:#000000;fill-opacity:1;fill-rule:nonzero;stroke:none"
           d="m 327.424,83.615 h 2.058 v -15.37 h -2.058 z" /><g
           transform="translate(344.3076,81.7471)"
           id="g98"><path
             id="path100"
             style="fill:#000000;fill-opacity:1;fill-rule:nonzero;stroke:none"
             d="M 0,0 H -4.989 V -13.502 H -7.047 V 0 h -4.989 V 1.868 H 0 Z" /></g><path
           id="path102"
           style="fill:#000000;fill-opacity:1;fill-rule:nonzero;stroke:none"
           d="m 344.265,70.643 h 2.487 v -2.407 h -2.487 z" /><g
           transform="translate(106.4121,143.813)"
           id="g104"><path
             id="path106"
             style="fill:#000000;fill-opacity:1;fill-rule:nonzero;stroke:none"
             d="M 0,0 C 1.621,0 2.894,0.295 3.814,0.883 4.737,1.471 5.199,2.387 5.199,3.625 V 3.723 C 5.199,4.834 4.771,5.717 3.911,6.369 3.053,7.021 1.67,7.348 -0.238,7.348 H -8.732 V 0 Z m -1.956,13.455 c 1.619,0 2.91,0.277 3.864,0.834 0.953,0.555 1.432,1.455 1.432,2.693 v 0.098 c 0,1.111 -0.414,1.963 -1.242,2.551 -0.827,0.592 -2.02,0.883 -3.577,0.883 H -8.732 V 13.455 Z M -16.197,26.957 H -0.41 c 3.841,0 6.746,-0.986 8.715,-2.959 1.523,-1.527 2.286,-3.42 2.286,-5.678 v -0.095 c 0,-0.957 -0.118,-1.799 -0.355,-2.53 C 9.997,14.963 9.682,14.305 9.287,13.719 8.892,13.127 8.434,12.611 7.911,12.164 7.391,11.721 6.83,11.34 6.229,11.021 8.16,10.287 9.681,9.295 10.787,8.041 11.896,6.783 12.451,5.043 12.451,2.814 V 2.721 c 0,-1.528 -0.295,-2.862 -0.881,-4.006 C 10.982,-2.432 10.141,-3.387 9.045,-4.15 7.949,-4.912 6.635,-5.488 5.092,-5.869 3.553,-6.25 1.846,-6.441 -0.027,-6.441 h -16.17 z" /></g><g
           transform="translate(143.7617,170.77)"
           id="g108"><path
             id="path110"
             style="fill:#000000;fill-opacity:1;fill-rule:nonzero;stroke:none"
             d="M 0,0 H 7.434 V -3.246 -5.861 H 0 v 4.052 z" /></g><g
           transform="translate(143.7617,162.3228)"
           id="g112"><path
             id="path114"
             style="fill:#000000;fill-opacity:1;fill-rule:nonzero;stroke:none"
             d="M 0,0 H 7.434 V -14.295 -24.951 H 0 v 20.244 z" /></g><g
           transform="translate(156.3086,170.8052)"
           id="g116"><path
             id="path118"
             style="fill:#000000;fill-opacity:1;fill-rule:nonzero;stroke:none"
             d="M 0,0 H 7.434 V -22.937 -33.434 H 0 v 22.163 z" /></g><g
           transform="translate(168.8545,170.8052)"
           id="g120"><path
             id="path122"
             style="fill:#000000;fill-opacity:1;fill-rule:nonzero;stroke:none"
             d="M 0,0 H 7.435 V -22.619 -33.434 H 0 v 20.725 z" /></g><g
           transform="translate(232.6094,153.2739)"
           id="g124"><path
             id="path126"
             style="fill:#000000;fill-opacity:1;fill-rule:nonzero;stroke:none"
             d="m 0,0 v -15.902 h -7.432 v 14.248 c 0,3.48 -1.277,5.365 -4.379,5.365 -2.929,0 -4.806,-1.693 -4.806,-5.367 v -14.246 h -7.434 V 9.051 h 7.018 V 5.867 h 0.558 c 1.625,2.666 4.172,3.967 7.625,3.967 C -3.033,9.834 0,6.051 0,0" /></g><g
           transform="translate(261.2051,153.2739)"
           id="g128"><path
             id="path130"
             style="fill:#000000;fill-opacity:1;fill-rule:nonzero;stroke:none"
             d="m 0,0 v -15.902 h -7.434 v 14.248 c 0,3.48 -1.277,5.365 -4.377,5.365 -2.929,0 -4.806,-1.693 -4.806,-5.367 v -14.246 h -7.435 V 9.051 h 7.019 V 5.867 h 0.558 c 1.625,2.666 4.172,3.967 7.627,3.967 C -3.033,9.834 0,6.051 0,0" /></g><g
           transform="translate(265.752,170.77)"
           id="g132"><path
             id="path134"
             style="fill:#000000;fill-opacity:1;fill-rule:nonzero;stroke:none"
             d="M 0,0 H 7.434 V -3.088 -5.525 H 0 v 3.877 z" /></g><g
           transform="translate(265.752,162.3228)"
           id="g136"><path
             id="path138"
             style="fill:#000000;fill-opacity:1;fill-rule:nonzero;stroke:none"
             d="M 0,0 H 7.434 V -4.227 -24.951 H 0 v 9.537 z" /></g><g
           transform="translate(301.7812,162.3228)"
           id="g140"><path
             id="path142"
             style="fill:#000000;fill-opacity:1;fill-rule:nonzero;stroke:none"
             d="m 0,0 v -24.951 h -6.957 v 3.674 h -0.518 c -1.554,-3.104 -4.121,-4.457 -7.843,-4.457 -5.725,0 -8.733,3.802 -8.733,9.834 V 0 h 7.432 v -14.246 c 0,-3.684 1.512,-5.365 4.539,-5.365 2.969,0 4.646,2.021 4.646,5.244 V 0 Z" /></g><g
           transform="translate(346.623,153.2505)"
           id="g144"><path
             id="path146"
             style="fill:#000000;fill-opacity:1;fill-rule:nonzero;stroke:none"
             d="m 0,0 v -15.879 h -7.432 v 14.287 c 0,2.223 -0.635,5.326 -4.256,5.326 -3,0 -4.746,-1.588 -4.746,-5.357 v -14.256 h -7.433 v 14.287 c 0,3.594 -1.377,5.326 -4.281,5.326 -2.928,0 -4.721,-1.463 -4.721,-5.226 v -14.387 h -7.432 V 9.072 h 7.016 V 5.889 h 0.556 c 1.604,2.654 4.065,3.968 7.323,3.968 3.802,0 6.496,-1.511 7.761,-3.968 h 1.319 c 1.72,2.814 4.328,3.968 7.584,3.968 C -3.047,9.857 0,5.949 0,0" /></g><path
           id="path148"
           style="fill:#000000;fill-opacity:1;fill-rule:nonzero;stroke:none"
           d="M 131.07,126.984 H 76.9 v 54.17 h 54.17 z m -61.746,61.747 v -69.323 -0.002 h 69.324 v 0.002 69.323 z" /><g
           transform="translate(187.4336,152.5825)"
           id="g150"><path
             id="path152"
             style="fill:#000000;fill-opacity:1;fill-rule:nonzero;stroke:none"
             d="M 0,0 H 10.449 C 10.107,2.631 8.271,4.463 5.3,4.463 2.361,4.463 0.539,2.58 0,0 m 17.896,-7.598 c -0.914,-5.158 -5.542,-8.396 -12.213,-8.396 -8.021,0 -13.388,4.76 -13.388,13.207 v 0.156 c 0,8.313 5.305,13.156 12.994,13.156 7.676,0 12.424,-4.707 12.424,-12.783 0,-0.832 -0.041,-1.664 -0.117,-2.656 h -17.68 c 0.405,-3.107 2.316,-5.035 5.81,-5.035 2.229,0 3.78,0.726 4.547,2.351 z" /></g></g></g></g></svg>