<?xml version="1.0" encoding="UTF-8" standalone="no"?>
<svg
   viewBox="0 0 506.86667 92.994668"
   height="92.994667"
   width="506.86667"
   xml:space="preserve"
   id="svg2"
   version="1.1"
   sodipodi:docname="billennium_tagline_en2.svg"
   inkscape:version="1.1.1 (3bf5ae0d25, 2021-09-20)"
   xmlns:inkscape="http://www.inkscape.org/namespaces/inkscape"
   xmlns:sodipodi="http://sodipodi.sourceforge.net/DTD/sodipodi-0.dtd"
   xmlns="http://www.w3.org/2000/svg"
   xmlns:svg="http://www.w3.org/2000/svg"
   xmlns:rdf="http://www.w3.org/1999/02/22-rdf-syntax-ns#"
   xmlns:cc="http://creativecommons.org/ns#"
   xmlns:dc="http://purl.org/dc/elements/1.1/"><sodipodi:namedview
     id="namedview117"
     pagecolor="#505050"
     bordercolor="#eeeeee"
     borderopacity="1"
     inkscape:pageshadow="0"
     inkscape:pageopacity="0"
     inkscape:pagecheckerboard="0"
     showgrid="false"
     inkscape:zoom="1.6193872"
     inkscape:cx="252.87343"
     inkscape:cy="46.005056"
     inkscape:window-width="2560"
     inkscape:window-height="1377"
     inkscape:window-x="-8"
     inkscape:window-y="472"
     inkscape:window-maximized="1"
     inkscape:current-layer="svg2" /><metadata
     id="metadata8"><rdf:RDF><cc:Work
         rdf:about=""><dc:format>image/svg+xml</dc:format><dc:type
           rdf:resource="http://purl.org/dc/dcmitype/StillImage" /></cc:Work></rdf:RDF></metadata><defs
     id="defs6"><clipPath
       id="clipPath24"
       clipPathUnits="userSpaceOnUse"><path
         id="path22"
         d="M 0,209.237 H 519.641 V 0 H 0 Z" /></clipPath></defs><g
     transform="matrix(1.3333333,0,0,-1.3333333,-92.994664,185.98933)"
     id="g10"
     style="fill:#f9f9f9"><path
       id="path12"
       style="fill:#f9f9f9;fill-opacity:1;fill-rule:nonzero;stroke:none"
       d="m 174.552,111.875 h 2.043 V 96.611 h -2.043 z" /><g
       transform="translate(191.3188,110.02)"
       id="g14"
       style="fill:#f9f9f9"><path
         id="path16"
         style="fill:#f9f9f9;fill-opacity:1;fill-rule:nonzero;stroke:none"
         d="M 0,0 H -4.955 V -13.409 H -6.998 V 0 h -4.955 V 1.854 H 0 Z" /></g><g
       id="g18"
       style="fill:#f9f9f9"><g
         clip-path="url(#clipPath24)"
         id="g20"
         style="fill:#f9f9f9"><g
           transform="translate(205.3379,106.6382)"
           id="g26"
           style="fill:#f9f9f9"><path
             id="path28"
             style="fill:#f9f9f9;fill-opacity:1;fill-rule:nonzero;stroke:none"
             d="M 0,0 H -3.241 V -10.027 H -5.19 V 0 h -2.231 v 1.714 h 1.174 c 0.952,0 1.057,0.101 1.057,1.01 v 1.409 c 0,1.832 0.714,2.513 2.63,2.513 h 2.466 V 4.932 H -3.241 V 1.714 H 0 Z" /></g><g
           transform="translate(215.7646,102.4438)"
           id="g30"
           style="fill:#f9f9f9"><path
             id="path32"
             style="fill:#f9f9f9;fill-opacity:1;fill-rule:nonzero;stroke:none"
             d="M 0,0 V 0.073 C 0,2.788 -1.418,4.5 -3.656,4.5 -5.979,4.5 -7.378,2.733 -7.378,0.073 V 0 c 0,-2.707 1.427,-4.424 3.722,-4.424 C -1.416,-4.424 0,-2.705 0,0 m -9.37,0 v 0.073 c 0,3.816 2.344,6.211 5.714,6.211 3.323,0 5.638,-2.395 5.638,-6.211 L 1.982,0 c 0,-3.813 -2.315,-6.209 -5.638,-6.209 -3.37,0 -5.714,2.396 -5.714,6.209" /></g><g
           transform="translate(226.6865,108.3521)"
           id="g34"
           style="fill:#f9f9f9"><path
             id="path36"
             style="fill:#f9f9f9;fill-opacity:1;fill-rule:nonzero;stroke:none"
             d="m 0,0 v -2.13 h -1.294 c -2.513,0 -3.1,-1.359 -3.1,-3.278 v -6.333 H -6.343 V 0 h 1.808 V -1.901 H -4.34 C -3.523,-0.813 -2.237,0 -0.383,0 Z" /></g><g
           transform="translate(243.8877,102.5288)"
           id="g38"
           style="fill:#f9f9f9"><path
             id="path40"
             style="fill:#f9f9f9;fill-opacity:1;fill-rule:nonzero;stroke:none"
             d="M 0,0 C 0,2.879 -1.319,4.45 -3.621,4.442 -5.899,4.436 -7.207,2.893 -7.207,0 v -0.092 c 0,-2.815 1.244,-4.44 3.622,-4.44 2.351,0 3.585,1.63 3.585,4.44 z m 1.984,0 v -0.092 c 0,-3.806 -2.026,-6.197 -5.295,-6.197 -1.723,0 -2.936,0.664 -3.696,1.867 h -0.209 v -6.192 H -9.149 V 5.835 h 1.792 V 4.091 h 0.24 c 0.846,1.382 2.225,2.113 3.963,2.113 3.142,0 5.138,-2.392 5.138,-6.204" /></g><g
           transform="translate(249.7476,103.231)"
           id="g42"
           style="fill:#f9f9f9"><path
             id="path44"
             style="fill:#f9f9f9;fill-opacity:1;fill-rule:nonzero;stroke:none"
             d="M 0,0 H 6.963 C 6.92,2.389 5.583,3.807 3.599,3.807 1.571,3.807 0.117,2.329 0,0 M 8.86,-1.51 H 0.001 c 0.129,-2.305 1.577,-3.818 3.73,-3.818 1.415,0 2.39,0.52 2.885,1.629 H 8.623 C 8.103,-5.73 6.33,-6.996 3.726,-6.996 c -3.572,0 -5.702,2.382 -5.702,6.202 v 0.092 c 0,3.917 2.248,6.199 5.608,6.199 3.358,0 5.256,-2.277 5.256,-6.266 0,-0.27 -0.009,-0.505 -0.028,-0.741" /></g><g
           transform="translate(270.0103,102.4438)"
           id="g46"
           style="fill:#f9f9f9"><path
             id="path48"
             style="fill:#f9f9f9;fill-opacity:1;fill-rule:nonzero;stroke:none"
             d="M 0,0 V 0.073 C 0,2.788 -1.418,4.5 -3.656,4.5 -5.979,4.5 -7.378,2.733 -7.378,0.073 V 0 c 0,-2.707 1.427,-4.424 3.722,-4.424 C -1.416,-4.424 0,-2.705 0,0 m -9.37,0 v 0.073 c 0,3.816 2.344,6.211 5.714,6.211 3.323,0 5.638,-2.395 5.638,-6.211 L 1.982,0 c 0,-3.813 -2.315,-6.209 -5.638,-6.209 -3.37,0 -5.714,2.396 -5.714,6.209" /></g><g
           transform="translate(283.7383,102.5288)"
           id="g50"
           style="fill:#f9f9f9"><path
             id="path52"
             style="fill:#f9f9f9;fill-opacity:1;fill-rule:nonzero;stroke:none"
             d="M 0,0 C 0,2.879 -1.319,4.45 -3.621,4.442 -5.899,4.436 -7.207,2.893 -7.207,0 v -0.092 c 0,-2.815 1.244,-4.44 3.622,-4.44 2.351,0 3.585,1.63 3.585,4.44 z m 1.984,0 v -0.092 c 0,-3.806 -2.026,-6.197 -5.295,-6.197 -1.723,0 -2.936,0.664 -3.696,1.867 h -0.209 v -6.192 H -9.149 V 5.835 h 1.792 V 4.091 h 0.24 c 0.846,1.382 2.225,2.113 3.963,2.113 3.142,0 5.138,-2.392 5.138,-6.204" /></g><path
           id="path54"
           style="fill:#f9f9f9;fill-opacity:1;fill-rule:nonzero;stroke:none"
           d="m 288.444,113.284 h 1.949 V 96.611 h -1.949 z" /><g
           transform="translate(295.0464,103.231)"
           id="g56"
           style="fill:#f9f9f9"><path
             id="path58"
             style="fill:#f9f9f9;fill-opacity:1;fill-rule:nonzero;stroke:none"
             d="M 0,0 H 6.963 C 6.92,2.389 5.583,3.807 3.599,3.807 1.571,3.807 0.117,2.329 0,0 M 8.86,-1.51 H 0.001 c 0.129,-2.305 1.577,-3.818 3.73,-3.818 1.415,0 2.39,0.52 2.885,1.629 H 8.623 C 8.103,-5.73 6.33,-6.996 3.726,-6.996 c -3.572,0 -5.702,2.382 -5.702,6.202 v 0.092 c 0,3.917 2.248,6.199 5.608,6.199 3.358,0 5.256,-2.277 5.256,-6.266 0,-0.27 -0.009,-0.505 -0.028,-0.741" /></g><path
           id="path60"
           style="fill:#f9f9f9;fill-opacity:1;fill-rule:nonzero;stroke:none"
           d="m 305.751,98.992 h 2.471 v -2.391 h -2.471 z" /><g
           transform="translate(326.311,106.9321)"
           id="g62"
           style="fill:#f9f9f9"><path
             id="path64"
             style="fill:#f9f9f9;fill-opacity:1;fill-rule:nonzero;stroke:none"
             d="m 0,0 c 0,2.115 -1.092,3.088 -3.675,3.088 h -3.663 v -6.364 h 3.663 c 2.501,0 3.675,0.911 3.675,3.092 z m 2.106,0 v -0.184 c 0,-3.224 -2.087,-4.948 -5.617,-4.948 h -3.827 v -5.189 H -9.382 V 4.942 h 5.871 C 0.096,4.942 2.106,3.144 2.106,0" /></g><g
           transform="translate(332.1729,103.231)"
           id="g66"
           style="fill:#f9f9f9"><path
             id="path68"
             style="fill:#f9f9f9;fill-opacity:1;fill-rule:nonzero;stroke:none"
             d="M 0,0 H 6.964 C 6.92,2.389 5.584,3.807 3.6,3.807 1.572,3.807 0.117,2.329 0,0 M 8.86,-1.51 H 0.002 c 0.129,-2.305 1.576,-3.818 3.729,-3.818 1.415,0 2.39,0.52 2.885,1.629 H 8.623 C 8.104,-5.73 6.33,-6.996 3.727,-6.996 c -3.573,0 -5.702,2.382 -5.702,6.202 v 0.092 c 0,3.917 2.247,6.199 5.608,6.199 3.357,0 5.256,-2.277 5.256,-6.266 0,-0.27 -0.01,-0.505 -0.029,-0.741" /></g><g
           transform="translate(352.4365,102.4438)"
           id="g70"
           style="fill:#f9f9f9"><path
             id="path72"
             style="fill:#f9f9f9;fill-opacity:1;fill-rule:nonzero;stroke:none"
             d="M 0,0 V 0.073 C 0,2.788 -1.418,4.5 -3.656,4.5 -5.979,4.5 -7.379,2.733 -7.379,0.073 V 0 c 0,-2.707 1.428,-4.424 3.723,-4.424 C -1.416,-4.424 0,-2.705 0,0 m -9.37,0 v 0.073 c 0,3.816 2.344,6.211 5.714,6.211 3.322,0 5.638,-2.395 5.638,-6.211 L 1.982,0 c 0,-3.813 -2.316,-6.209 -5.638,-6.209 -3.37,0 -5.714,2.396 -5.714,6.209" /></g><g
           transform="translate(366.1631,102.5288)"
           id="g74"
           style="fill:#f9f9f9"><path
             id="path76"
             style="fill:#f9f9f9;fill-opacity:1;fill-rule:nonzero;stroke:none"
             d="M 0,0 C 0,2.879 -1.318,4.45 -3.621,4.442 -5.898,4.436 -7.206,2.893 -7.206,0 v -0.092 c 0,-2.815 1.244,-4.44 3.622,-4.44 2.35,0 3.584,1.63 3.584,4.44 z m 1.984,0 v -0.092 c 0,-3.806 -2.025,-6.197 -5.295,-6.197 -1.722,0 -2.935,0.664 -3.695,1.867 h -0.209 v -6.192 H -9.148 V 5.835 h 1.793 V 4.091 h 0.239 c 0.845,1.382 2.225,2.113 3.964,2.113 3.14,0 5.136,-2.392 5.136,-6.204" /></g><path
           id="path78"
           style="fill:#f9f9f9;fill-opacity:1;fill-rule:nonzero;stroke:none"
           d="m 370.87,113.284 h 1.949 V 96.611 h -1.949 z" /><g
           transform="translate(377.4717,103.231)"
           id="g80"
           style="fill:#f9f9f9"><path
             id="path82"
             style="fill:#f9f9f9;fill-opacity:1;fill-rule:nonzero;stroke:none"
             d="M 0,0 H 6.963 C 6.92,2.389 5.584,3.807 3.6,3.807 1.572,3.807 0.117,2.329 0,0 M 8.859,-1.51 H 0.002 c 0.129,-2.305 1.576,-3.818 3.728,-3.818 1.416,0 2.391,0.52 2.885,1.629 H 8.623 C 8.104,-5.73 6.33,-6.996 3.727,-6.996 c -3.573,0 -5.702,2.382 -5.702,6.202 v 0.092 c 0,3.917 2.246,6.199 5.608,6.199 3.357,0 5.256,-2.277 5.256,-6.266 0,-0.27 -0.01,-0.505 -0.03,-0.741" /></g><g
           transform="translate(400.835,106.6382)"
           id="g84"
           style="fill:#f9f9f9"><path
             id="path86"
             style="fill:#f9f9f9;fill-opacity:1;fill-rule:nonzero;stroke:none"
             d="M 0,0 H -3.242 V -10.027 H -5.191 V 0 h -2.231 v 1.714 h 1.174 c 0.951,0 1.057,0.101 1.057,1.01 v 1.409 c 0,1.832 0.714,2.513 2.63,2.513 h 2.465 V 4.932 H -3.242 V 1.714 H 0 Z" /></g><g
           transform="translate(411.2607,102.4438)"
           id="g88"
           style="fill:#f9f9f9"><path
             id="path90"
             style="fill:#f9f9f9;fill-opacity:1;fill-rule:nonzero;stroke:none"
             d="M 0,0 V 0.073 C 0,2.788 -1.418,4.5 -3.656,4.5 -5.979,4.5 -7.379,2.733 -7.379,0.073 V 0 c 0,-2.707 1.428,-4.424 3.723,-4.424 C -1.416,-4.424 0,-2.705 0,0 m -9.369,0 v 0.073 c 0,3.816 2.344,6.211 5.713,6.211 3.322,0 5.638,-2.395 5.638,-6.211 L 1.982,0 c 0,-3.813 -2.316,-6.209 -5.638,-6.209 -3.369,0 -5.713,2.396 -5.713,6.209" /></g><g
           transform="translate(422.1846,108.3521)"
           id="g92"
           style="fill:#f9f9f9"><path
             id="path94"
             style="fill:#f9f9f9;fill-opacity:1;fill-rule:nonzero;stroke:none"
             d="m 0,0 v -2.13 h -1.295 c -2.514,0 -3.101,-1.359 -3.101,-3.278 v -6.333 H -6.344 V 0 h 1.807 v -1.901 h 0.195 C -3.525,-0.813 -2.24,0 -0.383,0 Z" /></g><path
           id="path96"
           style="fill:#f9f9f9;fill-opacity:1;fill-rule:nonzero;stroke:none"
           d="m 430.706,111.875 h 2.043 V 96.611 h -2.043 z" /><g
           transform="translate(447.4736,110.02)"
           id="g98"
           style="fill:#f9f9f9"><path
             id="path100"
             style="fill:#f9f9f9;fill-opacity:1;fill-rule:nonzero;stroke:none"
             d="M 0,0 H -4.955 V -13.409 H -6.998 V 0 h -4.955 V 1.854 H 0 Z" /></g><path
           id="path102"
           style="fill:#f9f9f9;fill-opacity:1;fill-rule:nonzero;stroke:none"
           d="m 447.425,98.992 h 2.471 v -2.391 h -2.471 z" /><g
           transform="translate(107.0601,94.3013)"
           id="g104"
           style="fill:#f9f9f9"><path
             id="path106"
             style="fill:#f9f9f9;fill-opacity:1;fill-rule:nonzero;stroke:none"
             d="M 0,0 C 1.63,0 2.911,0.296 3.838,0.886 4.766,1.479 5.23,2.399 5.23,3.646 V 3.743 C 5.23,4.862 4.798,5.751 3.935,6.406 3.07,7.062 1.679,7.39 -0.241,7.39 H -8.787 V 0 Z m -1.969,13.534 c 1.63,0 2.928,0.281 3.888,0.84 0.959,0.56 1.44,1.464 1.44,2.711 v 0.099 c 0,1.118 -0.415,1.974 -1.248,2.565 -0.832,0.595 -2.033,0.889 -3.599,0.889 h -7.299 v -7.104 z m -14.327,13.585 h 15.883 c 3.864,0 6.788,-0.991 8.769,-2.977 1.532,-1.538 2.298,-3.441 2.298,-5.711 v -0.097 c 0,-0.962 -0.119,-1.809 -0.356,-2.544 C 10.057,15.054 9.742,14.392 9.343,13.8 8.945,13.205 8.486,12.687 7.959,12.237 7.436,11.79 6.872,11.406 6.267,11.088 8.209,10.349 9.739,9.351 10.853,8.087 11.969,6.823 12.526,5.072 12.526,2.83 V 2.735 c 0,-1.537 -0.296,-2.879 -0.885,-4.031 C 11.049,-2.447 10.201,-3.409 9.099,-4.177 7.997,-4.944 6.674,-5.521 5.122,-5.906 3.574,-6.29 1.857,-6.482 -0.028,-6.482 h -16.268 z" /></g><path
           id="path108"
           style="fill:#f9f9f9;fill-opacity:1;fill-rule:nonzero;stroke:none"
           d="M 131.868,77.369 H 77.37 v 54.5 h 54.498 z M 69.746,69.746 h 69.746 v 69.746 H 69.746 Z" /></g></g></g></svg>
