<?xml version="1.0" encoding="UTF-8" standalone="no"?>
<svg
   viewBox="0 0 578.51196 144.62933"
   height="144.62933"
   width="578.51196"
   xml:space="preserve"
   id="svg2"
   version="1.1"
   sodipodi:docname="Billennium-logotype.svg"
   inkscape:version="1.1.1 (3bf5ae0d25, 2021-09-20)"
   xmlns:inkscape="http://www.inkscape.org/namespaces/inkscape"
   xmlns:sodipodi="http://sodipodi.sourceforge.net/DTD/sodipodi-0.dtd"
   xmlns="http://www.w3.org/2000/svg"
   xmlns:svg="http://www.w3.org/2000/svg"
   xmlns:rdf="http://www.w3.org/1999/02/22-rdf-syntax-ns#"
   xmlns:cc="http://creativecommons.org/ns#"
   xmlns:dc="http://purl.org/dc/elements/1.1/"><sodipodi:namedview
     id="namedview563"
     pagecolor="#505050"
     bordercolor="#eeeeee"
     borderopacity="1"
     inkscape:pageshadow="0"
     inkscape:pageopacity="0"
     inkscape:pagecheckerboard="0"
     showgrid="false"
     inkscape:zoom="1.2932108"
     inkscape:cx="464.34812"
     inkscape:cy="103.23143"
     inkscape:window-width="2560"
     inkscape:window-height="1377"
     inkscape:window-x="-8"
     inkscape:window-y="472"
     inkscape:window-maximized="1"
     inkscape:current-layer="svg2" /><metadata
     id="metadata8"><rdf:RDF><cc:Work
         rdf:about=""><dc:format>image/svg+xml</dc:format><dc:type
           rdf:resource="http://purl.org/dc/dcmitype/StillImage" /></cc:Work></rdf:RDF></metadata><defs
     id="defs6"><clipPath
       id="clipPath18"
       clipPathUnits="userSpaceOnUse"><path
         id="path16"
         d="M 0,325.354 H 650.706 V 0 H 0 Z" /></clipPath></defs><g
     transform="matrix(1.3333333,0,0,-1.3333333,-144.60133,289.21733)"
     id="g10"><g
       id="g12"><g
         clip-path="url(#clipPath18)"
         id="g14"><g
           transform="translate(166.4834,146.6299)"
           id="g20"><path
             id="path22"
             style="fill:#000000;fill-opacity:1;fill-rule:nonzero;stroke:none"
             d="m 0,0 c 2.533,0 4.525,0.461 5.968,1.38 1.443,0.919 2.166,2.352 2.166,4.293 v 0.148 c 0,1.741 -0.673,3.123 -2.015,4.144 -1.346,1.019 -3.51,1.529 -6.495,1.529 H -13.665 V 0 Z m -3.063,21.051 c 2.536,0 4.553,0.435 6.046,1.304 1.493,0.87 2.241,2.278 2.241,4.217 v 0.153 c 0,1.738 -0.648,3.07 -1.945,3.989 -1.291,0.925 -3.158,1.383 -5.595,1.383 H -13.665 V 21.051 Z m -22.282,21.126 h 24.701 c 6.011,0 10.558,-1.542 13.636,-4.63 2.383,-2.39 3.577,-5.351 3.577,-8.883 v -0.149 c 0,-1.495 -0.185,-2.814 -0.555,-3.957 -0.372,-1.145 -0.866,-2.176 -1.485,-3.095 -0.618,-0.924 -1.334,-1.731 -2.152,-2.43 -0.816,-0.696 -1.69,-1.292 -2.631,-1.788 3.021,-1.149 5.4,-2.703 7.131,-4.667 1.734,-1.966 2.603,-4.689 2.603,-8.175 V 4.255 c 0,-2.39 -0.46,-4.478 -1.378,-6.269 -0.92,-1.792 -2.237,-3.287 -3.952,-4.479 -1.713,-1.195 -3.773,-2.094 -6.184,-2.692 -2.409,-0.595 -5.08,-0.895 -8.01,-0.895 h -25.301 z" /></g><g
           transform="translate(224.9209,188.8071)"
           id="g24"><path
             id="path26"
             style="fill:#000000;fill-opacity:1;fill-rule:nonzero;stroke:none"
             d="M 0,0 H 11.632 V -3.169 -9.171 H 0 v 3.109 z" /></g><g
           transform="translate(224.9209,175.5913)"
           id="g28"><path
             id="path30"
             style="fill:#000000;fill-opacity:1;fill-rule:nonzero;stroke:none"
             d="M 0,0 H 11.632 V -21.505 -39.042 H 0 v 34.364 z" /></g><g
           transform="translate(244.5518,188.8623)"
           id="g32"><path
             id="path34"
             style="fill:#000000;fill-opacity:1;fill-rule:nonzero;stroke:none"
             d="M 0,0 H 11.632 V -32.41 -52.313 H 0 v 37.52 z" /></g><g
           transform="translate(264.1807,188.8623)"
           id="g36"><path
             id="path38"
             style="fill:#000000;fill-opacity:1;fill-rule:nonzero;stroke:none"
             d="M 0,0 H 11.635 V -28.729 -52.313 H 0 v 39.886 z" /></g><g
           transform="translate(363.9385,161.4316)"
           id="g40"><path
             id="path42"
             style="fill:#000000;fill-opacity:1;fill-rule:nonzero;stroke:none"
             d="m 0,0 v -24.881 h -11.628 v 22.293 c 0,5.445 -1.999,8.394 -6.851,8.394 -4.583,0 -7.52,-2.646 -7.52,-8.396 V -24.881 H -37.631 V 14.16 H -26.65 V 9.179 h 0.875 c 2.543,4.174 6.525,6.208 11.928,6.208 C -4.748,15.387 0,9.467 0,0" /></g><g
           transform="translate(408.6846,161.4316)"
           id="g44"><path
             id="path46"
             style="fill:#000000;fill-opacity:1;fill-rule:nonzero;stroke:none"
             d="m 0,0 v -24.881 h -11.633 v 22.293 c 0,5.445 -1.998,8.394 -6.85,8.394 -4.582,0 -7.521,-2.646 -7.521,-8.396 V -24.881 H -37.635 V 14.16 h 10.979 V 9.179 h 0.876 c 2.544,4.174 6.526,6.208 11.932,6.208 C -4.75,15.387 0,9.467 0,0" /></g><g
           transform="translate(415.7959,188.8071)"
           id="g48"><path
             id="path50"
             style="fill:#000000;fill-opacity:1;fill-rule:nonzero;stroke:none"
             d="M 0,0 H 11.631 V -1.986 -8.643 H 0 v 3.765 z" /></g><g
           transform="translate(415.7959,175.5913)"
           id="g52"><path
             id="path54"
             style="fill:#000000;fill-opacity:1;fill-rule:nonzero;stroke:none"
             d="M 0,0 H 11.631 V -5.598 -39.042 H 0 v 27.659 z" /></g><g
           transform="translate(472.1689,175.5913)"
           id="g56"><path
             id="path58"
             style="fill:#000000;fill-opacity:1;fill-rule:nonzero;stroke:none"
             d="m 0,0 v -39.041 h -10.883 v 5.749 h -0.813 c -2.431,-4.858 -6.449,-6.975 -12.27,-6.975 -8.956,0 -13.667,5.952 -13.667,15.387 V 0 h 11.631 v -22.292 c 0,-5.764 2.363,-8.395 7.104,-8.395 4.644,0 7.268,3.164 7.268,8.206 V 0 Z" /></g><g
           transform="translate(542.335,161.3945)"
           id="g60"><path
             id="path62"
             style="fill:#000000;fill-opacity:1;fill-rule:nonzero;stroke:none"
             d="m 0,0 v -24.844 h -11.632 v 22.353 c 0,3.479 -0.997,8.334 -6.659,8.334 -4.693,0 -7.424,-2.484 -7.424,-8.382 v -22.305 h -11.632 v 22.353 c 0,5.624 -2.155,8.334 -6.701,8.334 -4.577,0 -7.384,-2.288 -7.384,-8.175 v -22.512 h -11.631 v 39.041 h 10.98 V 9.215 h 0.87 c 2.508,4.152 6.359,6.209 11.457,6.209 5.947,0 10.166,-2.363 12.148,-6.209 h 2.059 c 2.692,4.404 6.776,6.209 11.866,6.209 C -4.771,15.424 0,9.309 0,0" /></g><path
           id="path64"
           style="fill:#000000;fill-opacity:1;fill-rule:nonzero;stroke:none"
           d="m 205.065,120.298 h -84.759 v 84.759 h 84.759 z m -96.614,96.615 v -108.471 -10e-4 h 108.47 v 10e-4 108.471 z" /><g
           transform="translate(293.2549,160.3496)"
           id="g66"><path
             id="path68"
             style="fill:#000000;fill-opacity:1;fill-rule:nonzero;stroke:none"
             d="M 0,0 H 16.348 C 15.814,4.116 12.941,6.982 8.291,6.982 3.691,6.982 0.842,4.036 0,0 m 28,-11.888 c -1.43,-8.069 -8.672,-13.137 -19.111,-13.137 -12.549,0 -20.948,7.449 -20.948,20.664 v 0.244 c 0,13.008 8.301,20.587 20.334,20.587 12.01,0 19.438,-7.366 19.438,-20.003 0,-1.3 -0.064,-2.602 -0.184,-4.156 H -0.135 c 0.637,-4.86 3.625,-7.878 9.092,-7.878 3.489,0 5.912,1.137 7.116,3.679 z" /></g></g></g></g></svg>
