<?xml version="1.0" encoding="UTF-8" standalone="no"?>
<!-- Generator: Adobe Illustrator 26.0.1, SVG Export Plug-In . SVG Version: 6.00 Build 0)  -->

<svg
   version="1.1"
   id="Layer_1"
   x="0px"
   y="0px"
   width="325.35px"
   height="325.35px"
   viewBox="0 0 325.35 325.35"
   style="enable-background:new 0 0 325.35 325.35;"
   xml:space="preserve"
   sodipodi:docname="billennium_logomark_nobg.svg"
   inkscape:version="1.1.1 (3bf5ae0d25, 2021-09-20)"
   xmlns:inkscape="http://www.inkscape.org/namespaces/inkscape"
   xmlns:sodipodi="http://sodipodi.sourceforge.net/DTD/sodipodi-0.dtd"
   xmlns="http://www.w3.org/2000/svg"
   xmlns:svg="http://www.w3.org/2000/svg"><defs
   id="defs158" /><sodipodi:namedview
   id="namedview156"
   pagecolor="#505050"
   bordercolor="#eeeeee"
   borderopacity="1"
   inkscape:pageshadow="0"
   inkscape:pageopacity="0"
   inkscape:pagecheckerboard="0"
   showgrid="false"
   showguides="true"
   inkscape:guide-bbox="true"
   inkscape:zoom="3.5930536"
   inkscape:cx="162.675"
   inkscape:cy="162.675"
   inkscape:window-width="2560"
   inkscape:window-height="1377"
   inkscape:window-x="-8"
   inkscape:window-y="472"
   inkscape:window-maximized="1"
   inkscape:current-layer="Layer_1"><sodipodi:guide
     position="165.94063,169.56256"
     orientation="1,0"
     id="guide240" /></sodipodi:namedview>
<style
   type="text/css"
   id="style147">
	.st0{fill:#FFFFFF;}
</style>
<g
   id="g153"
   transform="matrix(2.9969266,0,0,2.9969266,-324.98404,-324.75138)">
	<path
   class="st0"
   d="m 141.13,136.54 h 24.7 c 6.01,0 10.55,1.54 13.63,4.63 2.38,2.39 3.58,5.35 3.58,8.88 v 0.15 c 0,1.5 -0.18,2.81 -0.55,3.96 -0.37,1.15 -0.87,2.18 -1.49,3.09 -0.62,0.92 -1.33,1.73 -2.15,2.43 -0.81,0.7 -1.69,1.29 -2.63,1.79 3.02,1.15 5.4,2.7 7.13,4.67 1.74,1.97 2.6,4.69 2.6,8.17 v 0.15 c 0,2.39 -0.46,4.48 -1.38,6.27 -0.92,1.79 -2.24,3.29 -3.95,4.48 -1.71,1.2 -3.77,2.09 -6.18,2.69 -2.41,0.6 -5.08,0.9 -8.01,0.9 h -25.3 z m 22.28,21.13 c 2.53,0 4.55,-0.44 6.04,-1.3 1.49,-0.87 2.24,-2.28 2.24,-4.22 V 152 c 0,-1.74 -0.65,-3.07 -1.94,-3.99 -1.29,-0.92 -3.16,-1.38 -5.6,-1.38 H 152.8 v 11.04 z m 3.06,21.04 c 2.53,0 4.53,-0.46 5.97,-1.38 1.44,-0.92 2.17,-2.35 2.17,-4.29 v -0.15 c 0,-1.74 -0.67,-3.12 -2.02,-4.14 -1.34,-1.02 -3.51,-1.53 -6.49,-1.53 h -13.29 v 11.49 z"
   id="path149" />
	<path
   class="st0"
   d="m 108.45,108.44 v 108.45 0 H 216.9 v 0 -108.45 z m 96.6,96.6 H 120.3 V 120.3 h 84.74 v 84.74 z"
   id="path151" />
</g>
</svg>
