<?xml version="1.0" encoding="UTF-8" standalone="no"?>
<svg
   width="94.70665"
   height="76.273346"
   viewBox="0 0 94.70665 76.273346"
   version="1.1"
   id="svg73"
   sodipodi:docname="Delivery.svg"
   inkscape:version="1.1.1 (3bf5ae0d25, 2021-09-20)"
   xmlns:inkscape="http://www.inkscape.org/namespaces/inkscape"
   xmlns:sodipodi="http://sodipodi.sourceforge.net/DTD/sodipodi-0.dtd"
   xmlns="http://www.w3.org/2000/svg"
   xmlns:svg="http://www.w3.org/2000/svg">
  <defs
     id="defs77" />
  <sodipodi:namedview
     id="namedview75"
     pagecolor="#505050"
     bordercolor="#eeeeee"
     borderopacity="1"
     inkscape:pageshadow="0"
     inkscape:pageopacity="0"
     inkscape:pagecheckerboard="0"
     showgrid="false"
     inkscape:zoom="8.1180556"
     inkscape:cx="46.994012"
     inkscape:cy="38.001711"
     inkscape:window-width="2560"
     inkscape:window-height="1377"
     inkscape:window-x="-8"
     inkscape:window-y="472"
     inkscape:window-maximized="1"
     inkscape:current-layer="svg73" />
  <!-- Generator: Sketch 63.1 (92452) - https://sketch.com -->
  <title
     id="title44">Stickers/Delivery</title>
  <desc
     id="desc46">Created with Sketch.</desc>
  <g
     id="Stickers/Delivery"
     stroke="none"
     stroke-width="1"
     fill="none"
     fill-rule="evenodd"
     transform="translate(-24.9995,-33.9996)">
    <g
       id="Group-25"
       transform="translate(31,40)">
      <polygon
         id="Fill-1"
         fill="#ffffff"
         points="47.325,18.1224 2.231,18.1224 2.231,51.9424 47.325,51.9424 " />
      <polygon
         id="Stroke-2"
         stroke="#000000"
         stroke-width="4"
         points="47.325,18.1224 2.231,18.1224 2.231,51.9424 47.325,51.9424 " />
      <polygon
         id="Stroke-3"
         stroke="#ff5a00"
         stroke-width="12"
         stroke-linejoin="round"
         points="64.7835,-0.0004 15.1795,-0.0004 15.1795,15.7956 -0.0005,15.7956 -0.0005,54.1246 37.0575,54.1246 49.6035,64.2736 49.6035,55.1476 64.7835,55.1476 64.7835,47.0976 82.7065,32.5996 64.7835,18.1016 " />
      <polygon
         id="Fill-5"
         fill="#ffffff"
         points="62.506,2.3264 17.412,2.3264 17.412,36.1474 62.506,36.1474 " />
      <polygon
         id="Stroke-6"
         stroke="#000000"
         stroke-width="4"
         points="62.506,2.3264 17.412,2.3264 17.412,36.1474 62.506,36.1474 " />
      <polygon
         id="Fill-7"
         fill="#ffffff"
         points="17.4114,2.3264 20.4824,2.3264 62.5054,2.3264 62.5054,32.1644 62.5054,36.1484 17.4114,36.1484 " />
      <polygon
         id="Stroke-8"
         stroke="#000000"
         stroke-width="4"
         points="17.4114,2.3264 20.4824,2.3264 62.5054,2.3264 62.5054,32.1644 62.5054,36.1484 17.4114,36.1484 " />
      <path
         d="m 23.2077,10.2308 h 18.146 z"
         id="Fill-9"
         fill="#ffffff" />
      <line
         x1="23.208"
         y1="10.2304"
         x2="41.354"
         y2="10.2304"
         id="Stroke-10"
         stroke="#000000"
         stroke-width="4" />
      <polygon
         id="Fill-11"
         fill="#ffffff"
         points="47.325,18.1224 2.231,18.1224 2.231,51.9424 47.325,51.9424 " />
      <polygon
         id="Stroke-12"
         stroke="#000000"
         stroke-width="4"
         points="47.325,18.1224 2.231,18.1224 2.231,51.9424 47.325,51.9424 " />
      <polygon
         id="Fill-13"
         fill="#ffffff"
         points="47.3254,51.942 40.0604,51.942 2.2314,51.942 2.2314,23.534 2.2314,18.122 47.3254,18.122 " />
      <polygon
         id="Stroke-14"
         stroke="#000000"
         stroke-width="4"
         points="47.3254,51.942 40.0604,51.942 2.2314,51.942 2.2314,23.534 2.2314,18.122 47.3254,18.122 " />
      <path
         d="m 8.0274,26.2634 h 18.146 z"
         id="Fill-15"
         fill="#ffffff" />
      <line
         x1="8.0277996"
         y1="26.263599"
         x2="26.1738"
         y2="26.263599"
         id="Stroke-16"
         stroke="#ff5a00"
         stroke-width="4" />
      <path
         d="m 8.0274,34.4705 h 14.495 z"
         id="Fill-17"
         fill="#ffffff" />
      <line
         x1="8.0277996"
         y1="34.470699"
         x2="22.5228"
         y2="34.470699"
         id="Stroke-18"
         stroke="#ff5a00"
         stroke-width="4" />
      <path
         d="m 29.8533,26.2634 h 4.51 z"
         id="Fill-19"
         fill="#ffffff" />
      <line
         x1="29.8535"
         y1="26.263599"
         x2="34.362499"
         y2="26.263599"
         id="Stroke-20"
         stroke="#ff5a00"
         stroke-width="4" />
      <polygon
         id="Fill-21"
         fill="#ffffff"
         points="62.5056,25.9078 47.3256,25.9078 47.3256,39.4368 62.5056,39.4368 62.5056,46.0938 79.0986,32.6718 62.5056,19.2488 " />
      <polygon
         id="Stroke-22"
         stroke="#000000"
         stroke-width="4"
         points="62.5056,25.9078 47.3256,25.9078 47.3256,39.4368 62.5056,39.4368 62.5056,46.0938 79.0986,32.6718 62.5056,19.2488 " />
      <polygon
         id="Fill-23"
         fill="#ffffff"
         points="47.3254,39.4362 62.5054,39.4362 62.5054,52.9652 47.3254,52.9652 47.3254,59.6212 30.7324,46.2002 47.3254,32.7772 " />
      <polygon
         id="Stroke-24"
         stroke="#000000"
         stroke-width="4"
         points="47.3254,39.4362 62.5054,39.4362 62.5054,52.9652 47.3254,52.9652 47.3254,59.6212 30.7324,46.2002 47.3254,32.7772 " />
    </g>
  </g>
</svg>
