<?xml version="1.0" encoding="UTF-8" standalone="no"?>
<svg
   width="92.502998"
   height="112.121"
   viewBox="0 0 92.502998 112.121"
   version="1.1"
   id="svg69"
   sodipodi:docname="Face.svg"
   inkscape:version="1.1.1 (3bf5ae0d25, 2021-09-20)"
   xmlns:inkscape="http://www.inkscape.org/namespaces/inkscape"
   xmlns:sodipodi="http://sodipodi.sourceforge.net/DTD/sodipodi-0.dtd"
   xmlns="http://www.w3.org/2000/svg"
   xmlns:svg="http://www.w3.org/2000/svg">
  <defs
     id="defs73" />
  <sodipodi:namedview
     id="namedview71"
     pagecolor="#505050"
     bordercolor="#eeeeee"
     borderopacity="1"
     inkscape:pageshadow="0"
     inkscape:pageopacity="0"
     inkscape:pagecheckerboard="0"
     showgrid="false"
     inkscape:zoom="8.1180556"
     inkscape:cx="46.994012"
     inkscape:cy="55.986313"
     inkscape:window-width="2560"
     inkscape:window-height="1377"
     inkscape:window-x="-8"
     inkscape:window-y="472"
     inkscape:window-maximized="1"
     inkscape:current-layer="svg69" />
  <!-- Generator: Sketch 61 (89581) - https://sketch.com -->
  <title
     id="title42">Stickers/Face</title>
  <desc
     id="desc44">Created with Sketch.</desc>
  <g
     id="Stickers/Face"
     stroke="none"
     stroke-width="1"
     fill="none"
     fill-rule="evenodd"
     transform="translate(-24.9999,-16.0002)">
    <g
       id="Group-33"
       transform="translate(25,16)">
      <g
         id="Group"
         transform="translate(-1e-4,2e-4)">
        <path
           d="M 86.503,35.842 C 86.503,19.387 73.119,6 56.669,6 40.213,6 26.825,19.387 26.825,35.842 c 0,3.254 0.532,6.386 1.499,9.321 L 9.266,56.172 C 7.251,57.336 6,59.504 6,61.83 v 25.169 c 0,2.325 1.251,4.493 3.266,5.657 l 21.796,12.589 c 0.992,0.573 2.122,0.876 3.267,0.876 1.146,0 2.276,-0.303 3.268,-0.876 l 21.8,-12.589 c 2.014,-1.163 3.266,-3.331 3.266,-5.658 V 65.076 c 13.588,-2.782 23.84,-14.833 23.84,-29.234"
           id="Fill-1"
           fill="#0e0a05" />
        <path
           d="M 56.669,0 C 36.899349,0 20.825,16.073234 20.825,35.842 l 0.0072,0.717733 c 0.0383,1.911777 0.229526,3.805605 0.5689,5.672067 L 6.2648022,50.976539 C 2.3942772,53.212416 0,57.360659 0,61.83 v 25.169 c 0,4.468606 2.3945067,8.616717 6.264764,10.852439 l 21.796329,12.589191 c 1.904093,1.09984 4.06913,1.68037 6.267907,1.68037 2.199531,0 4.364601,-0.5804 6.269055,-1.68046 L 62.397494,97.851867 62.684992,97.68068 C 66.386134,95.409245 68.663,91.356339 68.663,86.998 l -9e-4,-17.3802 0.02701,-0.0088 C 82.710136,64.613743 92.503,51.217185 92.503,35.842 92.503,16.073836 76.433254,0 56.669,0 Z m 0,12 c 13.136153,0 23.834,10.70057 23.834,23.842 0,11.226835 -7.872324,20.886269 -18.674102,23.277248 l -0.36937,0.07869 C 58.667623,59.769548 56.663,62.22618 56.663,65.076 v 21.922 c 0,0.183216 -0.108275,0.370768 -0.266419,0.462089 L 34.596506,100.04913 c -0.08034,0.0464 -0.175312,0.0719 -0.267506,0.0719 -0.09121,0 -0.186171,-0.0255 -0.265945,-0.0715 L 12.266907,87.460371 C 12.108218,87.368702 12,87.181231 12,86.999 V 61.83 c 0,-0.183219 0.108208,-0.370696 0.267236,-0.462561 L 31.325198,50.358461 c 2.460646,-1.421412 3.586704,-4.374039 2.697469,-7.073012 C 33.232715,40.88782 32.825,38.387929 32.825,35.842 32.825,22.700837 43.52658,12 56.669,12 Z"
           id="Stroke-3"
           fill="#ff5a00"
           fill-rule="nonzero" />
        <path
           d="m 29.0577,35.841 c 0,-15.375 12.467,-27.842 27.844,-27.842 15.377,0 27.834,12.467 27.834,27.842 0,15.38 -12.457,27.84 -27.834,27.84 -15.377,0 -27.844,-12.46 -27.844,-27.84"
           id="Fill-5"
           fill="#ffffff" />
        <path
           d="m 56.9017,5.999 c -16.481238,0 -29.844,13.362099 -29.844,29.842 0,16.482893 13.360753,29.84 29.844,29.84 16.481561,0 29.834,-13.355422 29.834,-29.84 0,-16.481587 -13.354447,-29.842 -29.834,-29.842 z m 0,4 c 14.270014,0 25.834,11.569152 25.834,25.842 0,14.275639 -11.561778,25.84 -25.834,25.84 -14.274352,0 -25.844,-11.566491 -25.844,-25.84 0,-14.270718 11.571857,-25.842 25.844,-25.842 z"
           id="Stroke-7"
           fill="#0e0a05"
           fill-rule="nonzero" />
        <path
           d="m 8.2325,61.8288 c 0,-1.619 0.863,-3.116 2.266,-3.926 l 21.796,-12.591 c 1.403,-0.81 3.131,-0.81 4.535,0 l 21.8,12.592 c 1.403,0.809 2.266,2.306 2.266,3.925 v 25.168 c 0,1.62 -0.864,3.117 -2.267,3.926 l -21.799,12.59 c -1.404,0.81 -3.132,0.81 -4.535,-0.001 l -21.796,-12.589 c -1.402,-0.809 -2.266,-2.306 -2.266,-3.925 z"
           id="Fill-9"
           fill="#ffffff" />
        <path
           d="M 31.294521,43.579737 9.4980785,56.170993 C 7.4770848,57.337781 6.2325,59.494823 6.2325,61.8288 v 25.169 c 0,2.333729 1.2454019,4.4911 3.2664125,5.657289 L 31.294198,105.24368 c 2.021072,1.16827 4.511639,1.16867 6.534747,0.001 L 59.628759,92.654701 C 61.649841,91.489303 62.8955,89.331778 62.8955,86.9968 v -25.168 c 0,-2.334354 -1.244984,-4.49169 -3.266947,-5.657597 L 37.828945,43.579429 c -2.022609,-1.16689 -4.512722,-1.16689 -6.534424,3.08e-4 z m 4.535534,3.464434 21.799102,12.591481 c 0.783965,0.452053 1.266343,1.287927 1.266343,2.193148 v 25.168 c 0,0.905544 -0.482793,1.741758 -1.266053,2.193403 L 35.829241,101.7809 c -0.784556,0.45263 -1.749988,0.45247 -2.533836,-6.3e-4 L 11.498802,89.190924 C 10.715375,88.73886 10.2325,87.902391 10.2325,86.9978 v -25.169 c 0,-0.905322 0.482539,-1.74163 1.265979,-2.193937 L 33.294921,47.043607 c 0.783856,-0.452546 1.749743,-0.452546 2.535134,5.64e-4 z"
           id="Stroke-11"
           fill="#0e0a05"
           fill-rule="nonzero" />
        <path
           d="m 46.2501,78.8 c 0,6.459 -5.232,11.688 -11.686,11.688 -6.45,0 -11.689,-5.229 -11.689,-11.688"
           id="Fill-13"
           fill="#ffffff" />
        <path
           d="m 24.8751,78.8 c 0,5.350842 4.339979,9.688 9.689,9.688 5.258547,0 9.536208,-4.186749 9.682151,-9.412043 L 44.2501,78.8 h 4 c 0,7.562251 -6.126111,13.688 -13.686,13.688 -7.45405,0 -13.520748,-5.960712 -13.68556,-13.378111 L 20.8751,78.8 Z"
           id="Stroke-15"
           fill="#0e0a05"
           fill-rule="nonzero" />
        <path
           d="m 22.8753,62.4326 c 4.275267,0 7.753516,3.398381 7.883249,7.640353 l 0.0038,0.245647 h -4 c 0,-2.146726 -1.738865,-3.886 -3.887,-3.886 -2.073157,0 -3.772738,1.634987 -3.876938,3.686234 L 18.9933,70.3186 h -4 c 0,-4.352862 3.532723,-7.886 7.882,-7.886 z"
           id="Stroke-17"
           fill="#ff5a00"
           fill-rule="nonzero" />
        <path
           d="m 40.3634,70.3186 c 0,-3.25 2.64,-5.886 5.889,-5.886 3.247,0 5.883,2.636 5.883,5.886"
           id="Fill-19"
           fill="#ffffff" />
        <path
           d="m 46.2524,62.4326 c 4.270074,0 7.749469,3.400025 7.879247,7.640446 l 0.0038,0.245554 h -4 c 0,-2.145124 -1.740263,-3.886 -3.883,-3.886 -2.078662,0 -3.779652,1.634689 -3.883934,3.686206 L 42.3634,70.3186 h -4 c 0,-4.354021 3.53488,-7.886 7.889,-7.886 z"
           id="Stroke-21"
           fill="#0e0a05"
           fill-rule="nonzero" />
        <path
           d="m 68.5753,32.9577 c 0,6.454 -5.232,11.688 -11.68,11.688 -6.449,0 -11.687,-5.234 -11.687,-11.688"
           id="Fill-23"
           fill="#ffffff" />
        <path
           d="m 47.2083,32.9577 c 0,5.347815 4.340954,9.688 9.687,9.688 5.251579,0 9.530173,-4.190526 9.67615,-9.412238 L 66.5753,32.9577 h 4 c 0,7.557758 -6.126619,13.688 -13.68,13.688 -7.451533,0 -13.518734,-5.964068 -13.68356,-13.378249 L 43.2083,32.9577 Z"
           id="Stroke-25"
           fill="#0e0a05"
           fill-rule="nonzero" />
        <path
           d="m 39.3253,27.3562 c 0,-3.254 2.638,-5.886 5.883,-5.886 3.246,0 5.887,2.632 5.887,5.886"
           id="Fill-27"
           fill="#ffffff" />
        <path
           d="m 45.2083,19.4702 c 4.270868,0 7.75335,3.397911 7.883244,7.640326 l 0.0038,0.245674 h -4 c 0,-2.145953 -1.742089,-3.886 -3.887,-3.886 -2.076152,0 -3.773864,1.632257 -3.877944,3.685978 L 41.3253,27.3562 h -4 c 0,-4.356192 3.531052,-7.886 7.883,-7.886 z"
           id="Stroke-29"
           fill="#0e0a05"
           fill-rule="nonzero" />
        <path
           d="m 68.5754,19.4702 c 4.274843,0 7.759276,3.396996 7.889242,7.640275 l 0.0038,0.245725 h -4 c 0,-2.146168 -1.743304,-3.886 -3.893,-3.886 -2.070923,0 -3.769783,1.633761 -3.87394,3.686119 L 64.6964,27.3562 h -4 c 0,-4.354485 3.532345,-7.886 7.879,-7.886 z"
           id="Stroke-31"
           fill="#ff5a00"
           fill-rule="nonzero" />
      </g>
      <g
         id="Group-16"
         transform="translate(20,78.121)" />
      <g
         id="Group-22"
         transform="translate(38,62.121)" />
      <g
         id="Group-26"
         transform="translate(43,32.121)" />
      <g
         id="Group-30"
         transform="translate(37,19.121)" />
    </g>
  </g>
</svg>
