<?xml version="1.0" encoding="UTF-8" standalone="no"?>
<svg
   width="83.199669"
   height="109.296"
   viewBox="0 0 83.199669 109.296"
   version="1.1"
   id="svg63"
   sodipodi:docname="Fury.svg"
   inkscape:version="1.1.1 (3bf5ae0d25, 2021-09-20)"
   xmlns:inkscape="http://www.inkscape.org/namespaces/inkscape"
   xmlns:sodipodi="http://sodipodi.sourceforge.net/DTD/sodipodi-0.dtd"
   xmlns="http://www.w3.org/2000/svg"
   xmlns:svg="http://www.w3.org/2000/svg">
  <defs
     id="defs67" />
  <sodipodi:namedview
     id="namedview65"
     pagecolor="#505050"
     bordercolor="#eeeeee"
     borderopacity="1"
     inkscape:pageshadow="0"
     inkscape:pageopacity="0"
     inkscape:pagecheckerboard="0"
     showgrid="false"
     inkscape:zoom="8.1180556"
     inkscape:cx="42.43627"
     inkscape:cy="54.015398"
     inkscape:window-width="2560"
     inkscape:window-height="1377"
     inkscape:window-x="-8"
     inkscape:window-y="472"
     inkscape:window-maximized="1"
     inkscape:current-layer="svg63" />
  <!-- Generator: Sketch 61 (89581) - https://sketch.com -->
  <title
     id="title39">Stickers/Fury</title>
  <desc
     id="desc41">Created with Sketch.</desc>
  <g
     id="Stickers/Fury"
     stroke="none"
     stroke-width="1"
     fill="none"
     fill-rule="evenodd"
     transform="translate(-29.999601,-17.9994)">
    <g
       id="Group-31"
       transform="translate(30,18)">
      <g
         id="Group"
         transform="translate(-3.99e-4,-6e-4)">
        <path
           d="m 75.913499,50.487 -28.227,-41.276 c -1.374,-2.01 -3.65,-3.211 -6.085,-3.211 -2.434,0 -4.711,1.202 -6.084,3.211 L 7.2964992,50.489 c -1.715,2.508 -1.715,5.812 -0.08,8.202 L 35.436499,99.966 c 1.454,2.126 3.729,3.33 6.165,3.33 2.435,0 4.714,-1.2 6.085,-3.209 l 28.227,-41.278 c 1.715,-2.509 1.715,-5.813 0,-8.322"
           id="Fill-1"
           fill="#0e0a05" />
        <path
           d="M 41.601499,0 C 37.185996,0 33.055071,2.1803339 30.563842,5.8255488 L 2.3434345,47.102682 c -3.09027221,4.519185 -3.1319492,10.513377 -0.079033,14.97605 L 30.483493,103.3524 c 2.553599,3.73381 6.667106,5.9436 11.118006,5.9436 4.417467,0 8.551749,-2.17935 11.040955,-5.82691 L 80.866229,62.195809 c 3.111139,-4.551516 3.111139,-10.544102 6.63e-4,-15.094647 L 52.639152,5.8240795 C 50.147573,2.1791928 46.017874,0 41.601499,0 Z"
           id="Path"
           fill="#ff5a00"
           fill-rule="nonzero" />
        <path
           d="m 41.601499,12 c 0.45366,0 0.875946,0.222836 1.131706,0.596983 L 70.960846,53.87392 c 0.318784,0.466373 0.318784,1.081787 -7.39e-4,1.549242 L 42.73377,96.700191 C 42.479192,97.073234 42.056598,97.296 41.601499,97.296 c -0.454865,0 -0.877203,-0.226881 -1.212471,-0.717101 L 12.169505,55.304596 c -0.240733,-0.351898 -0.236461,-0.966403 0.07976,-1.428838 L 40.470564,12.597318 C 40.726121,12.223382 41.149347,12 41.601499,12 Z"
           id="path45"
           fill="#ff5a00"
           fill-rule="nonzero" />
        <path
           d="m 41.601499,101.28 c -1.795,0 -3.436,-0.894 -4.501,-2.452 L 8.8804992,57.553 c -1.188,-1.737 -1.155,-4.118 0.08,-5.926 L 37.181499,10.349 c 0.998,-1.461 2.651,-2.333 4.42,-2.333 1.77,0 3.422,0.872 4.421,2.333 l 28.227,41.276 c 1.255,1.837 1.255,4.21 0,6.047 l -28.227,41.277 c -0.996,1.46 -2.649,2.331 -4.421,2.331"
           id="Fill-5"
           fill="#ffffff" />
        <path
           d="m 41.601999,6.0002 c -2.434,0 -4.711,1.202 -6.085,3.211 L 7.2969992,50.4892 c -1.715,2.508 -1.715,5.812 -0.08,8.202 l 28.2189998,41.274 c 1.455,2.127 3.73,3.33 6.166,3.33 2.434,0 4.713,-1.199 6.084,-3.209 l 28.228,-41.277 c 1.715,-2.509 1.715,-5.813 0,-8.322 l -28.227,-41.277 c -1.374,-2.009 -3.651,-3.21 -6.085,-3.21 m 0,4.032 c 1.104,0 2.134,0.544 2.757,1.454 l 28.226,41.277 c 0.783,1.145 0.783,2.625 0,3.77 l -28.229,41.281 c -0.619,0.907 -1.649,1.449 -2.754,1.449 -1.12,0 -2.153,-0.573 -2.837,-1.573 l -28.221,-41.275 c -0.7109998,-1.04 -0.6769998,-2.541 0.081,-3.651 l 28.221,-41.278 c 0.622,-0.91 1.652,-1.454 2.756,-1.454"
           id="Fill-7"
           fill="#0e0a05" />
        <polygon
           id="Fill-9"
           fill="#ff5a00"
           points="44.708699,38.7519 49.237699,38.7519 38.799699,63.0319 34.271699,63.0319 " />
        <polygon
           id="Stroke-11"
           fill="#0e0a05"
           fill-rule="nonzero"
           points="18.294799,71.6647 18.294799,67.6647 66.165799,67.6647 66.165799,71.6647 " />
        <polygon
           id="Stroke-13"
           fill="#0e0a05"
           fill-rule="nonzero"
           points="29.279199,88.3083 29.279199,84.3083 54.499199,84.3083 54.499199,88.3083 " />
        <polygon
           id="Stroke-15"
           fill="#0e0a05"
           fill-rule="nonzero"
           points="28.726499,75.7567 28.726499,69.6647 32.726499,69.6647 32.726499,75.7567 " />
        <polygon
           id="Stroke-17"
           fill="#0e0a05"
           fill-rule="nonzero"
           points="36.799699,75.7567 36.799699,69.6647 40.799699,69.6647 40.799699,75.7567 " />
        <polygon
           id="Stroke-19"
           fill="#0e0a05"
           fill-rule="nonzero"
           points="44.874899,86.6552 44.874899,80.5612 48.874899,80.5612 48.874899,86.6552 " />
        <polygon
           id="Stroke-21"
           fill="#0e0a05"
           fill-rule="nonzero"
           points="36.799699,86.6547 36.799699,78.3317 40.799699,78.3317 40.799699,86.6547 " />
        <polygon
           id="Stroke-23"
           fill="#0e0a05"
           fill-rule="nonzero"
           points="46.299566,77.51512 44.908566,70.03012 48.841233,69.29928 50.232233,76.78428 " />
        <path
           d="m 35.238199,43.07 v 4.132 c 0,4.19847 -3.404331,7.607 -7.599,7.607 -4.120391,0 -7.46935,-3.273409 -7.599098,-7.3608 l -0.0039,-0.2462 V 43.93 h 4 v 3.272 c 0,1.99364 1.610777,3.607 3.603,3.607 1.920412,0 3.494449,-1.513953 3.594002,-3.415586 l 0.005,-0.191414 V 43.07 Z"
           id="Stroke-25"
           fill="#0e0a05"
           fill-rule="nonzero" />
        <polygon
           id="Stroke-27"
           fill="#0e0a05"
           fill-rule="nonzero"
           points="65.074478,52.801677 62.30612,55.688923 55.772399,49.4246 49.245934,55.688487 46.476665,52.802113 55.772862,43.883075 " />
        <polygon
           id="Stroke-29"
           fill="#0e0a05"
           fill-rule="nonzero"
           points="16.046799,45.07 16.046799,41.07 39.228799,41.07 39.228799,45.07 " />
      </g>
    </g>
  </g>
</svg>
