<?xml version="1.0" encoding="UTF-8" standalone="no"?>
<svg
   width="88.621002"
   height="79.986"
   viewBox="0 0 88.621002 79.986"
   version="1.1"
   id="svg65"
   sodipodi:docname="Lick.svg"
   inkscape:version="1.1.1 (3bf5ae0d25, 2021-09-20)"
   xmlns:inkscape="http://www.inkscape.org/namespaces/inkscape"
   xmlns:sodipodi="http://sodipodi.sourceforge.net/DTD/sodipodi-0.dtd"
   xmlns="http://www.w3.org/2000/svg"
   xmlns:svg="http://www.w3.org/2000/svg">
  <defs
     id="defs69" />
  <sodipodi:namedview
     id="namedview67"
     pagecolor="#505050"
     bordercolor="#eeeeee"
     borderopacity="1"
     inkscape:pageshadow="0"
     inkscape:pageopacity="0"
     inkscape:pagecheckerboard="0"
     showgrid="false"
     inkscape:zoom="8.1180556"
     inkscape:cx="45.023097"
     inkscape:cy="39.972626"
     inkscape:window-width="2560"
     inkscape:window-height="1377"
     inkscape:window-x="-8"
     inkscape:window-y="472"
     inkscape:window-maximized="1"
     inkscape:current-layer="svg65" />
  <!-- Generator: Sketch 61 (89581) - https://sketch.com -->
  <title
     id="title40">Stickers/Lick</title>
  <desc
     id="desc42">Created with Sketch.</desc>
  <g
     id="Stickers/Lick"
     stroke="none"
     stroke-width="1"
     fill="none"
     fill-rule="evenodd"
     transform="translate(-26.9997,-32)">
    <g
       id="Group-29"
       transform="translate(27,32)">
      <g
         id="Group"
         transform="translate(-3e-4)">
        <path
           d="M 63.678,6 H 24.944 C 14.498,6 6,14.497 6,24.942 c 0,6.759 3.601,12.975 9.424,16.369 v 11.703 c 0,11.564 9.408,20.972 20.973,20.972 11.563,0 20.97,-9.408 20.97,-20.972 v -9.128 h 6.311 c 10.445,0 18.943,-8.498 18.943,-18.944 C 82.621,14.497 74.123,6 63.678,6"
           id="Fill-1"
           fill="#ff5a00" />
        <path
           d="M 63.678,0 H 24.944 C 11.184403,0 0,11.18318 0,24.942 l 0.0038026,0.436318 c 0.12915542,7.407526 3.5415985,14.299201 9.1994132,18.902754 L 9.4233,44.457 l 7e-4,8.557 c 0,14.877908 12.09449,26.972 26.973,26.972 l 0.44546,-0.0036 C 51.51446,79.743834 63.367,67.742835 63.367,53.014 l -7e-4,-3.128 h 0.3117 c 13.758912,0 24.943,-11.184495 24.943,-24.944 C 88.621,11.183384 77.436801,0 63.678,0 Z M 24.944,12 h 38.734 c 7.13158,0 12.943,5.810997 12.943,12.942 0,7.132186 -5.811603,12.944 -12.943,12.944 h -6.311 c -3.313709,0 -6,2.686291 -6,6 v 9.128 c 0,8.25046 -6.720877,14.972 -14.97,14.972 -8.251181,0 -14.973,-6.721598 -14.973,-14.972 V 41.311 c 0,-2.049367 -1.045337,-3.95057 -2.760716,-5.050472 L 18.445399,36.127261 C 14.451446,33.799341 12,29.5486 12,24.942 12,17.810891 17.811526,12 24.944,12 Z"
           id="Stroke-3"
           fill="#ff5a00"
           fill-rule="nonzero" />
        <path
           d="m 18.2386,34.1406 c -0.217,0.73 -1.979,3.779 -2.756,4.094 -0.992,0.399 -2.045,-1.448 -2.586,-2.095 -1.939,-2.319 -3.752,-4.417 -4.062,-7.518 -0.188,-1.86 -0.25,-3.741 -0.231,-5.631 0.024,-2.256 0.004,-5.426 1.623,-7.195 1.217,-1.328 3.305,-2.062 4.754,-3.08 2.899,-2.038 5.778,-3.252 9.279,-3.882 10.458,-1.877 21.215,-1.044 31.819,-1.044 3.771,0 7.553,0.409 11.299,0.895 2.453,0.317 6.125,0.742 8.09,2.411 1.433,1.214 2.73,2.81 3.105,4.674 0.27,1.344 0.295,2.67 0.633,3.999 0.689,2.716 2.119,6.29 -2.098,6.475 -4.17,0.182 -8.31,-0.124 -12.482,0.03 -3.043,0.111 -6.104,0.091 -9.157,0.091 -4.212,0 -9.509,-0.353 -13.207,1.974 -1.224,0.769 -1.814,1.473 -3.355,1.387 -2.604,-0.148 -4.686,-2.172 -7.313,-2.414 -2.898,-0.271 -5.679,0.833 -8.046,2.42 -1.62,1.087 -2.506,2.639 -3.914,3.827 -0.454,0.381 -1.09,0.625 -1.512,0.931"
           id="Fill-5"
           fill="#ffffff" />
        <path
           d="M 24.136558,8.1480542 C 29.991658,7.097182 35.704682,6.8216267 44.541905,6.9340024 l 9.186906,0.1476073 c 0.653925,0.00648 1.255535,0.00995 1.877942,0.011073 L 56.0786,7.0931 c 3.043372,0 6.088098,0.2403839 10.187424,0.7483167 l 2.307546,0.2974744 c 1.026758,0.1377617 1.561781,0.2235371 2.266355,0.3643281 l 0.165904,0.033516 c 2.144669,0.437616 3.77731,1.0636813 4.911986,2.0274348 1.760025,1.491047 2.962571,3.203897 3.337642,5.06825 l 0.07613,0.407648 c 0.05424,0.316518 0.100588,0.654509 0.164858,1.173136 l 0.107223,0.858507 c 0.05447,0.41361 0.09764,0.684449 0.158149,0.993693 0.03618,0.184879 0.07545,0.361078 0.118898,0.531931 l 0.455937,1.717299 c 0.396653,1.574952 0.496346,2.641838 0.189069,3.576341 -0.417015,1.268239 -1.551357,1.9679 -3.387751,2.048464 l -0.808728,0.03019 c -1.074456,0.03309 -2.164801,0.03809 -3.646377,0.02202 l -4.352744,-0.06171 c -1.326283,-0.01241 -2.258551,-0.0056 -3.249518,0.02509 l -1.173374,0.03935 c -1.246252,0.03749 -2.541263,0.05665 -4.117585,0.06418 l -5.156887,-0.0011 -2.214426,-0.01542 c -0.874709,-0.0011 -1.503102,0.0093 -2.1771,0.03686 l -0.203859,0.0088 c -3.191771,0.144292 -5.562991,0.681417 -7.405243,1.840669 l -1.191238,0.797309 c -0.0316,0.02064 -0.05817,0.03768 -0.07848,0.05026 -0.794746,0.492212 -1.511215,0.699966 -2.49533,0.645044 -1.115839,-0.06342 -1.997383,-0.35237 -3.516926,-1.055217 L 34.870609,29.1408 c -1.633317,-0.77181 -2.381081,-1.047218 -3.341858,-1.135726 -2.482365,-0.232132 -5.060862,0.607123 -7.593074,2.304893 -0.648358,0.43504 -1.115682,0.879249 -1.9275,1.786864 l -0.621705,0.698993 c -0.530736,0.589478 -0.866959,0.926588 -1.305137,1.296298 -0.179311,0.150479 -0.369098,0.278441 -0.616565,0.422371 L 18.823918,34.869766 18.6533,34.9713 18.58661,35.112957 c -0.644702,1.319053 -1.970066,3.283034 -2.74234,3.718175 l -0.101766,0.04966 c -0.195236,0.07853 -0.399448,0.113282 -0.606094,0.104973 -0.69927,-0.02812 -1.263395,-0.465126 -1.911289,-1.26151 L 13.074025,37.534114 C 12.956819,37.383397 12.546423,36.822837 12.400392,36.634348 L 11.325807,35.336641 C 9.3352691,32.882564 8.3794223,31.070329 8.1416308,28.691642 7.9828216,27.120445 7.9067661,25.483066 7.9039098,23.73786 l 0.00505,-0.932946 c 0.013674,-1.377678 0.033835,-2.017059 0.1127698,-2.838039 0.1937571,-2.015227 0.6924169,-3.550329 1.6913817,-4.641847 0.6202937,-0.67687 1.3320877,-1.167214 2.5886117,-1.862672 l 1.217264,-0.664999 c 0.454326,-0.25403 0.768574,-0.446065 1.061053,-0.651547 2.994407,-2.105072 5.970338,-3.3524272 9.556521,-3.9977558 z M 56.504136,8.4877128 53.717715,8.474575 43.805349,8.3185486 c -8.347838,-0.087345 -13.833961,0.19753 -19.422396,1.2005412 -3.216435,0.5787932 -5.892392,1.6619462 -8.577791,3.4741862 l -0.424169,0.292234 c -0.33576,0.235889 -0.681489,0.447521 -1.168411,0.720029 l -0.967706,0.528312 c -1.301216,0.707488 -1.976666,1.156035 -2.504475,1.731983 -0.7517599,0.821411 -1.1645689,2.092225 -1.332069,3.834358 L 9.37988,20.42242 c -0.042327,0.529737 -0.060366,1.044324 -0.07179,1.864776 l -0.00802,0.710405 c -0.019919,1.981416 0.051511,3.81274 0.2275808,5.554717 0.1957975,1.958606 0.9702692,3.499119 2.6359672,5.602406 l 1.026284,1.249808 c 0.07079,0.08469 0.150538,0.180067 0.241024,0.288287 l 0.224468,0.291726 c 0.196699,0.262142 0.448155,0.604274 0.51827,0.694436 0.463031,0.595421 0.831783,0.907388 1.018727,0.915085 0.01103,0 0.01894,-0.0011 0.02853,-0.0049 0.399529,-0.161971 1.980277,-2.64236 2.314891,-3.542925 l 0.03516,-0.10406 0.195327,0.05716 -0.05357,-0.07356 c 0.108548,-0.07871 0.22381,-0.152012 0.36512,-0.233916 l 0.516016,-0.285013 c 0.276617,-0.15286 0.452609,-0.264756 0.590578,-0.380538 l 0.221109,-0.192685 c 0.324256,-0.292392 0.629764,-0.614137 1.113337,-1.157147 l 0.252019,-0.284447 c 1.009897,-1.14216 1.562587,-1.684507 2.388818,-2.238898 2.777931,-1.862516 5.659631,-2.80046 8.497761,-2.535057 1.037428,0.09557 1.824116,0.351603 3.216829,0.987954 l 0.757534,0.353798 c 1.55996,0.735976 2.357837,1.016074 3.313556,1.070393 0.680798,0.03799 1.119589,-0.08924 1.683542,-0.438516 l 1.174359,-0.786497 c 0.03305,-0.02154 0.06247,-0.04044 0.08734,-0.05607 1.991622,-1.253246 4.438737,-1.844022 7.623757,-2.029255 l 0.460054,-0.02373 c 0.777602,-0.03515 1.457187,-0.04821 2.434881,-0.04709 l 2.705232,0.0184 4.186518,7.4e-5 c 1.624793,-0.0052 2.944944,-0.02132 4.191066,-0.05485 l 1.975564,-0.06189 c 0.92897,-0.02268 1.859286,-0.02505 3.157804,-0.0109 l 4.063969,0.05878 c 1.832076,0.01992 3.05358,0.0074 4.387577,-0.05087 1.301916,-0.05711 1.908016,-0.430956 2.125347,-1.091912 0.186076,-0.565902 0.128196,-1.355809 -0.152935,-2.540948 l -0.09611,-0.387628 -0.422788,-1.587008 c -0.04996,-0.196446 -0.09485,-0.39784 -0.135847,-0.607375 l -0.0528,-0.283716 c -0.04935,-0.28075 -0.09049,-0.566028 -0.142797,-0.97668 l -0.155582,-1.234865 c -0.05075,-0.372975 -0.094,-0.63312 -0.15378,-0.930667 -0.30408,-1.511483 -1.330879,-2.974007 -2.873072,-4.280513 -0.85567,-0.72682 -2.165275,-1.255588 -3.909068,-1.6438248 L 70.727329,9.9016107 C 70.025985,9.7585026 69.53008,9.6750531 68.596319,9.5476749 L 67.287988,9.3753112 C 62.824793,8.7962635 59.62729,8.5113898 56.504136,8.4877128 Z"
           id="Stroke-7"
           fill="#1d1d1b"
           fill-rule="nonzero" />
        <polyline
           id="Fill-9"
           fill="#ffffff"
           points="33.5843 8.8994 29.0843 16.6924 24.5843 24.4854 20.0883 16.6924 16.4103 10.3254" />
        <polygon
           id="Stroke-11"
           fill="#0e0a05"
           fill-rule="nonzero"
           points="24.583524,28.518268 18.342632,17.700813 14.664632,11.333813 18.155968,9.3169865 21.834526,15.684953 24.5843,20.4513 31.838462,7.8912808 35.330138,9.9075192 " />
        <polyline
           id="Fill-13"
           fill="#ffffff"
           points="51.0608 8.8994 46.5628 16.6924 42.0628 24.4854 37.5648 16.6924 33.0648 8.8994" />
        <polygon
           id="Stroke-15"
           fill="#0e0a05"
           fill-rule="nonzero"
           points="42.0623,20.4523 49.314768,7.8916169 52.806832,9.9071831 42.062412,28.517595 31.318962,9.9075192 34.810638,7.8912808 " />
        <polyline
           id="Fill-17"
           fill="#ffffff"
           points="68.5374 8.8994 64.0394 16.6924 59.5434 24.4854 55.0394 16.6924 50.5454 8.8994" />
        <polygon
           id="Stroke-19"
           fill="#0e0a05"
           fill-rule="nonzero"
           points="59.544952,28.516924 53.29298,17.699511 48.79898,9.9065106 52.29182,7.8922894 56.78485,15.683609 59.5413,20.4533 66.791368,7.8916169 70.283432,9.9071831 " />
        <path
           d="m 80.3127,24.7844 v 4.032 h -30.885 c -6.075706,0 -11.019807,4.8469 -11.175232,10.88397 l -0.0038,0.29303 v 7.28 h -4.032 v -7.28 c 0,-8.294448 6.641427,-15.038513 14.896741,-15.205818 L 49.4277,24.7844 Z"
           id="Stroke-21"
           fill="#0e0a05"
           fill-rule="nonzero" />
        <path
           d="m 48.7548,53.1101 c 0,6.714669 -5.377408,12.192295 -12.053654,12.354311 L 36.3968,65.4681 v -4.032 c 4.504601,0 8.187322,-3.599302 8.322174,-8.071919 L 44.7228,53.1101 Z"
           id="Stroke-23"
           fill="#ffffff"
           fill-rule="nonzero" />
        <path
           d="m 63.6785,6.0959 c 10.461387,0 18.943,8.480575 18.943,18.943 0,10.348747 -8.300984,18.761346 -18.606256,18.941066 L 63.6785,43.9829 h -8.327 v -4.032 h 8.327 c 8.23373,0 14.911,-6.677542 14.911,-14.912 0,-8.129919 -6.506224,-14.739577 -14.595061,-14.907719 L 63.6785,10.1279 h -38.735 c -8.235549,0 -14.912,6.675361 -14.912,14.911 0,5.404585 2.903521,10.300691 7.496036,12.939502 l 0.301894,0.168878 -1.92786,3.54124 C 9.8507124,38.394419 5.9995,32.052777 5.9995,25.0389 5.9995,14.688803 14.299863,6.2785034 24.606704,6.0988334 L 24.9435,6.0959 Z"
           id="Stroke-25"
           fill="#0e0a05"
           fill-rule="nonzero" />
        <path
           d="m 30.6329,24.7847 c 4.204216,0 8.134433,1.714731 10.981554,4.682337 l 0.26372,0.281869 -2.978548,2.717587 C 36.790354,30.154675 33.823081,28.8167 30.6329,28.8167 c -6.075472,0 -11.017863,4.845702 -11.173233,10.88296 l -0.0038,0.29304 v 13.118 c 0,9.354956 7.585768,16.941 16.941,16.941 9.247259,0 16.764416,-7.412218 16.936003,-16.61911 l 0.003,-0.32189 v -18.181 h 4.032 v 18.181 c 0,11.582051 -9.389239,20.973 -20.971,20.973 -11.465087,0 -20.783061,-9.202501 -20.970133,-20.622716 L 15.4239,53.1107 v -13.118 c 0,-8.399584 6.808772,-15.208 15.209,-15.208 z"
           id="Stroke-27"
           fill="#0e0a05"
           fill-rule="nonzero" />
      </g>
      <g
         id="Group-8"
         transform="translate(7,5.9863)" />
      <g
         id="Group-12"
         transform="translate(14,6.9863)" />
      <g
         id="Group-16"
         transform="translate(31,6.9863)" />
      <g
         id="Group-20"
         transform="translate(48,6.9863)" />
    </g>
  </g>
</svg>
