<?xml version="1.0" encoding="UTF-8" standalone="no"?>
<svg
   width="141.71031"
   height="92.805847"
   viewBox="0 0 141.71031 92.805847"
   version="1.1"
   id="svg47"
   sodipodi:docname="Peace.svg"
   inkscape:version="1.1.1 (3bf5ae0d25, 2021-09-20)"
   xmlns:inkscape="http://www.inkscape.org/namespaces/inkscape"
   xmlns:sodipodi="http://sodipodi.sourceforge.net/DTD/sodipodi-0.dtd"
   xmlns="http://www.w3.org/2000/svg"
   xmlns:svg="http://www.w3.org/2000/svg">
  <defs
     id="defs51" />
  <sodipodi:namedview
     id="namedview49"
     pagecolor="#505050"
     bordercolor="#eeeeee"
     borderopacity="1"
     inkscape:pageshadow="0"
     inkscape:pageopacity="0"
     inkscape:pagecheckerboard="0"
     showgrid="false"
     showguides="true"
     inkscape:guide-bbox="true"
     inkscape:zoom="8.1180556"
     inkscape:cx="111.29512"
     inkscape:cy="56.479042"
     inkscape:window-width="2560"
     inkscape:window-height="1377"
     inkscape:window-x="-8"
     inkscape:window-y="472"
     inkscape:window-maximized="1"
     inkscape:current-layer="svg47">
    <sodipodi:guide
       position="83.458795,0.052449999"
       orientation="0,-1"
       id="guide751" />
  </sodipodi:namedview>
  <!-- Generator: Sketch 61 (89581) - https://sketch.com -->
  <title
     id="title31">Stickers/Peace</title>
  <desc
     id="desc33">Created with Sketch.</desc>
  <g
     id="g145"
     transform="translate(-0.7978344,-26.486979)">
    <g
       id="Stickers/Peace"
       stroke="none"
       stroke-width="1"
       fill="none"
       fill-rule="evenodd"
       transform="translate(-37.201026,0.49272883)">
      <g
         id="Group-18"
         transform="translate(38,25)">
        <g
           id="Group-17">
          <g
             id="Group"
             transform="translate(-0.00114,0.99425)">
            <path
               d="m 43.935193,1.7938828 -0.298846,0.1904838 c -1.67467,1.1020485 -3.028003,2.5863629 -3.963607,4.3193741 l -0.1296,0.2460094 -0.04609,-0.092971 C 37.46393,2.5569196 33.409585,0.00685007 28.84924,0.00685007 c -0.914709,0 -1.809406,0.10420365 -2.724175,0.31185046 L 20.519751,1.6517192 20.224377,1.7266556 C 13.96086,3.3990861 10.130858,9.7693703 11.618002,16.104956 L 13.65414,24.66775 9.611615,28.625667 9.3808621,28.858785 C 6.5820746,31.763253 5.5285175,35.741219 6.2378538,39.456382 l 0.011287,0.05837 -2.6620298,2.60839 -0.2336871,0.235001 c -3.37091226,3.484463 -4.25402395,8.613274 -2.40575542,13.00496 l 0.0364724,0.08265 8.26510672,27.382038 C 10.92883,88.687533 16.406468,92.80585 22.59524,92.80585 l 20.349915,-0.03701 c 6.219275,1e-5 11.690018,-4.180862 13.381523,-10.216973 0.03092,-0.110334 0.05867,-0.22153 0.08322,-0.333453 l 0.73436,-3.457986 1.19588,-5.656678 0.153421,-0.191572 c 7.646663,-9.683194 7.689394,-18.33544 2.099964,-26.371793 L 60.31914,46.15375 67.462329,16.129517 C 68.209126,13.041208 67.690797,9.7932596 66.016733,7.0463785 64.316811,4.3051347 61.665574,2.3938272 58.569902,1.650628 L 53.068279,0.34337428 C 50.124706,-0.39195832 46.928525,0.06462315 44.24632,1.6084805 Z m 6.291161,10.2295282 0.0018,-0.01152 0.0089,-0.0061 5.552863,1.318392 -7.819765,32.889972 c -0.450033,1.891655 0.04454,3.884106 1.326923,5.345738 4.364582,4.974635 4.606607,8.322314 -1.074681,14.951539 -0.652449,0.761312 -1.103712,1.67399 -1.312554,2.654638 l -2.095607,9.909307 -0.07309,0.330345 0.03066,-0.09192 c -0.244635,0.872974 -1.006246,1.455016 -1.837563,1.455016 l -20.349915,0.03701 c -0.829654,0 -1.597395,-0.577229 -1.823497,-1.365774 L 12.358234,51.602912 C 12.297021,51.400133 12.225135,51.20081 12.142899,51.00577 l -0.131076,-0.289244 c -0.01504,-0.03098 -0.01463,-0.03353 -0.02959,-0.01889 l 4.055963,-3.973206 0.01773,-0.0072 c 3.717735,-1.675024 4.717644,-6.490876 1.974023,-9.507463 l -0.0092,-0.01873 c -0.0011,-0.0019 -0.0023,-0.0024 -0.0043,-4.97e-4 l 4.056045,-3.970859 c 3.115898,-0.857675 4.992662,-4.029179 4.244828,-7.173249 l -3.021,-12.701 0.01483,-0.02294 5.530503,-1.315532 0.01684,-0.0012 4.848515,20.384398 c 1.462477,6.148739 10.211594,6.148884 11.674274,1.94e-4 z"
               id="Stroke-1"
               fill="#ff5a00"
               fill-rule="nonzero" />
            <path
               d="m 50.82294,70.00085 0.106,-0.498 0.331,-0.387 c 8.147,-9.506 5.317,-15.322 1.044,-20.193 l -0.68,-0.777 8.057,-33.866 c 0.252,-1.045 0.077,-2.133 -0.495,-3.069 -0.552,-0.892 -1.437,-1.5279999 -2.481,-1.7779999 l -5.486,-1.305 c -1.101,-0.275 -2.175,-0.083 -3.082,0.477 -0.912,0.562 -1.551,1.4479999 -1.801,2.4949999 l -6.79,28.546 -6.791,-28.549 c -0.434,-1.8189999 -2.039,-3.0879999 -3.905,-3.0879999 -0.31,0 -0.613,0.035 -0.953,0.113 l -5.525,1.315 c -2.139,0.513 -3.471,2.6869999 -2.964,4.8409999 l 3.465,14.572 -1.859,0.514 c -0.653,0.18 -1.253,0.526 -1.737,0.997 l -4.067,3.982 c -1.536,1.511 -1.598,3.954 -0.138,5.559 l 1.854,2.038 -2.512,1.131 c -0.441,0.2 -0.834,0.466 -1.172,0.794 l -4.0559996,3.974 c -1.224,1.198 -1.534,3.057 -0.772,4.627 l 0.115,0.295 8.3799996,27.756 c 0.727,2.536 3.061,4.289 5.685,4.29 l 20.337,-0.036 c 2.614,0 4.94,-1.776 5.679,-4.325 l 0.308,-1.441 c 0.608,-2.886 1.195,-5.674 1.905,-9.004"
               id="Fill-3"
               fill="#ffffff" />
            <path
               d="m 28.87014,6.0083501 c 2.70954,0 5.058704,1.7957208 5.787905,4.3882639 l 0.06179,0.237853 6.231821,26.195071 c 0.352118,1.463624 0.142538,2.988525 -0.584204,4.301611 l -0.142314,0.243654 -0.126001,0.205947 -0.170268,0.316044 -3.519464,-1.900888 0.202,-0.373999 0.05473,-0.09501 0.150747,-0.245845 c 0.253588,-0.412025 0.349198,-0.879108 0.278766,-1.345896 L 37.061443,37.760233 30.828746,11.561507 C 30.609382,10.642096 29.808439,10.00835 28.87014,10.00835 c -0.102023,0 -0.206647,0.0082 -0.312325,0.02442 l -0.159114,0.03036 -5.534373,1.315654 c -1.024168,0.246603 -1.683986,1.25622 -1.522209,2.283956 l 0.02875,0.146862 3.557,14.956 -3.891457,0.925509 -3.558426,-14.962037 c -0.73866,-3.14918 1.146953,-6.3178996 4.238001,-7.1838431 L 21.93358,7.4885757 27.490818,6.1675584 C 27.955747,6.0613707 28.413051,6.0083501 28.87014,6.0083501 Z"
               id="Stroke-5"
               fill="#12100e"
               fill-rule="nonzero" />
            <path
               d="m 22.10994,27.21345 c 1.540047,0 2.995826,0.577485 4.105083,1.617313 l 0.20386,0.200358 14.412,14.717 -2.857886,2.798658 -14.418191,-14.72335 C 23.170392,31.427381 22.664655,31.21345 22.10994,31.21345 c -0.474257,0 -0.919581,0.160246 -1.280892,0.458377 l -0.131445,0.118219 -4.0628,3.974879 c -0.749095,0.737212 -0.799731,1.928606 -0.144052,2.725825 l 0.115821,0.129074 3.772568,3.858926 0.01685,0.0092 10.73216,10.963453 -2.858418,2.798114 L 17.93614,45.69275 17.837469,45.637485 17.615351,45.38731 17.491309,45.244076 13.746987,41.416747 c -2.257084,-2.308182 -2.279782,-5.984285 -0.09109,-8.324928 l 0.177385,-0.181964 4.066675,-3.978682 c 1.128924,-1.105 2.630193,-1.717723 4.209987,-1.717723 z"
               id="Stroke-7"
               fill="#12100e"
               fill-rule="nonzero" />
            <path
               d="m 16.07674,40.71325 c 1.534961,0 2.986129,0.572246 4.099043,1.609539 l 0.204646,0.199916 -2.861377,2.79509 c -0.383319,-0.39241 -0.887804,-0.604545 -1.442312,-0.604545 -0.472423,0 -0.916567,0.160035 -1.27934,0.459109 l -0.132122,0.11863 -4.062241,3.979214 C 9.8529448,50.00369 9.8010058,51.19482 10.456833,51.995282 l 0.115859,0.129648 16.194605,16.537542 c 0.360005,0.36585 0.891242,0.584778 1.442443,0.584778 0.48833,0 0.934171,-0.156447 1.272484,-0.431091 l 0.1217,-0.108458 13.071,-12.899 2.809633,2.847098 -13.077337,12.905225 c -1.110375,1.086072 -2.61254,1.686226 -4.19748,1.686226 -1.519964,0 -2.991872,-0.569742 -4.094595,-1.586774 L 23.912789,71.46457 7.7107269,54.91941 C 5.4539282,52.601381 5.4351871,48.923046 7.6275299,46.592641 l 0.1776728,-0.18113 4.0633723,-3.98032 c 1.132644,-1.105818 2.630693,-1.717941 4.208165,-1.717941 z"
               id="Stroke-9"
               fill="#12100e"
               fill-rule="nonzero" />
            <path
               d="m 44.05484,40.62985 c 1.875632,0 3.648721,0.732083 4.976214,2.056786 l 2.136594,2.118026 c 4.200451,4.20405 5.996435,6.613512 6.906711,10.064894 1.234934,4.682346 -0.31232,9.638736 -5.005113,15.228592 l -0.272106,0.319602 -2.197166,10.394684 -0.02462,0.102329 -0.02396,0.0887 c -0.930248,3.313356 -3.917906,5.648291 -7.329751,5.762964 l -0.263258,0.0044 -20.35754,0.036 c -3.416599,0 -6.460941,-2.224578 -7.50264,-5.430028 L 6.6201505,53.290745 10.44953,52.134955 18.857106,79.991677 c 0.456378,1.588777 1.90289,2.724999 3.545705,2.810051 l 0.20549,0.0051 20.346539,-0.036 c 1.662952,0 3.156238,-1.085881 3.681195,-2.638409 l 0.06011,-0.196691 2.350862,-11.105358 0.230743,-0.461488 0.170886,-0.19442 c 4.364898,-4.966041 5.665299,-8.844698 4.757987,-12.284841 -0.691351,-2.621311 -2.273067,-4.686905 -6.216999,-8.605035 L 46.204116,45.516551 C 45.628634,44.942279 44.871937,44.62985 44.05484,44.62985 c -0.74912,0 -1.446992,0.262575 -2.00107,0.74884 l -0.147477,0.138135 -14.441153,14.444925 1.473921,1.475896 c 0.982222,0.979459 2.373105,1.576117 3.836604,1.642923 l 0.275175,0.0063 c 1.216115,0 2.963466,-0.833833 4.211539,-1.949701 l 0.214856,-0.199733 2.781211,2.874868 c -1.941086,1.87785 -4.754826,3.274566 -7.207606,3.274566 -2.502407,0 -4.924309,-0.937139 -6.710084,-2.599066 L 26.111482,64.266917 24.262627,62.415064 C 22.955423,61.10786 22.909416,59.017111 24.123325,57.656027 L 24.263388,57.507875 39.07837,42.687894 c 1.326702,-1.325308 3.099959,-2.058044 4.97647,-2.058044 z"
               id="Stroke-11"
               fill="#12100e"
               fill-rule="nonzero" />
            <path
               d="m 50.25374,6.0039501 c 0.388546,0 0.777545,0.038458 1.14964,0.1117308 l 0.275631,0.061426 5.513489,1.3098323 c 1.554543,0.3722565 2.880495,1.3279652 3.73138,2.6983378 0.790393,1.300593 1.065656,2.811257 0.783093,4.275572 l -0.05953,0.273953 -8.045,33.819 -3.89141,-0.925704 8.046733,-33.826222 c 0.126261,-0.522151 0.04096,-1.056913 -0.242076,-1.522826 -0.253018,-0.40744 -0.628207,-0.702874 -1.078804,-0.852182 l -0.172418,-0.04908 -5.53136,-1.314198 c -0.15922,-0.03968 -0.320825,-0.05964 -0.47937,-0.05964 -0.363363,0 -0.72452,0.103444 -1.046411,0.301841 -0.410798,0.253596 -0.707757,0.629621 -0.857625,1.082565 l -0.04924,0.17337 -7.942999,33.396 -3.891447,-0.925552 7.94341,-33.397721 C 44.782074,9.0738101 45.743216,7.7434829 47.107351,6.9013692 48.058169,6.31533 49.145302,6.0039501 50.25374,6.0039501 Z"
               id="Stroke-13"
               fill="#12100e"
               fill-rule="nonzero" />
            <polygon
               id="Stroke-15"
               fill="#ff5a00"
               fill-rule="nonzero"
               points="42.08434,79.92275 23.01434,79.92275 23.01434,75.92275 42.08434,75.92275 " />
          </g>
        </g>
      </g>
    </g>
  </g>
  <g
     id="g612"
     transform="translate(32.118029,-18.138837)">
    <g
       id="Stickers"
       stroke="none"
       stroke-width="1"
       fill="none"
       fill-rule="evenodd">
      <g
         id="Group-5"
         transform="translate(33.000282,33.9997)">
        <path
           d="M 60.890318,15.244 C 54.809318,9.283 46.771318,6 38.256318,6 c -8.761,0 -16.962,3.445 -23.095,9.7 -10.9870004,11.212 -12.2330004,28.663 -2.973,41.515 1.299,2.062 0.534,4.021 -0.522,5.078 l 2.828,2.828 c 0.553,-0.553 1.471,-1.212 2.705,-1.212 0.721,0 1.455,0.231 2.182,0.688 5.517,3.975 12.042,6.076 18.874,6.076 8.76,0 16.96,-3.446 23.089,-9.7 6.049,-6.169 9.333,-14.323 9.246,-22.961 -0.086,-8.637 -3.531,-16.723 -9.7,-22.768"
           id="Fill-1"
           fill="#0e0a05" />
        <path
           d="M 38.256318,0 C 27.883961,0 18.138826,4.0931684 10.877102,11.499346 l -0.38765,0.401334 C -1.6814082,24.684467 -3.4063425,44.036511 6.0765051,58.890008 l 0.3312125,0.510292 -0.020365,0.03764 c -1.2311818,2.274208 -0.8856136,5.175766 1.0363242,7.097704 l 2.8280002,2.828 0.183064,0.17562 c 1.858377,1.709988 4.534024,2.033499 6.701638,0.970534 l 0.146339,-0.07649 0.04592,0.03041 c 6.221615,4.06534 13.429612,6.209289 20.926679,6.209289 10.371373,0 20.116103,-4.094226 27.374249,-11.5004 C 72.792108,57.867969 76.693042,48.181012 76.590013,37.951572 76.488173,27.723702 72.395591,18.117576 65.089669,10.958508 57.887805,3.8987622 48.341798,0 38.256318,0 Z m 0,12 c 6.944188,0 13.474275,2.667006 18.433846,7.528706 5.032967,4.931803 7.8303,11.497713 7.900451,18.543034 0.07097,7.046311 -2.595431,13.667621 -7.530401,18.700491 C 52.057899,61.876567 45.402066,64.673 38.255318,64.673 32.86109,64.673 27.72559,63.075688 23.326216,60.037559 l -0.437466,-0.30861 c -0.102499,-0.07385 -0.207305,-0.144445 -0.31426,-0.211678 L 22.264221,59.328949 C 21.223072,58.719292 20.113548,58.291423 18.959885,58.073916 L 18.778718,58.0423 18.747643,57.840824 C 18.529672,56.551017 18.046231,55.257093 17.264933,54.01688 L 17.163044,53.860586 17.056345,53.707535 C 9.4958277,43.214256 10.511598,29.017545 19.44674,19.899423 24.450479,14.796148 31.107631,12 38.256318,12 Z"
           id="Stroke-3"
           fill="#ff5a00"
           fill-rule="nonzero" />
        <path
           d="m 56.905018,29.6966 c -1.452,-3.101 -5.156,-4.429 -8.257,-2.964 -3.1,1.464 -4.428,5.161 -2.964,8.261 1.465,3.101 5.16,4.427 8.262,2.967 3.101,-1.465 4.427,-5.166 2.959,-8.264"
           id="Fill-5"
           fill="#ff5a00" />
        <path
           d="m 47.7937,24.924247 c -4.098845,1.935712 -5.853698,6.824932 -3.918155,10.923419 1.936309,4.098629 6.821463,5.852578 10.922179,3.922518 4.103154,-1.938443 5.856033,-6.833003 3.91465,-10.930008 -1.917773,-4.09579 -6.816858,-5.853743 -10.918674,-3.915929 z m 7.300042,5.620458 c 0.998213,2.106631 0.100099,4.614431 -2.002042,5.607542 -2.101445,0.989072 -4.605883,0.08989 -5.599329,-2.012964 -0.991734,-2.099984 -0.09247,-4.605439 2.009964,-5.59833 2.101528,-0.992821 4.609728,-0.0928 5.591407,2.003752 z"
           id="Stroke-7-4"
           fill="#000000"
           fill-rule="nonzero" />
        <path
           d="m 26.163195,16.964613 1.979645,3.475774 c -1.817041,1.034905 -3.467686,2.337825 -4.881467,3.859241 l -0.34847,0.384877 -2.999771,-2.64601 c 1.654965,-1.876228 3.599793,-3.489205 5.750203,-4.781403 z"
           id="Stroke-9-8"
           fill="#000000"
           fill-rule="nonzero" />
        <path
           d="m 15.192739,30.029085 3.764357,1.35263 c -3.807135,10.59522 1.600014,22.249903 12.095427,26.218534 l 0.33312,0.12276 -1.351451,3.764782 C 17.369177,56.941403 10.731649,43.096362 15.058268,30.413061 Z"
           id="Stroke-11-3"
           fill="#000000"
           fill-rule="nonzero" />
        <polygon
           id="Stroke-13-5"
           fill="#ff5a00"
           fill-rule="nonzero"
           points="37.809579,41.706706 41.368056,39.879894 44.114703,45.230133 42.725071,50.646339 38.850564,49.652261 39.861718,45.7063 " />
        <polygon
           id="Stroke-15-1"
           fill="#ff5a00"
           fill-rule="nonzero"
           points="33.365052,24.238028 39.343052,26.239028 38.073383,30.032172 32.095383,28.031172 " />
        <polygon
           id="Stroke-17"
           fill="#ff5a00"
           fill-rule="nonzero"
           points="36.452357,33.361673 38.097879,37.007527 30.637878,40.374527 28.992357,36.728673 " />
        <path
           d="m 36.829052,19.675592 c -8.905186,4.202536 -12.719143,14.826309 -8.519444,23.733635 4.1984,8.908224 14.829251,12.722872 23.740519,8.517808 8.90698,-4.20226 12.720253,-14.833006 8.51058,-23.73661 C 56.409514,19.388202 45.980541,15.56159 37.137152,19.533736 Z m 20.114639,10.222811 c 3.265496,6.90664 0.307954,15.151756 -6.600453,18.411101 -6.913201,3.262213 -15.159229,0.303306 -18.415476,-6.605845 -3.25793,-6.909886 -0.299467,-15.15068 6.608156,-18.410526 6.909899,-3.259682 15.14995,-0.302644 18.407773,6.60527 z"
           id="Stroke-19"
           fill="#000000"
           fill-rule="nonzero" />
        <path
           d="m 13.165718,63.7069 c 1.893,-1.893 2.514,-4.894 0.763,-7.616 -8.5060004,-11.76 -7.7530004,-28.276 2.747,-38.991 11.727,-11.962 30.935,-12.156 42.899,-0.428 11.967,11.726 12.16,30.934 0.427,42.9 -10.644,10.863 -27.451,12.02 -39.413,3.369 -2.731,-1.751 -5.728,-1.127 -7.62,0.766"
           id="Fill-21"
           fill="#ffffff" />
        <path
           d="m 56.905018,29.6966 c -1.452,-3.101 -5.156,-4.429 -8.257,-2.964 -3.1,1.464 -4.428,5.161 -2.964,8.261 1.465,3.101 5.16,4.427 8.262,2.967 3.101,-1.465 4.427,-5.166 2.959,-8.264"
           id="Fill-23"
           fill="#ff5a00" />
        <path
           d="m 47.7937,24.924247 c 4.101816,-1.937814 9.000901,-0.179861 10.922593,3.924248 1.937464,4.088686 0.184585,8.983246 -3.918569,10.921689 -4.100716,1.93006 -8.98587,0.176111 -10.922179,-3.922518 -1.935543,-4.098487 -0.18069,-8.987707 3.918155,-10.923419 z m 7.300042,5.620458 c -0.981679,-2.096548 -3.489879,-2.996573 -5.591659,-2.003633 -2.102181,0.992772 -3.001446,3.498227 -2.009712,5.598211 0.993446,2.102851 3.497884,3.002036 5.599329,2.012964 2.03844,-0.963017 2.944718,-3.350314 2.091157,-5.407393 l -0.0852,-0.191831 1.676057,-0.794723 z"
           id="Stroke-25"
           fill="#0e0a05"
           fill-rule="nonzero" />
        <path
           d="m 47.7937,24.924247 c -4.098845,1.935712 -5.853698,6.824932 -3.918155,10.923419 1.936309,4.098629 6.821463,5.852578 10.922179,3.922518 4.103154,-1.938443 5.856033,-6.833003 3.91465,-10.930008 -1.917773,-4.09579 -6.816858,-5.853743 -10.918674,-3.915929 z m 7.300042,5.620458 c 0.998213,2.106631 0.100099,4.614431 -2.002042,5.607542 -2.101445,0.989072 -4.605883,0.08989 -5.599329,-2.012964 -0.991734,-2.099984 -0.09247,-4.605439 2.009964,-5.59833 2.101528,-0.992821 4.609728,-0.0928 5.591407,2.003752 z"
           id="Stroke-27"
           fill="#0e0a05"
           fill-rule="nonzero" />
        <path
           d="m 26.163195,16.964613 1.979645,3.475774 c -1.817041,1.034905 -3.467686,2.337825 -4.881467,3.859241 l -0.34847,0.384877 -2.999771,-2.64601 c 1.654965,-1.876228 3.599793,-3.489205 5.750203,-4.781403 z"
           id="Stroke-29"
           fill="#0e0a05"
           fill-rule="nonzero" />
        <path
           d="m 15.192739,30.029085 3.764357,1.35263 c -3.807135,10.59522 1.600014,22.249903 12.095427,26.218534 l 0.33312,0.12276 -1.351451,3.764782 C 17.369177,56.941403 10.731649,43.096362 15.058268,30.413061 Z"
           id="Stroke-31"
           fill="#0e0a05"
           fill-rule="nonzero" />
        <polygon
           id="Stroke-33"
           fill="#ff5a00"
           fill-rule="nonzero"
           points="37.809579,41.706706 41.368056,39.879894 44.114703,45.230133 42.725071,50.646339 38.850564,49.652261 39.861718,45.7063 " />
        <polygon
           id="Stroke-35"
           fill="#ff5a00"
           fill-rule="nonzero"
           points="33.365052,24.238028 39.343052,26.239028 38.073383,30.032172 32.095383,28.031172 " />
        <polygon
           id="Stroke-37"
           fill="#ff5a00"
           fill-rule="nonzero"
           points="36.452357,33.361673 38.097879,37.007527 30.637878,40.374527 28.992357,36.728673 " />
        <path
           d="m 36.829052,19.675592 c -8.905186,4.202536 -12.719143,14.826309 -8.519444,23.733635 4.1984,8.908224 14.829251,12.722872 23.740519,8.517808 8.90698,-4.20226 12.720253,-14.833006 8.51058,-23.73661 C 56.409514,19.388202 45.980541,15.56159 37.137152,19.533736 Z m 20.114639,10.222811 c 3.265496,6.90664 0.307954,15.151756 -6.600453,18.411101 -6.913201,3.262213 -15.159229,0.303306 -18.415476,-6.605845 -3.25793,-6.909886 -0.299467,-15.15068 6.608156,-18.410526 6.909899,-3.259682 15.14995,-0.302644 18.407773,6.60527 z"
           id="Stroke-39"
           fill="#0e0a05"
           fill-rule="nonzero" />
        <path
           d="M 15.247545,15.699785 C 27.748546,2.9482727 48.222784,2.7432238 60.974474,15.243375 73.731261,27.743257 73.935652,48.217908 61.430258,60.97164 50.307491,72.323257 32.656958,73.848778 19.804671,64.837787 L 19.476718,64.6053 19.313267,64.504587 c -1.633284,-0.952874 -3.268968,-0.736189 -4.577859,0.467374 l -0.155477,0.149153 -2.828427,-2.828428 0.142795,-0.149363 c 1.200375,-1.314023 1.43128,-3.127593 0.468753,-4.780445 L 12.259718,57.1943 12.035157,56.879827 C 3.217196,44.31513 4.2996027,27.198106 14.919468,16.039502 Z M 58.174661,18.10013 C 47.000299,7.1461921 29.058505,7.3258787 18.10419,18.49971 8.5500492,28.249483 7.4977339,43.430103 15.294663,54.561123 l 0.31609,0.447762 c 0.983989,1.529651 1.414709,3.196822 1.343476,4.811938 l -0.0065,0.09548 0.131648,-0.0055 c 1.442104,-0.03804 2.927552,0.346745 4.340309,1.192446 l 0.248532,0.154034 0.09254,0.06306 C 33.04565,69.481618 48.728844,68.21904 58.573669,58.171658 69.532542,46.995158 69.35344,29.053783 58.174661,18.10013 Z"
           id="Stroke-41"
           fill="#0e0a05"
           fill-rule="nonzero" />
      </g>
    </g>
  </g>
</svg>
