<?xml version="1.0" encoding="UTF-8"?> <svg xmlns="http://www.w3.org/2000/svg" xmlns:xlink="http://www.w3.org/1999/xlink" width="140px" height="70px" viewBox="0 0 140 70"><!-- Generator: Sketch 60.1 (88133) - https://sketch.com --><title>components/logotypes/4finance</title><desc>Created with Sketch.</desc><defs><path d="M10.1134,0.0004 C15.7004,0.0004 20.2284,4.4754 20.2284,9.9994 C20.2284,10.9614 20.0884,11.8904 19.8324,12.7704 L19.8324,12.7704 L15.6224,12.7704 L15.6134,2.3774 L3.6304,15.0044 L6.0054,15.0054 L12.7304,15.0054 L12.7304,19.6604 C11.8954,19.8804 11.0184,20.0004 10.1134,20.0004 C4.5274,20.0004 0.0004,15.5244 0.0004,9.9994 C0.0004,4.4754 4.5274,0.0004 10.1134,0.0004 Z M18.8696,15.0052 C18.0696,16.3692 16.9556,17.5282 15.6226,18.3852 L15.6226,18.3852 L15.6226,15.0052 Z M85.7588,4.2495 C86.3368,4.2495 86.8438,4.2965 87.3158,4.3755 C87.7868,4.4555 88.2228,4.5815 88.6078,4.7265 C88.9918,4.8675 89.3418,5.0605 89.6738,5.2665 C90.0058,5.4725 90.3038,5.7095 90.5818,5.9635 L90.5818,5.9635 L88.8708,7.7595 C88.3988,7.3625 87.9088,7.0605 87.4198,6.8385 C86.9138,6.6165 86.3538,6.5045 85.7418,6.5045 C85.2358,6.5045 84.7638,6.5995 84.3258,6.7735 C83.8888,6.9495 83.5058,7.2035 83.1918,7.5215 C82.8758,7.8385 82.6318,8.2045 82.4558,8.6175 C82.2828,9.0455 82.1958,9.4915 82.1958,9.9675 L82.1958,9.9675 L82.1958,9.9995 C82.1958,10.4755 82.2828,10.9205 82.4558,11.3505 C82.6318,11.7795 82.8758,12.1445 83.1738,12.4625 C83.4878,12.7795 83.8548,13.0335 84.2918,13.2075 C84.7288,13.3995 85.2178,13.4945 85.7418,13.4945 C86.4418,13.4945 87.0358,13.3835 87.5078,13.1455 C87.9968,12.9065 88.4868,12.5895 88.9568,12.1925 L88.9568,12.1925 L90.6708,13.7655 C90.3558,14.0655 90.0238,14.3515 89.6918,14.5905 C89.3588,14.8285 88.9918,15.0355 88.5908,15.2095 C88.1888,15.3845 87.7358,15.5275 87.2628,15.6075 C86.7898,15.7035 86.2488,15.7505 85.6548,15.7505 C84.7638,15.7505 83.9248,15.6075 83.1548,15.3055 C82.3868,15.0025 81.7238,14.6065 81.1638,14.0985 C80.6038,13.5735 80.1668,12.9695 79.8538,12.2715 C79.5388,11.5735 79.3818,10.8255 79.3818,10.0305 L79.3818,10.0305 L79.3818,9.9995 C79.3818,9.2045 79.5388,8.4585 79.8538,7.7755 C80.1668,7.0765 80.6038,6.4725 81.1638,5.9495 C81.7238,5.4245 82.3868,5.0115 83.1738,4.7095 C83.9598,4.4065 84.8158,4.2495 85.7588,4.2495 Z M35.754,4.4394 L35.754,6.6634 L29.132,6.6634 L29.132,9.0304 L34.967,9.0304 L34.967,11.2544 L29.132,11.2544 L29.132,15.5594 L26.439,15.5594 L26.439,4.4394 L35.754,4.4394 Z M44.1499,4.4394 L49.8809,11.2864 L49.8809,4.4394 L52.5379,4.4394 L52.5379,15.5594 L50.2489,15.5594 L44.3239,8.4914 L44.3239,15.5594 L41.6689,15.5594 L41.6689,4.4394 L44.1499,4.4394 Z M69.6529,4.4394 L75.3859,11.2864 L75.3859,4.4394 L78.0409,4.4394 L78.0409,15.5594 L75.7529,15.5594 L69.8269,8.4914 L69.8269,15.5594 L67.1709,15.5594 L67.1709,4.4394 L69.6529,4.4394 Z M39.663,4.439 L39.663,15.559 L36.972,15.559 L36.972,4.439 L39.663,4.439 Z M61.0948,4.3603 L66.3378,15.5593 L63.5238,15.5593 L62.4058,13.0653 L57.2328,13.0653 L56.1148,15.5593 L53.3718,15.5593 L58.6138,4.3603 L61.0948,4.3603 Z M101.0807,4.4397 L101.0807,6.6157 L100.9937,6.6157 L100.9937,6.6167 L94.4407,6.6167 L94.4407,8.8717 L100.2077,8.8717 L100.2077,11.0487 L94.4407,11.0487 L94.4407,13.3817 L100.9937,13.3817 L100.9937,13.3837 L101.0807,13.3837 L101.0807,15.5587 L91.7667,15.5587 L91.7667,4.4397 L101.0807,4.4397 Z M12.7306,8.8732 L12.7306,12.7702 L9.0736,12.7702 L12.7306,8.8732 Z M59.8198,7.2993 L58.1948,10.9053 L61.4448,10.9053 L59.8198,7.2993 Z" id="path-1"></path></defs><g id="components/logotypes/4finance" stroke="none" stroke-width="1" fill="none" fill-rule="evenodd"><g id="style/Color/Main/Grey02" transform="translate(20.000000, 25.000000)"><mask id="mask-2" fill="white"><use xlink:href="#path-1"></use></mask><use id="Mask" fill="#1574C4" xlink:href="#path-1"></use><g id="style/Color/Main/Black" mask="url(#mask-2)" fill="#000000"><g transform="translate(-20.000000, -25.000000)" id="colorprimary"><rect x="0" y="0" width="140" height="70"></rect></g></g></g></g></svg> 