<?xml version="1.0" encoding="UTF-8"?> <svg xmlns="http://www.w3.org/2000/svg" xmlns:xlink="http://www.w3.org/1999/xlink" width="140px" height="70px" viewBox="0 0 140 70"><!-- Generator: Sketch 60.1 (88133) - https://sketch.com --><title>components/logotypes/ADP</title><desc>Created with Sketch.</desc><defs><path d="M70.0939,14.9999 C76.0769,15.0509 81.7699,17.5859 85.8099,21.9999 L85.8099,14.9999 L100.0749,14.9999 C109.1489,15.0579 116.4669,22.4369 116.451923,31.5099 C116.451923,40.6269 109.0619,48.0189 99.9429,48.0189 L99.9429,56.9989 L85.6789,56.9989 L85.6789,50.0009 C81.7079,54.5069 75.9699,57.0629 69.9629,56.9989 L56.4899,56.9989 L56.4899,48.0189 L45.9239,48.0189 L40.6419,56.9989 L23.9999,56.9989 L48.4339,14.9999 L70.0939,14.9999 Z M105.2257,51.7159 C106.6847,51.7159 107.8677,52.8989 107.8677,54.3589 C107.8677,55.8179 106.6847,56.9989 105.2257,56.9989 C103.7667,56.9989 102.5857,55.8179 102.5857,54.3589 C102.5857,52.8989 103.7667,51.7159 105.2257,51.7159 Z M105.2257,52.2459 C104.0587,52.2459 103.1127,53.1919 103.1127,54.3589 C103.1127,55.5259 104.0587,56.4719 105.2257,56.4719 C106.3927,56.4719 107.3397,55.5259 107.3397,54.3589 L107.3397,54.3589 L107.3397,54.3049 C107.3247,53.1529 106.3797,52.2309 105.2257,52.2459 Z M105.358,52.7736 C105.602,52.7786 105.837,52.8716 106.019,53.0386 C106.215,53.2536 106.266,53.5626 106.151,53.8296 C106.17,54.0166 106.123,54.2036 106.019,54.3586 C105.887,54.4906 105.753,54.6226 105.623,54.6226 L105.623,54.6226 L106.415,55.9426 L105.887,55.9426 L105.226,54.7546 L104.698,54.7546 L104.698,55.9426 L104.301,55.9426 L104.301,52.7736 Z M105.358,53.1705968 L104.831,53.1705968 L104.831,54.2266 L105.36,54.2266 C105.651,54.2256 105.887,53.9896 105.887,53.6966 C105.887,53.4056 105.65,53.1696 105.358,53.1705968 L105.358,53.1705968 Z M70.0939,20.2828664 L51.6039,20.2828664 L33.2449,51.7159547 L37.6029,51.7159547 L42.8859,42.7359 L61.7739,42.7359 L61.7739,51.7159547 L70.0939,51.7159547 C76.1849,51.7319 81.7389,48.2349 84.3589,42.7359 L91.0939,42.7359 L91.0939,51.7159547 L94.7929,51.7159547 L94.7929,42.7359 L100.0749,42.7359 C106.2679,42.7429 111.2939,37.7289 111.3019,31.5359 L111.3019,31.5099 C111.2429,25.2819 106.1709,20.2679 99.9429,20.2828664 L90.9629,20.2828664 L90.9629,33.7549 L85.6789,33.7549 C84.5079,26.0399 77.8969,20.3249 70.0939,20.2828664 Z M70.0939,23.9809 C76.7229,24.0029 82.0909,29.3709 82.1139,35.9999 C82.0909,42.6279 76.7229,47.9969 70.0939,48.0189 L65.4709,48.0189 L65.4709,42.7359 L70.0939,42.7359 C73.8139,42.7359 76.8299,39.7199 76.8299,35.9999 C76.8299,32.2799 73.8139,29.2639 70.0939,29.2639 L65.4709,29.2639 L65.4709,23.9809 L70.0939,23.9809 Z M99.9429,23.9809 C104.0829,24.0239 107.4269,27.3699 107.4709,31.5099 C107.4709,35.6669 104.1009,39.0389 99.9429,39.0389 L99.9429,39.0389 L94.6599,39.0389 L94.6599,33.7549 L99.9429,33.7549 C101.1699,33.7199 102.1549,32.7349 102.1879,31.5099 L102.1879,31.5099 L102.1879,31.4829 C102.1809,30.2499 101.1759,29.2569 99.9429,29.2639 L99.9429,29.2639 L94.6599,29.2639 L94.6599,23.9809 Z M61.7739,23.9809 L61.7739,39.0389 L45.1319,39.0389 L48.1699,33.7549 L56.4899,33.7549 L56.4899,23.9809 L61.7739,23.9809 Z" id="path-1"></path></defs><g id="components/logotypes/ADP" stroke="none" stroke-width="1" fill="none" fill-rule="evenodd"><mask id="mask-2" fill="white"><use xlink:href="#path-1"></use></mask><use id="Mask" fill="#000000" xlink:href="#path-1"></use><g id="style/Color/Main/Black" mask="url(#mask-2)" fill="#000000"><rect id="colorprimary" x="0" y="0" width="140" height="70"></rect></g></g></svg> 