<?xml version="1.0" encoding="UTF-8"?> <svg xmlns="http://www.w3.org/2000/svg" xmlns:xlink="http://www.w3.org/1999/xlink" width="140px" height="70px" viewBox="0 0 140 70"><!-- Generator: Sketch 60.1 (88133) - https://sketch.com --><title>components/logotypes/Apator</title><desc>Created with Sketch.</desc><defs><path d="M66.9963,32.7482 C70.2103,32.7482 71.9203,32.9012 72.9443,33.7652 C74.0253,34.6782 74.2363,36.4362 74.2363,39.1652 C74.2363,42.7682 73.7623,43.8732 72.9443,44.5652 C71.9203,45.4292 70.2103,45.5812 66.9963,45.5812 C63.8033,45.5812 62.1053,45.4292 61.0873,44.5652 C60.0113,43.6502 59.8003,41.8922 59.8003,39.1652 C59.8003,35.5632 60.2723,34.4572 61.0873,33.7652 C62.1053,32.9012 63.8033,32.7482 66.9963,32.7482 Z M38.3951597,32.7491841 C40.9885362,32.7581763 41.3942706,32.9423882 42.1853,35.0738 L42.1853,35.0738 L45.9713,45.4478 L42.3223,45.4478 L41.3653,42.5108 L34.7853,42.5108 L33.7843,45.4478 L30.2673,45.4478 L34.0543,35.0528 C34.8423,32.8908 35.3033,32.7488 38.1533,32.7488 Z M83.5765,32.8813 C88.4505,32.8813 89.4375,33.5533 89.4375,36.8733 C89.4375,39.5713 88.7505,40.4663 86.3915,40.7813 C86.8085,41.1483 87.1785,41.5893 87.6475,42.2733 L87.6475,42.2733 L89.9995,45.4483 L86.2635,45.4483 L83.3035,40.9083 L80.4685,40.9083 L80.4685,45.4483 L77.2265,45.4483 L77.2265,32.8813 Z M67.2310989,35.2553383 L66.8055599,35.2553383 C63.39541,35.2603312 63.1313,35.42258 63.1313,39.1652 L63.1316545,39.3898367 C63.1436348,42.9868036 63.47854,43.0742 67.0183,43.0742 L67.2310989,43.0740617 C70.64219,43.0690692 70.9063,42.90684 70.9063,39.1652 L70.9059455,38.9405045 C70.8939648,35.3425964 70.55904,35.2552 67.0183,35.2552 Z M38.2533856,35.2554163 L37.9719804,35.2551467 C37.3243547,35.2592922 37.246425,35.3098 37.0683,35.8648 L37.0683,35.8648 L35.6443,40.0258 L40.5513,40.0258 L39.1723,35.8648 C38.9803,35.2898 38.8723,35.2548 38.1093,35.2548 Z M83.4885,35.3673 L80.4685,35.3673 L80.4685,38.4233 L83.730826,38.4229919 C85.8714792,38.416403 86.1515,38.2917516 86.1515,36.8953 C86.1515,35.4703 85.7825,35.3673 83.4885,35.3673 L83.4885,35.3673 Z M37.2074,9.8059 L45.2494,20.2949 L37.8614,26.0769 C37.4774,26.3779 36.9384,26.3779 36.5544,26.0769 L36.5544,26.0769 L29.9924,20.9419 C29.5344,20.5839 29.4514,19.9229 29.8054,19.4619 L29.8054,19.4619 L37.2074,9.8059 Z M44.4081,0.4159 C44.8321,-0.1391 45.6671,-0.1391 46.0911,0.4159 L46.0911,0.4159 L53.2911,9.8059 L60.6931,19.4619 C61.0471,19.9229 60.9641,20.5839 60.5061,20.9419 L60.5061,20.9419 L53.9441,26.0769 C53.5601,26.3779 53.0211,26.3779 52.6371,26.0769 L52.6371,26.0769 L45.2501,20.2949 L53.2911,9.8069 L45.2501,16.0999 L37.2081,9.8059 Z M8.12747654,32.7491841 C10.7199941,32.7581763 11.1266706,32.9423882 11.9177,35.0738 L11.9177,35.0738 L15.7037,45.4478 L12.0537,45.4478 L11.0967,42.5108 L4.5177,42.5108 L3.5167,45.4478 L-0.0003,45.4478 L3.7857,35.0528 C4.5747,32.8908 5.0357,32.7488 7.8857,32.7488 Z M24.1097,32.8813 C28.9837,32.8813 29.9707,33.5533 29.9707,36.8733 C29.9707,40.2293 28.9837,40.9083 24.1097,40.9083 L24.1097,40.9083 L21.0017,40.9083 L21.0017,45.4483 L17.7607,45.4483 L17.7607,32.8813 Z M58.3018,32.8822 L58.3018,35.3672 L53.4058,35.3672 L53.4058,45.4482 L50.1418,45.4482 L50.1418,35.3672 L45.2458,35.3672 L45.2458,32.8822 L58.3018,32.8822 Z M7.9849723,35.2554163 L7.70354521,35.2551467 C7.05663359,35.2592922 6.977825,35.3098 6.7997,35.8648 L6.7997,35.8648 L5.3767,40.0258 L10.2837,40.0258 L8.9037,35.8648 C8.7127,35.2898 8.6047,35.2548 7.8407,35.2548 Z M24.0217,35.3673 L21.0017,35.3673 L21.0017,38.4233 L24.264026,38.4229919 C26.4046792,38.416403 26.6847,38.2917516 26.6847,36.8953 C26.6847,35.4703 26.3157,35.3673 24.0217,35.3673 L24.0217,35.3673 Z" id="path-1"></path></defs><g id="components/logotypes/Apator" stroke="none" stroke-width="1" fill="none" fill-rule="evenodd"><g id="style/Color/Main/Grey02" transform="translate(25.000000, 12.000000)"><mask id="mask-2" fill="white"><use xlink:href="#path-1"></use></mask><use id="Mask" fill="#043C77" xlink:href="#path-1"></use><g mask="url(#mask-2)" id="style/Color/Main/Black"><g transform="translate(-25.000000, -12.000000)"><g><rect id="colorprimary" fill="#000000" x="0" y="0" width="140" height="70"></rect></g></g></g></g></g></svg> 