<?xml version="1.0" encoding="UTF-8"?> <svg xmlns="http://www.w3.org/2000/svg" xmlns:xlink="http://www.w3.org/1999/xlink" width="140px" height="70px" viewBox="0 0 140 70"><!-- Generator: Sketch 60.1 (88133) - https://sketch.com --><title>components/logotypes/Colliers</title><desc>Created with Sketch.</desc><defs><path d="M68.8213,28.6251 C70.9903,28.6311 72.4493,30.3321 72.4533,32.3021 C72.4493,34.2721 70.9713,35.9961 68.8033,36.0001 C66.6353,35.9961 65.1793,34.2911 65.1733,32.3221 C65.1793,30.3531 66.6583,28.6311 68.8213,28.6251 Z M2.397,28.74 L2.397,35.881 L1.337,35.881 L1.337,28.74 L2.397,28.74 Z M59.2755,28.7401 L59.2755,29.7461 L56.9735,29.7461 L56.9735,35.8811 L55.9045,35.8811 L55.9045,29.7461 L53.6025,29.7461 L53.6025,28.7401 L59.2755,28.7401 Z M62.664,28.742 L62.664,35.881 L61.604,35.881 L61.604,28.742 L62.664,28.742 Z M93.6182,28.7422 L93.6182,34.8822 L97.4722,34.8822 L97.4722,35.8812 L92.5562,35.8812 L92.5562,28.7422 L93.6182,28.7422 Z M75.8345,28.7418 L79.9375,33.9608 L79.9375,28.7418 L80.9785,28.7418 L80.9785,35.8808 L80.1475,35.8808 L75.9395,30.5338 L75.9395,35.8808 L74.8965,35.8808 L74.8965,28.7418 L75.8345,28.7418 Z M38.254,28.7418 L42.355,33.9608 L42.355,28.7418 L43.396,28.7418 L43.396,35.8808 L42.567,35.8808 L38.356,30.5338 L38.356,35.8808 L37.314,35.8808 L37.314,28.7418 L38.254,28.7418 Z M6.1519,28.7398 L10.2539,33.9608 L10.2539,28.7398 L11.2959,28.7398 L11.2959,35.8808 L10.4649,35.8808 L6.2559,30.5338 L6.2559,35.8808 L5.2129,35.8808 L5.2129,28.7398 L6.1519,28.7398 Z M19.2262,28.7421 L19.2262,29.7461 L16.9262,29.7461 L16.9262,35.8811 L15.8552,35.8811 L15.8552,29.7461 L13.5552,29.7461 L13.5552,28.7421 L19.2262,28.7421 Z M26.7249,28.7423 L26.7249,29.7323 L22.5449,29.7323 L22.5449,31.7863 L26.2849,31.7863 L26.2849,32.7813 L22.5449,32.7813 L22.5449,34.8903 L26.7749,34.8903 L26.7749,35.8813 L21.4839,35.8813 L21.4839,28.7423 L26.7249,28.7423 Z M49.6415,28.6938 L52.8935,35.8808 L51.7435,35.8808 L50.9435,34.0698 L47.4005,34.0698 L46.5885,35.8808 L45.4785,35.8808 L48.7305,28.6938 L49.6415,28.6938 Z M29.1392,28.7403 L32.2302,28.7423 C33.7852,28.7423 34.8472,29.6103 34.8502,30.9303 C34.8562,32.0703 34.1052,32.7833 33.0982,33.0313 L33.0982,33.0313 L35.2392,35.8813 L33.9302,35.8813 L31.9432,33.2183 L30.2012,33.2183 L30.2012,35.8813 L29.1392,35.8813 L29.1392,28.7403 Z M87.2251,28.6928 L90.4751,35.8808 L89.3261,35.8808 L88.5251,34.0698 L84.9821,34.0698 L84.1701,35.8808 L83.0581,35.8808 L86.3141,28.6928 L87.2251,28.6928 Z M68.8033,29.6261 C67.3203,29.6291 66.2713,30.8061 66.2653,32.3021 C66.2713,33.7991 67.3403,34.9971 68.8213,34.9971 C70.3053,34.9941 71.3553,33.8191 71.3603,32.3221 C71.3583,30.8231 70.2873,29.6281 68.8033,29.6261 Z M49.1755,30.0898 L47.8325,33.0898 L50.5105,33.0898 L49.1755,30.0898 Z M86.7581,30.0898 L85.4131,33.0898 L88.0911,33.0898 L86.7581,30.0898 Z M32.1722,29.7463 L30.2012,29.7463 L30.2012,32.2363 L32.1622,32.2363 C33.1472,32.2243 33.7772,31.7583 33.7802,30.9633 C33.7722,30.1993 33.2422,29.7593 32.1722,29.7463 L32.1722,29.7463 Z M11.5221,-0.0002 C14.4531,-0.0002 16.8081,0.8958 17.9531,1.5298 C18.3971,1.7798 18.5281,1.7798 18.5881,1.5298 L18.5881,1.5298 L18.8481,0.7048 C18.9051,0.5088 18.9721,0.5088 19.3521,0.5088 C19.7381,0.5088 19.8001,0.5718 19.8001,1.0238 C19.8001,1.5908 20.4351,6.6818 20.5641,7.6328 C20.5961,7.8258 20.5641,7.9258 20.4351,7.9578 L20.4351,7.9578 L19.8321,8.1478 C19.6751,8.2088 19.5771,8.0818 19.4841,7.8258 C19.1011,6.6818 18.3341,5.0878 17.0021,3.6918 C15.6001,2.3518 13.9451,1.3368 11.4561,1.3368 C6.3681,1.3368 4.2641,5.9238 4.2641,10.5018 C4.2641,12.4768 4.8391,16.2338 7.1961,18.7808 C9.2941,21.0078 11.1411,21.2658 12.6691,21.2658 C15.9571,21.2658 18.5881,19.7148 20.0031,17.9208 C20.0351,17.8788 20.1471,17.8458 20.1831,17.8848 C20.2071,17.9158 20.5771,18.2448 20.7841,18.4408 C20.8771,18.5278 20.8641,18.6898 20.8291,18.7428 C18.8981,21.2478 15.9711,23.4948 11.7811,23.4948 C7.7041,23.4948 5.4151,22.2818 3.4361,20.5028 C1.0811,18.4008 0.0001,14.7078 0.0001,11.9028 C0.0001,8.7848 1.0171,5.7958 3.2461,3.3748 C4.9651,1.5298 7.7041,-0.0002 11.5221,-0.0002 Z M93.1009,9.3555 C94.6589,9.3555 95.6139,9.7425 96.1899,10.0585 C96.6639,10.3095 96.7609,10.4395 96.7919,10.6255 L96.7919,10.6255 L97.2119,12.7945 C97.2359,12.9205 97.2359,13.0825 97.1779,13.1445 L97.1779,13.1445 L96.5699,13.4305 C96.4779,13.4605 96.3789,13.4305 96.3169,13.3025 L96.3169,13.3025 L94.7839,11.5845 C94.4039,11.1695 93.8289,10.6015 92.7839,10.6015 C91.6049,10.6015 90.5829,11.2985 90.5829,12.4145 C90.5829,13.7195 91.5409,14.1065 93.4509,14.6085 C94.9179,14.9905 95.8109,15.3735 96.6369,16.2615 C97.3359,16.9635 97.5879,17.7295 97.5879,18.8135 C97.5879,21.4855 95.4239,23.3975 92.2759,23.3975 C90.5829,23.3975 89.1859,22.8555 88.8319,22.5695 C88.7089,22.4395 88.6129,22.3455 88.5779,22.2225 L88.5779,22.2225 L88.0729,19.0055 C88.0409,18.8785 88.0729,18.7815 88.1629,18.7495 L88.1629,18.7495 L88.7719,18.5615 C88.8979,18.5275 88.9939,18.5275 89.0599,18.6545 L89.0599,18.6545 L90.1079,20.4395 C90.6819,21.3965 91.2849,22.1505 92.8489,22.1505 C94.0889,22.1505 95.1079,21.3965 95.1079,20.2105 C95.1079,18.9365 94.2769,18.3625 92.0509,17.7295 C89.8859,17.0955 88.1629,16.0125 88.1629,13.7505 C88.1629,12.3535 88.6749,11.2045 89.7909,10.4075 C90.9019,9.6465 91.7979,9.3555 93.1009,9.3555 Z M29.6977,9.3555 C31.8327,9.3555 33.4257,10.1865 34.5097,11.2335 C36.0037,12.7315 36.7077,14.3895 36.7077,16.2615 C36.7077,18.0525 35.9387,19.7705 34.7307,21.1065 C33.4257,22.5695 31.5167,23.3975 29.3857,23.3975 C27.3757,23.3975 25.6587,22.8205 24.2277,21.1065 C22.8267,19.4485 22.5067,18.1105 22.5067,16.1675 C22.5067,14.6415 23.2747,12.4145 25.1797,10.8845 C26.7417,9.6085 28.4007,9.3555 29.6977,9.3555 Z M69.7386,9.3552 C73.3696,9.3552 74.5486,13.1442 74.5486,14.4542 C74.5486,14.9282 74.2296,14.9632 73.6546,14.9632 L73.6546,14.9632 L65.9506,14.9632 L65.9506,15.9472 C65.9506,19.1952 68.2756,21.1062 70.0856,21.1062 C72.0626,21.1062 73.2676,20.2722 73.9406,19.2572 C74.0706,19.0362 74.1956,19.0362 74.3276,19.0992 L74.3276,19.0992 L74.7966,19.3842 C74.9586,19.4782 75.0236,19.6062 74.7966,20.0202 C74.1286,21.2322 72.5066,23.3972 69.0046,23.3972 C66.9686,23.3972 65.5376,22.9532 64.4216,21.6802 C62.9566,19.9882 62.6366,18.4002 62.6366,16.4272 C62.6366,14.6792 62.8346,13.4962 64.2026,11.7112 C65.5376,9.9982 66.9686,9.3552 69.7386,9.3552 Z M85.4321,9.1623 C86.4501,9.1623 87.0871,9.8693 87.0871,10.7593 C87.0871,11.6533 86.1941,12.4763 85.3661,12.4763 C84.9181,12.4763 84.5381,12.3533 84.2811,12.2243 C84.0321,12.0323 83.7141,11.9663 83.3931,11.9663 C83.0141,11.9663 82.4431,12.2243 82.0581,12.8913 C81.8031,13.3383 81.6751,14.0343 81.6751,14.4543 L81.6751,14.4543 L81.6751,20.5923 C81.6751,21.6123 81.9301,21.9323 82.5651,21.9323 L82.5651,21.9323 L83.9681,21.9323 C84.1561,21.9323 84.2221,21.9943 84.2221,22.1503 L84.2221,22.1503 L84.2221,22.8903 C84.2221,23.0463 84.1561,23.1113 83.9991,23.1113 C83.7771,23.1113 82.3741,23.0133 80.0481,23.0133 C77.8231,23.0133 76.5811,23.1113 76.3291,23.1113 C76.1671,23.1113 76.1021,23.0463 76.1021,22.8903 L76.1021,22.8903 L76.1021,22.1923 C76.1021,21.9943 76.1671,21.9323 76.3871,21.9323 L76.3871,21.9323 L77.5041,21.9323 C78.0141,21.9323 78.3301,21.6803 78.3301,21.0743 L78.3301,21.0743 L78.3301,14.8353 C78.3301,13.3693 78.0751,12.8623 77.1201,12.3533 L77.1201,12.3533 L76.5501,12.0323 C76.3621,11.9663 76.2991,11.9053 76.2991,11.7733 L76.2991,11.7733 L76.2991,11.5853 C76.2991,11.4603 76.3621,11.3983 76.5501,11.2983 L76.5501,11.2983 L80.4021,9.4823 C80.5941,9.4213 80.7201,9.3553 80.9101,9.3553 C81.1021,9.3553 81.1611,9.5483 81.1981,9.7423 L81.1981,9.7423 L81.4831,12.0323 L81.6111,12.0323 C82.6941,10.2493 84.0321,9.1623 85.4321,9.1623 Z M51.1445,0.0004 C51.3375,0.0004 51.4625,0.1244 51.4625,0.5714 C51.4005,2.2874 51.3375,8.9114 51.3375,10.6624 L51.3378787,16.1992896 C51.3395826,17.8166727 51.3489545,20.1288545 51.4005,20.9094 C51.4625,21.4854 51.5265,21.9324 52.2225,21.9324 C52.2225,21.9324 52.5855,21.9814 53.9455,21.9814 L54.1391407,21.9810447 C55.313925,21.9766225 55.5215,21.9324 55.5215,21.9324 C55.8375,21.9324 55.9955,21.8104 56.0275,21.2944 C56.0615,20.3394 56.0935,19.3194 56.0935,18.4344 L56.0935,18.4344 L56.0935,13.9404 C56.0935,12.9864 55.9035,12.3534 54.4375,11.9664 C54.1495,11.9024 54.1175,11.8034 54.1175,11.6844 L54.1175,11.6844 L54.1175,11.3304 C54.1175,11.2044 54.1815,11.1404 54.3405,11.0744 C54.7885,10.8844 57.9355,9.7684 58.4795,9.5484 C58.7995,9.4214 59.0535,9.3554 59.2445,9.3554 C59.4325,9.3554 59.5315,9.4824 59.4995,9.7424 C59.4453846,10.1519 59.4349778,11.5601737 59.4329765,13.47772 L59.433036,19.075264 C59.43518,20.00144 59.4459,20.8 59.4995,21.1064 C59.5615,21.6804 59.6885,21.9324 60.0095,21.9324 L60.0095,21.9324 L61.2845,21.9324 C61.5395,21.9324 61.6035,21.9944 61.6035,22.1504 L61.6035,22.1504 L61.6035,22.7954 C61.6035,22.9824 61.5395,23.1114 61.3475,23.1114 C61.2252925,23.1114 55.9455306,23.0558429 50.3864981,23.0516499 L49.0766203,23.0516322 C43.6207591,23.0554549 38.2625839,23.1052581 37.5723426,23.1108839 L37.4995,23.1114 C37.3105,23.1114 37.2445,22.9824 37.2445,22.7954 L37.2445,22.7954 L37.2445,22.1924 C37.2445,21.9944 37.3105,21.9324 37.6875,21.9324 L37.6875,21.9324 L38.8995,21.9324 C39.2205,21.9324 39.6965,21.6804 39.6965,20.7904 L39.6965,20.7904 L39.6961662,10.538419 C39.6910833,8.36655451 39.6287917,5.819025 39.5665,5.0284 C39.5015,3.9474 38.9625,3.4354 37.9435,3.1164 L37.9435,3.1164 L37.3105,2.9314 C37.1145,2.8634 37.1145,2.7994 37.1145,2.6674 L37.1145,2.2874 C37.1145,2.2234 37.1785,2.0964 37.3715,2.0354 C38.6445,1.6534 41.1235,0.8264 42.1445,0.1894 C42.5295,0.0574 42.7185,0.0004 42.8475,0.0004 C43.0345,0.0004 43.1605,0.1244 43.1605,0.5714 C43.0985,2.2874 43.0345,8.9114 43.0345,10.6624 L43.0348847,16.1992896 C43.0366157,17.8166727 43.0461364,20.1288545 43.0985,20.9094 C43.1605,21.4854 43.2265,21.9324 43.9315,21.9324 C43.9315,21.9324 44.3865,21.9814 45.5535,21.9814 L45.7644658,21.9808497 C46.7793828,21.9754664 47.1995,21.9324 47.1995,21.9324 C47.5155,21.9324 47.9955,21.6804 47.9955,20.7904 L47.9955,20.7904 L47.9951513,10.538419 C47.9898455,8.36655451 47.9249583,5.819025 47.8665,5.0284 C47.8025,3.9474 47.2615,3.4354 46.2435,3.1164 L46.2435,3.1164 L45.6075,2.9314 C45.4165,2.8634 45.4165,2.7994 45.4165,2.6674 L45.4165,2.2874 C45.4165,2.2234 45.4755,2.0964 45.6715,2.0354 C46.9435,1.6534 49.4255,0.8264 50.4475,0.1894 C50.8285,0.0574 51.0175,0.0004 51.1445,0.0004 Z M29.5067,10.6255 C28.6817,10.6255 28.0467,10.8845 27.5047,11.4925 C26.5167,12.6055 26.1357,13.9405 26.1357,16.2615 C26.1357,18.1105 26.2647,19.3195 27.1257,20.6875 C27.6647,21.5495 28.3667,22.0615 29.6377,22.0615 C31.7377,22.0615 32.8227,19.4165 32.8227,16.1675 C32.8227,12.6655 30.9747,10.6255 29.5067,10.6255 Z M68.9766,10.5342 C67.4146,10.5342 66.4556,11.6842 66.0436,13.8142 L66.0436,13.8142 L69.8996,13.8142 C70.5656,13.8142 70.9506,13.6232 70.9506,13.3692 C70.9506,12.4142 70.6306,10.5342 68.9766,10.5342 Z M57.3848,3.3201 C58.4558,3.3201 59.3238,4.1921 59.3238,5.2631 C59.3238,6.3331 58.4558,7.2031 57.3848,7.2031 C56.3058,7.2031 55.4428,6.3331 55.4428,5.2631 C55.4428,4.1921 56.3058,3.3201 57.3848,3.3201 Z" id="path-1"></path></defs><g id="components/logotypes/Colliers" stroke="none" stroke-width="1" fill="none" fill-rule="evenodd"><g id="style/Color/Main/Grey02" transform="translate(21.000000, 17.000000)"><mask id="mask-2" fill="white"><use xlink:href="#path-1"></use></mask><use id="Mask" fill="#9B9B9B" xlink:href="#path-1"></use><g id="style/Color/Main/Black" mask="url(#mask-2)" fill="#000000"><g transform="translate(-21.000000, -17.000000)" id="colorprimary"><rect x="0" y="0" width="140" height="70"></rect></g></g></g></g></svg> 