<?xml version="1.0" encoding="UTF-8"?> <svg xmlns="http://www.w3.org/2000/svg" xmlns:xlink="http://www.w3.org/1999/xlink" width="140px" height="70px" viewBox="0 0 140 70"><!-- Generator: Sketch 60.1 (88133) - https://sketch.com --><title>components/logotypes/CyfrowyPolsat</title><desc>Created with Sketch.</desc><defs><path d="M38.1542308,0 C42.4437065,0 45.943394,3.55152043 45.943394,7.90564434 L45.943394,7.90564434 L45.943394,36.0934436 L46,36.0934436 C46,40.4475675 42.5003125,44 38.2108368,44 L38.2108368,44 L7.78916322,44 C3.49968748,44 0,40.4475675 0,36.0934436 L0,36.0934436 L0,7.90564434 C0,3.55152043 3.49968748,0 7.78916322,0 L7.78916322,0 Z M104.979348,0 C108.829936,0 112,3.54779945 112,7.89624477 L112,7.89624477 L112,36.0463711 C112,40.3948164 108.829936,44 104.979348,44 L104.979348,44 L44.2559847,44 C46.0785239,43.9061814 48.9259033,40.0040575 48.9259033,36.0463711 L48.9259033,36.0463711 L48.9259033,7.95362895 C48.7564487,1.48743427 44,0 44,0 C44,0.0550888088 100.198567,0.00440710471 104.694453,0.000264426282 Z M23.3541764,37.3541051 L22.8335025,37.3541051 C22.3934063,37.3552559 22.0777164,37.3627358 22.1248535,37.411355 C22.1814595,37.4688141 22.5768029,37.5262732 23.0844597,37.5262732 C23.6487226,37.4688141 23.98746,37.4688141 24.0440659,37.411355 C24.0919633,37.3627358 23.8162756,37.3552559 23.3541764,37.3541051 Z M20.5443785,37.1249715 C19.9801156,37.0100533 19.6422767,37.0100533 19.7545902,37.0675124 C19.8111962,37.1249715 20.2622471,37.2389777 20.7708024,37.2973488 C21.2218533,37.411355 21.6171967,37.411355 21.5605907,37.3538959 C21.5039847,37.2973488 20.9963278,37.2389777 20.5443785,37.1249715 Z M26.5275412,37.0100533 C26.6407532,36.9535062 26.3020158,37.0100533 25.7934604,37.1249715 C25.2291976,37.2389777 24.7781467,37.2973488 24.7215407,37.3538959 C24.6649348,37.411355 25.0036722,37.3538959 25.511329,37.2973488 C25.9632784,37.1824306 26.4152278,37.0675124 26.5275412,37.0100533 Z M23.1410657,36.7811289 C22.5201969,36.7811289 21.9559341,36.895135 22.01254,37.0100533 C22.1248535,37.1249715 22.5768029,37.2389777 23.1410657,37.2389777 C23.7619345,37.1824306 24.2129854,37.1249715 24.2695914,37.0100533 C24.2695914,36.895135 23.7619345,36.838588 23.1410657,36.7811289 Z M20.0367216,36.6096636 C19.4158528,36.4947454 19.0214079,36.5512924 19.1337214,36.6662106 C19.2469334,36.7811289 19.8111962,36.9535062 20.375459,37.0675124 C20.9397219,37.1249715 21.3350652,37.1249715 21.2784593,37.0100533 C21.2218533,36.895135 20.6575904,36.7236698 20.0367216,36.6096636 Z M27.091804,36.6096636 C27.205016,36.4947454 26.8662786,36.4372862 26.1888038,36.5512924 C25.567935,36.6662106 25.0036722,36.838588 24.9470662,36.9535062 C24.8904602,37.1249715 25.2858036,37.1249715 25.8500664,37.0100533 C26.4709352,36.895135 26.9794906,36.7236698 27.091804,36.6096636 Z M18.0618017,36.5512924 C17.5532463,36.3798271 17.3277209,36.3798271 17.4966404,36.4372862 C17.6098523,36.5512924 18.0618017,36.7236698 18.5128526,36.838588 C18.9648019,37.0100533 19.2469334,37.0675124 19.1337214,36.9535062 C18.9648019,36.895135 18.4562466,36.7236698 18.0618017,36.5512924 Z M28.7288851,36.3798271 C28.8978045,36.2658209 28.6722791,36.322368 28.2769357,36.4947454 C27.7692788,36.6662106 27.2607235,36.838588 27.14841,36.895135 C26.9794906,36.9535062 27.3173295,36.895135 27.7126729,36.7811289 C28.1080163,36.6096636 28.5590671,36.4372862 28.7288851,36.3798271 Z M23.1976717,35.6930539 C22.4069849,35.749601 21.8427221,35.9785254 21.8427221,36.2074498 C21.8993281,36.4372862 22.4635909,36.6096636 23.1410657,36.6096636 C23.874248,36.6096636 24.4394093,36.4372862 24.4951168,36.1509027 C24.4951168,35.9219783 23.930854,35.6930539 23.1976717,35.6930539 Z M17.157903,35.9219783 C16.6502461,35.6930539 16.4247207,35.6930539 16.5936401,35.8645192 C16.7634581,36.0359845 17.2711149,36.2658209 17.7787718,36.4372862 C18.2873271,36.6096636 18.6260645,36.6096636 18.4562466,36.4947454 C18.3439331,36.3798271 17.7230643,36.0934436 17.157903,35.9219783 Z M29.5752793,35.749601 C29.8008048,35.6346828 29.5752793,35.6346828 29.0676225,35.8070601 C28.5024611,36.0359845 27.9381983,36.2658209 27.7126729,36.3798271 C27.5994609,36.4947454 27.8815923,36.4947454 28.3901477,36.322368 C28.8411985,36.1509027 29.3497539,35.9219783 29.5752793,35.749601 Z M27.7692788,35.6930539 C27.9381983,35.4057583 27.5437534,35.2908401 26.7530666,35.4057583 C26.0764904,35.5781357 25.3990155,35.8645192 25.2858036,36.1509027 C25.2291976,36.4372862 25.681147,36.4947454 26.3586218,36.3798271 C27.0360966,36.2074498 27.5994609,35.9785254 27.7692788,35.6930539 Z M19.4724588,35.4632175 C18.738378,35.3492113 18.3439331,35.4632175 18.4562466,35.749601 C18.6260645,36.0359845 19.1903274,36.2658209 19.8669037,36.3798271 C20.5443785,36.4947454 20.9963278,36.4372862 20.9397219,36.1509027 C20.8831159,35.8645192 20.2622471,35.5781357 19.4724588,35.4632175 Z M16.2549027,34.661526 C15.6906399,34.4891487 15.4651145,34.5466078 15.6349324,34.8329913 C15.8604578,35.1193748 16.4247207,35.4632175 16.9889835,35.6346828 C17.5532463,35.8070601 17.8919837,35.8070601 17.7230643,35.5206766 C17.5532463,35.2908401 16.8757715,34.8329913 16.2549027,34.661526 Z M14.8442456,34.8904504 C14.3922963,34.661526 14.2799828,34.661526 14.5055082,34.8329913 C14.7310337,35.0053687 15.239589,35.2908401 15.6349324,35.5206766 C16.0293773,35.749601 16.1982967,35.749601 16.0293773,35.6346828 C15.8038519,35.4632175 15.296195,35.1193748 14.8442456,34.8904504 Z M30.5914915,34.7180731 C30.817017,34.4316896 30.5914915,34.3176834 29.9140167,34.5466078 C29.2931479,34.7755322 28.6722791,35.1768339 28.5024611,35.4632175 C28.3335417,35.749601 28.6722791,35.749601 29.2365419,35.5781357 C29.8008048,35.3492113 30.3659661,35.0053687 30.5914915,34.7180731 Z M31.6068052,34.7180731 C31.8332292,34.5466078 31.7200172,34.5466078 31.3246738,34.8329913 C30.8736229,35.0619157 30.3659661,35.4057583 30.1395422,35.5781357 C29.9140167,35.749601 30.1395422,35.6346828 30.5348855,35.4632175 C30.9293304,35.2342931 31.3812798,34.8904504 31.6068052,34.7180731 Z M23.1976717,33.6874572 C22.2380655,33.6874572 21.5605907,34.0878469 21.6171967,34.5466078 C21.6738026,35.0053687 22.3512774,35.3492113 23.1410657,35.3492113 C23.98746,35.3492113 24.6649348,35.0053687 24.7215407,34.5466078 C24.7781467,34.0878469 24.1006719,33.6874572 23.1976717,33.6874572 Z M18.908196,33.4010737 C18.0609032,33.2296084 17.5532463,33.5150799 17.7230643,34.0312999 C17.8919837,34.4891487 18.6260645,34.8904504 19.3601453,35.0053687 C20.1499336,35.1193748 20.7141964,34.8904504 20.6009845,34.4316896 C20.5443785,33.9738408 19.8111962,33.5150799 18.908196,33.4010737 Z M28.6156731,33.9172937 C28.7288851,33.4585328 28.2769357,33.2296084 27.4305414,33.2861555 C26.6407532,33.4010737 25.8500664,33.9172937 25.7377529,34.3742305 C25.624541,34.8329913 26.2454098,35.0619157 26.9794906,34.9469975 C27.7692788,34.8329913 28.4467537,34.3742305 28.6156731,33.9172937 Z M13.7714275,33.5150799 C13.3203766,33.2296084 13.1505586,33.3436146 13.4326901,33.6299981 C13.659114,33.9172937 14.1667708,34.3176834 14.6187202,34.6031549 C15.0140636,34.8329913 15.182983,34.8329913 15.0140636,34.5466078 C14.7310337,34.2602243 14.1667708,33.8023755 13.7714275,33.5150799 Z M32.7362294,33.5734511 C33.0183608,33.2296084 32.9051488,33.1712373 32.5098055,33.4010737 C32.0587546,33.6299981 31.4944918,34.1462181 31.2123603,34.4316896 C30.9859364,34.7755322 31.1557544,34.7755322 31.6068052,34.4891487 C32.0021486,34.2602243 32.454098,33.8589225 32.7362294,33.5734511 Z M15.296195,32.483552 C14.6187202,32.3120867 14.3365888,32.5419232 14.5621142,32.999772 C14.7876397,33.4585328 15.4085085,33.9738408 16.0293773,34.2027652 C16.6502461,34.4316896 17.0455895,34.2602243 16.8757715,33.8023755 C16.6502461,33.3436146 15.9170638,32.7708476 15.296195,32.483552 Z M31.7200172,32.9423129 C31.9455426,32.483552 31.6634112,32.1980806 31.0425424,32.483552 C30.4216736,32.7133885 29.6318853,33.2861555 29.4629659,33.7449164 C29.2931479,34.2027652 29.6318853,34.3176834 30.2527541,34.1462181 C30.8736229,33.9172937 31.4378858,33.4010737 31.7200172,32.9423129 Z M11.8531135,32.3695458 C11.5709821,32.0831623 11.5143761,32.1397094 11.7965075,32.483552 C12.022033,32.8273946 12.4173764,33.1712373 12.7561138,33.4585328 C13.0948512,33.6874572 13.2071646,33.6874572 12.9250332,33.4010737 C12.6995078,33.0572311 12.1918509,32.5419232 11.8531135,32.3695458 Z M34.3167044,32.3695458 C34.5422299,32.0257032 34.5422299,31.9682441 34.2600984,32.2546276 C33.977967,32.483552 33.5260177,32.999772 33.2438862,33.2861555 C32.9617548,33.5734511 33.0749668,33.5734511 33.3570982,33.3436146 C33.6958356,33.1146902 34.034573,32.6559294 34.3167044,32.3695458 Z M12.5296898,31.5103953 C12.022033,31.2230997 11.9097195,31.4529362 12.1918509,31.910785 C12.4173764,32.3695458 12.9250332,32.8273946 13.3769826,33.1146902 C13.8846394,33.3436146 14.1101649,33.2296084 13.8280334,32.7708476 C13.602508,32.2546276 12.9816392,31.6818606 12.5296898,31.5103953 Z M33.977967,31.7393197 C34.2034925,31.2814709 34.091179,31.0516344 33.6958356,31.2814709 C33.2438862,31.5103953 32.6796234,32.1397094 32.397492,32.5984702 C32.1719666,33.0572311 32.340886,33.1712373 32.7928354,32.9423129 C33.2438862,32.7133885 33.6958356,32.1980806 33.977967,31.7393197 Z M23.1976717,30.3639492 C22.1248535,30.4214083 21.3350652,31.0516344 21.3916712,31.7393197 C21.4482772,32.483552 22.2380655,32.999772 23.1976717,32.999772 C24.1572779,32.9423129 24.8904602,32.427005 25.0036722,31.7393197 C25.0602781,30.9376283 24.3261974,30.3639492 23.1976717,30.3639492 Z M18.3439331,30.1350248 C17.3843269,30.0201065 16.8757715,30.5354145 16.9889835,31.2814709 C17.157903,31.9682441 17.8919837,32.5984702 18.794984,32.7133885 C19.6979842,32.8273946 20.318853,32.427005 20.2622471,31.6818606 C20.1499336,30.9376283 19.3035393,30.1924839 18.3439331,30.1350248 Z M29.4063599,31.1090935 C29.5186733,30.4214083 29.0110165,29.9061004 28.1080163,30.0201065 C27.14841,30.1924839 26.3020158,30.8792571 26.1888038,31.6253135 C26.0764904,32.3695458 26.7530666,32.7133885 27.5994609,32.5984702 C28.4467537,32.427005 29.2365419,31.8542379 29.4063599,31.1090935 Z M10.6113759,31.0516344 C10.4415579,30.8792571 10.4415579,30.9941753 10.7236894,31.2814709 C10.9501133,31.6253135 11.2888507,32.0257032 11.5143761,32.2546276 C11.6832956,32.483552 11.6832956,32.483552 11.4577701,32.1397094 C11.2322447,31.7967788 10.8935073,31.338018 10.6113759,31.0516344 Z M35.3320181,31.1665527 C35.5584421,30.8792571 35.6141495,30.82271 35.3886241,30.9941753 C35.2197047,31.2230997 34.8243613,31.6818606 34.5988358,32.0257032 C34.3733104,32.3120867 34.3733104,32.3695458 34.5988358,32.1397094 C34.7677553,31.910785 35.1064927,31.4529362 35.3320181,31.1665527 Z M10.6679819,30.249943 C10.3849519,29.9635595 10.3849519,30.1924839 10.6113759,30.6503327 C10.8369013,31.1090935 11.2322447,31.5669424 11.5709821,31.8542379 C11.8531135,32.0831623 11.965427,32.0257032 11.6832956,31.5669424 C11.4577701,31.1090935 11.0067193,30.4788674 10.6679819,30.249943 Z M35.5018361,30.5937856 C35.7273615,30.0784777 35.7273615,29.9061004 35.4452301,30.1924839 C35.1630987,30.4214083 34.7111493,30.9941753 34.4299164,31.4529362 C34.2034925,31.910785 34.2600984,32.0257032 34.5422299,31.7393197 C34.8809673,31.4529362 35.2197047,30.9941753 35.5018361,30.5937856 Z M14.2799828,29.3333333 C13.545902,29.161868 13.2637706,29.6197169 13.4326901,30.3074021 C13.659114,30.9941753 14.3365888,31.6253135 15.0140636,31.7967788 C15.6906399,32.0257032 16.1416908,31.7393197 15.9727713,30.9941753 C15.8038519,30.249943 15.0140636,29.5057107 14.2799828,29.3333333 Z M32.7928354,30.1924839 C32.9617548,29.5057107 32.6796234,29.1034969 32.0021486,29.2758742 C31.3246738,29.4473395 30.5348855,30.1924839 30.3659661,30.9376283 C30.1961481,31.6253135 30.6480975,31.910785 31.3246738,31.7393197 C31.9455426,31.5103953 32.6230174,30.8792571 32.7928354,30.1924839 Z M11.4577701,28.4158116 C11.0067193,28.1868872 10.8935073,28.588189 11.0624268,29.2184151 C11.2888507,29.8486413 11.7965075,30.4788674 12.2484569,30.7652509 C12.6995078,30.9941753 12.9816392,30.7077918 12.7561138,30.0201065 C12.5296898,29.3907924 11.9097195,28.6456481 11.4577701,28.4158116 Z M9.5385577,29.161868 C9.36963825,28.9320316 9.42534573,29.161868 9.65176967,29.5622577 C9.8772951,29.9635595 10.1594265,30.4214083 10.3849519,30.6503327 C10.5547699,30.8792571 10.5547699,30.82271 10.3292445,30.3639492 C10.1028205,29.9635595 9.76408313,29.3907924 9.5385577,29.161868 Z M35.1064927,29.161868 C35.3320181,28.5307298 35.1630987,28.1868872 34.7111493,28.3592646 C34.2034925,28.5307298 33.6392296,29.2758742 33.4137042,29.9635595 C33.2438862,30.6503327 33.4703102,30.9376283 33.921361,30.6503327 C34.3733104,30.4214083 34.8809673,29.7911821 35.1064927,29.161868 Z M36.4048363,29.5057107 C36.5737558,29.0469498 36.6303617,28.8745725 36.5180483,29.1034969 C36.3482303,29.3333333 36.0660989,29.9061004 35.7839675,30.3074021 C35.5584421,30.7077918 35.5584421,30.82271 35.7273615,30.5937856 C35.8971795,30.3639492 36.1793109,29.9061004 36.4048363,29.5057107 Z M9.70837565,27.5575731 C9.42534573,27.3851958 9.42534573,27.7281264 9.59516368,28.3018054 C9.82068912,28.8745725 10.1594265,29.4473395 10.4415579,29.677176 C10.7236894,29.8486413 10.7802953,29.6197169 10.6113759,28.9894907 C10.3849519,28.4158116 9.93390109,27.6715793 9.70837565,27.5575731 Z M36.5180483,28.1868872 C36.6869677,27.6141202 36.6869677,27.2702776 36.4614423,27.4426549 C36.1793109,27.6715793 35.7273615,28.3018054 35.5584421,28.9320316 C35.3886241,29.5057107 35.4452301,29.7911821 35.7273615,29.5622577 C35.9528869,29.3333333 36.2916243,28.7596543 36.5180483,28.1868872 Z M23.4698934,25.7213368 L23.3108837,25.7234417 C22.069146,25.7809009 21.1652473,26.6400514 21.2218533,27.6141202 C21.2784593,28.588189 22.1248535,29.3333333 23.2542777,29.3333333 C24.3261974,29.3333333 25.2291976,28.588189 25.2858036,27.5575731 C25.2858036,26.5260452 24.4951168,25.6668947 23.3108837,25.7234417 Z M61.7783198,24.0886018 L56.2295803,24.0886018 L56.2295803,29.1812197 L57.7023939,29.1812197 L57.7023939,27.6364013 L62.0045598,27.6364013 C62.5147265,27.6364013 62.7409666,27.5790171 63.0239919,27.4077754 C63.194348,27.2930071 63.3638027,27.0643812 63.420588,27.0060862 C63.6477294,26.720987 63.7036134,26.3192978 63.7036134,25.6908045 C63.7036134,25.1752577 63.6477294,24.8318635 63.3638027,24.4884693 C63.1375626,24.2598435 62.6841812,24.0886018 61.7783198,24.0886018 L61.7783198,24.0886018 Z M74.4044962,24.0886018 L72.932584,24.0886018 L72.932584,29.1812197 L79.9532356,29.1812197 L79.9532356,27.8641163 L74.4044962,27.8641163 L74.4044962,24.0886018 Z M87.7670793,24.0886018 L82.388696,24.0886018 C81.7090745,24.0886018 81.2556931,24.1450751 80.9167838,24.373701 C80.8032131,24.431996 80.6896424,24.5458535 80.576973,24.7170952 C80.4634023,24.9466319 80.406617,25.2900261 80.406617,25.6908045 C80.406617,26.4340662 80.576973,26.8922287 80.9726677,27.1208546 C81.1430238,27.2356229 81.5387185,27.2930071 82.0488852,27.2930071 L82.0488852,27.2930071 L86.5223085,27.2930071 L86.5223085,27.9788846 L80.5192863,27.9788846 L80.5192863,29.1812197 L86.8044325,29.1812197 C86.9747886,29.1812197 87.1442433,29.1229247 87.2578139,29.0664514 C87.484054,28.951683 87.7111954,28.8378255 87.8238647,28.6082888 C87.9374354,28.4361363 87.9374354,28.0927421 87.9374354,27.5790171 C87.9374354,27.2356229 87.8797487,26.9496129 87.8238647,26.720987 C87.7670793,26.6062187 87.7111954,26.4914503 87.5976247,26.3775928 C87.3713846,26.090672 86.9747886,25.9759036 86.3519525,25.9759036 L86.3519525,25.9759036 L81.7649585,25.9759036 L81.7649585,25.3474103 L87.7670793,25.3474103 L87.7670793,24.0886018 Z M70.6115957,24.0886018 L66.0246017,24.0886018 C65.2890963,24.0886018 64.7789295,24.2024593 64.5535908,24.4884693 C64.3832348,24.6606219 64.3273508,25.0604894 64.3273508,25.6325094 L64.3273508,25.6325094 L64.3273508,27.8076429 C64.3273508,28.0927421 64.3832348,28.379663 64.4968055,28.6082888 C64.6094748,28.7795305 64.7230455,28.8942988 64.8357149,28.951683 C65.1187402,29.0664514 65.4026669,29.1229247 65.7983617,29.1229247 L65.7983617,29.1229247 L70.3844543,29.1229247 C70.894621,29.1229247 71.2903157,29.0664514 71.5742425,28.951683 C71.6878132,28.8942988 71.8004825,28.7795305 71.9140532,28.6082888 C72.0267225,28.379663 72.0835079,28.0927421 72.0835079,27.8076429 L72.0835079,27.8076429 L72.0835079,25.6325094 C72.0835079,25.1752577 71.9699372,24.7753902 71.8004825,24.5458535 C71.5174571,24.2598435 71.1208611,24.0886018 70.6115957,24.0886018 L70.6115957,24.0886018 Z M92.353172,23.9738335 L92.297288,24.0312177 L88.2195594,28.8942988 L88.0501047,29.1229247 L89.8059436,29.1229247 L89.862729,29.0664514 L90.5982344,28.0362688 L95.5241377,28.0362688 L96.3173299,29.0664514 L96.3732139,29.1229247 L98.1849368,29.1229247 L98.0154821,28.8942988 L93.8827709,24.0312177 L92.353172,23.9738335 Z M105.20649,24.0886018 L96.7130246,24.0886018 L96.7130246,25.3474103 L100.223801,25.3474103 L100.223801,29.1229247 L101.696615,29.1229247 L101.696615,25.3474103 L105.20649,25.3474103 L105.20649,24.0886018 Z M17.8919837,25.4945173 C16.8191656,25.3795991 16.1982967,26.1822026 16.3115087,27.1553593 C16.4247207,28.1303402 17.2145089,28.9320316 18.2307212,29.0469498 C19.1903274,29.161868 19.9235096,28.5307298 19.8669037,27.499202 C19.8111962,26.4685861 18.85159,25.5519765 17.8919837,25.4945173 Z M28.6156731,25.3795991 C27.5994609,25.4945173 26.6973592,26.411127 26.5841472,27.4426549 C26.5275412,28.4741828 27.2607235,29.1034969 28.2203297,28.9894907 C29.1799359,28.8745725 29.9706227,28.071969 30.0838347,27.0988123 C30.1961481,26.0672844 29.5752793,25.3795991 28.6156731,25.3795991 Z M8.69216345,26.7549696 C8.523244,26.5835043 8.57895148,26.8698879 8.74876944,27.3851958 C8.91768888,27.8430446 9.14321431,28.4158116 9.31303227,28.588189 C9.48195171,28.7596543 9.48195171,28.588189 9.31303227,28.0154219 C9.08750684,27.4426549 8.8610829,26.8698879 8.69216345,26.7549696 Z M37.3078365,27.3277367 C37.4210485,26.8115167 37.4776545,26.5260452 37.3644425,26.6975105 C37.2512306,26.8115167 36.9690991,27.4426549 36.8001797,27.9579628 C36.6303617,28.4741828 36.5737558,28.7031072 36.7435737,28.5307298 C36.9124932,28.3018054 37.1389171,27.8430446 37.3078365,27.3277367 Z M13.659114,25.0941276 C12.9250332,24.9792094 12.5296898,25.6085235 12.6429018,26.5260452 C12.7561138,27.3851958 13.3769826,28.1868872 14.1101649,28.3592646 C14.8442456,28.4741828 15.352801,27.9579628 15.239589,26.983894 C15.1263771,26.0107373 14.3922963,25.1506747 13.659114,25.0941276 Z M32.796203,24.976679 L32.6796234,24.9792094 C31.9455426,25.0941276 31.2123603,25.9523661 31.0991484,26.9264349 C31.0425424,27.9005037 31.4944918,28.4158116 32.227674,28.3018054 C32.9051488,28.1303402 33.5260177,27.3851958 33.6392296,26.4685861 C33.7524416,25.6085235 33.3570982,24.9217503 32.6796234,24.9792094 Z M70.6680205,25.3476835 L70.6680205,27.9217737 L65.6853318,27.9217737 L65.6853318,25.3476835 L70.6680205,25.3476835 Z M8.1845066,26.0672844 C8.07129463,25.8958191 8.1845066,26.1822026 8.29682006,26.6400514 C8.46663802,27.0413531 8.63555747,27.499202 8.74876944,27.6715793 C8.80447691,27.8430446 8.80447691,27.6715793 8.63555747,27.1553593 C8.46663802,26.6975105 8.29682006,26.1822026 8.1845066,26.0672844 Z M37.7031799,26.5835043 C37.7597859,26.1247435 37.8720994,25.83836 37.8163919,25.9523661 C37.7597859,26.1247435 37.589968,26.5835043 37.4210485,27.0988123 C37.2512306,27.5575731 37.1946246,27.7864975 37.3078365,27.6141202 C37.3644425,27.4426549 37.533362,26.983894 37.7031799,26.5835043 Z M10.7802953,24.6353668 C10.3292445,24.5204486 10.1028205,25.0941276 10.2160325,25.8958191 C10.3849519,26.6400514 10.7802953,27.3851958 11.2322447,27.5575731 C11.7399016,27.7281264 12.022033,27.2137305 11.9097195,26.3545799 C11.7965075,25.4945173 11.2888507,24.6919139 10.7802953,24.6353668 Z M35.5173257,24.5737765 L35.4452301,24.5779077 C34.9366747,24.6919139 34.4856239,25.4945173 34.3167044,26.2962088 C34.2034925,27.1553593 34.5422299,27.6715793 34.9366747,27.499202 C35.4452301,27.2702776 35.8405735,26.5835043 35.9528869,25.83836 C36.0660989,25.0357565 35.8405735,24.5204486 35.4452301,24.5779077 Z M93.0326131,25.1184201 L94.5045253,26.8344802 L91.6174863,26.8344802 L93.0326131,25.1184201 Z M9.08750684,24.234065 C8.80447691,24.1766059 8.69216345,24.6353668 8.80447691,25.323052 C8.91768888,25.9523661 9.1998203,26.5835043 9.48195171,26.7549696 C9.70837565,26.9264349 9.8772951,26.4685861 9.76408313,25.7234417 C9.65176967,24.9792094 9.31303227,24.2915242 9.08750684,24.234065 Z M37.0257051,24.1191468 C36.7435737,24.1766059 36.4614423,24.8642912 36.3482303,25.6085235 C36.2350184,26.3545799 36.3482303,26.7549696 36.6303617,26.6400514 C36.8558872,26.4685861 37.1389171,25.8958191 37.2512306,25.2081338 C37.3644425,24.5779077 37.3078365,24.1191468 37.0257051,24.1191468 Z M62.288126,25.2902993 L62.288126,26.3769552 L57.7588187,26.3769552 L57.7588187,25.2902993 L62.288126,25.2902993 Z M8.1845066,23.8327633 C8.01468865,23.7753042 8.01468865,24.234065 8.12790062,24.8068321 C8.24111259,25.3795991 8.41003203,25.8958191 8.523244,26.0107373 C8.69216345,26.1822026 8.69216345,25.7809009 8.57895148,25.1506747 C8.46663802,24.5204486 8.29682006,23.9476815 8.1845066,23.8327633 Z M37.9287054,24.750285 C37.9853114,24.1766059 37.9853114,23.7753042 37.8720994,23.8902224 C37.7597859,23.9476815 37.589968,24.5204486 37.4776545,25.1506747 C37.3644425,25.7809009 37.4210485,26.1247435 37.533362,26.0107373 C37.646574,25.83836 37.8163919,25.323052 37.9287054,24.750285 Z M7.78916322,23.6038389 C7.73255723,23.5463798 7.73255723,23.8902224 7.8457692,24.4064424 C7.90237519,24.9217503 8.01468865,25.3795991 8.07129463,25.4945173 C8.12790062,25.5519765 8.12790062,25.2655929 8.01468865,24.6919139 C7.95808266,24.1191468 7.8457692,23.660386 7.78916322,23.6038389 Z M38.2226952,23.5402425 L38.2108368,23.5463798 C38.1542308,23.6038389 38.0985233,24.1191468 37.9853114,24.6353668 C37.8720994,25.1506747 37.8720994,25.4945173 37.9287054,25.3795991 C37.9853114,25.323052 38.0985233,24.8642912 38.1542308,24.3480712 C38.2108368,23.8327633 38.2674428,23.4889207 38.2108368,23.5463798 Z M23.4078733,19.8209092 L23.2542777,19.822482 C21.9559341,19.822482 21.0529338,20.7965508 20.9963278,22.0570031 C21.0529338,23.3174554 22.01254,24.2915242 23.2542777,24.2915242 C24.4951168,24.2915242 25.3990155,23.3174554 25.4556215,22.0570031 C25.4556215,20.7965508 24.4951168,19.7650229 23.2542777,19.822482 Z M28.6722791,19.9939473 C27.6560669,19.9374002 26.8096726,20.8540099 26.8096726,22.0570031 C26.8662786,23.2599963 27.6560669,24.1766059 28.6722791,24.1191468 C29.6884913,24.0625998 30.3659661,23.1459901 30.4216736,22.0570031 C30.4216736,20.911469 29.6884913,19.9939473 28.6722791,19.9939473 Z M17.9159005,19.9355433 L17.7787718,19.9374002 C16.7068521,19.9939473 15.9727713,20.911469 15.9727713,22.0570031 C16.0293773,23.1459901 16.7634581,24.0625998 17.7787718,24.1191468 C18.794984,24.1766059 19.6422767,23.3174554 19.6422767,22.0570031 C19.5856708,20.7965508 18.794984,19.8799411 17.7787718,19.9374002 Z M13.6551016,20.2133556 L13.545902,20.2237838 C12.8118212,20.2812429 12.3041644,21.0829343 12.3041644,22.0570031 C12.3041644,23.0310719 12.8118212,23.8327633 13.545902,23.8902224 C14.2799828,23.8902224 14.8442456,23.1459901 14.9008516,22.0570031 C14.9008516,20.911469 14.2799828,20.1088655 13.545902,20.2237838 Z M32.7362294,20.1663246 C32.0021486,20.1663246 31.4378858,20.9680161 31.4378858,21.999544 C31.4378858,23.0876189 32.0021486,23.8902224 32.7362294,23.8327633 C33.4703102,23.7187571 33.977967,22.9736128 33.977967,21.999544 C33.977967,21.0254752 33.4703102,20.2812429 32.7362294,20.1663246 Z M10.6679819,20.3952491 C10.2160325,20.5101673 9.8772951,21.1403934 9.8772951,21.999544 C9.8772951,22.8596066 10.2160325,23.5463798 10.6679819,23.6038389 C11.1756387,23.6038389 11.5709821,22.9736128 11.5709821,21.999544 C11.5709821,21.0254752 11.1756387,20.3952491 10.6679819,20.3952491 Z M35.5018361,20.3952491 C35.0498867,20.3952491 34.6545433,21.0829343 34.6545433,21.999544 C34.6545433,22.9161536 34.9932807,23.6038389 35.4452301,23.5463798 C35.8971795,23.4889207 36.2350184,22.8021475 36.2350184,21.999544 C36.2350184,21.1978525 35.9528869,20.5101673 35.5018361,20.3952491 Z M37.1389171,20.6250855 C36.8558872,20.5676264 36.6869677,21.1403934 36.6303617,21.9420849 C36.6303617,22.8021475 36.8558872,23.3749145 37.0823111,23.3174554 C37.3078365,23.2025372 37.4776545,22.6297701 37.533362,21.9420849 C37.533362,21.2553117 37.3644425,20.6816326 37.1389171,20.6250855 Z M8.97429487,20.5676264 C8.69216345,20.6816326 8.523244,21.2553117 8.523244,21.9420849 C8.523244,22.6872292 8.69216345,23.2599963 8.97429487,23.3174554 C9.31303227,23.3174554 9.48195171,22.7446883 9.48195171,21.9420849 C9.48195171,21.1978525 9.25642628,20.5676264 8.97429487,20.5676264 Z M37.9853114,20.7965508 C37.8720994,20.7965508 37.8163919,21.2553117 37.8163919,21.9420849 C37.8163919,22.6297701 37.8720994,23.1459901 37.9853114,23.0876189 C38.0419173,22.9736128 38.1542308,22.5157639 38.1542308,21.9420849 C38.1542308,21.3693178 38.0419173,20.8540099 37.9853114,20.7965508 Z M8.12790062,20.7965508 C8.01468865,20.8540099 7.95808266,21.3118587 7.90237519,21.9420849 C7.95808266,22.5157639 8.01468865,23.0310719 8.12790062,23.0876189 C8.24111259,23.1459901 8.35342605,22.6297701 8.35342605,21.9420849 C8.29682006,21.2553117 8.24111259,20.7965508 8.12790062,20.7965508 Z M38.2674428,20.9680161 C38.2238997,20.9245183 38.2138513,21.1853969 38.2115324,21.5688229 L38.2115324,22.3158325 C38.2138513,22.6996363 38.2238997,22.960353 38.2674428,22.9161536 C38.3231502,22.9161536 38.3797562,22.4583048 38.3797562,21.9420849 C38.3797562,21.4267769 38.3231502,21.0254752 38.2674428,20.9680161 Z M7.67595125,20.9680161 C7.67595125,21.0254752 7.62024377,21.4267769 7.62024377,21.9420849 C7.62024377,22.4583048 7.67595125,22.8596066 7.73255723,22.9161536 C7.77972889,22.9161536 7.78759083,22.6381052 7.78890115,22.2134322 L7.78863909,21.6710542 C7.78601844,21.2466979 7.77029455,20.9680161 7.67595125,20.9680161 Z M73.32918,16.4783671 L68.7989714,16.4783671 C68.5168474,16.5357513 68.289706,16.5357513 68.063466,16.5922246 C67.8940113,16.6496087 67.7236553,16.7069929 67.6100846,16.8791454 C67.4406299,17.0503871 67.3279606,17.3937813 67.3279606,17.7945597 L67.3279606,17.7945597 L67.3279606,22.3716309 L69.1387821,22.3716309 L69.1387821,20.3686499 L72.9893693,20.3686499 L72.9893693,18.9959839 L69.1387821,18.9959839 L69.1387821,17.7945597 L73.32918,17.7945597 L73.32918,16.4783671 Z M57.1177464,16.536203 L55.3805042,16.5357513 C54.6440975,16.5357513 54.0780467,16.5922246 53.738236,16.6496087 C53.511996,16.7069929 53.3425413,16.8217613 53.1721853,16.9356188 C52.7197052,17.279013 52.4934652,17.8519439 52.4934652,18.6525897 L52.4934652,18.6525897 L52.4934652,20.1409349 C52.4934652,20.5408024 52.5493492,20.8268124 52.6061345,21.0554382 C52.7197052,21.3988324 52.8332759,21.6283691 53.0595159,21.856995 C53.2289706,22.0282367 53.3993266,22.143005 53.6814507,22.2003892 C54.1348321,22.3142467 54.6440975,22.3716309 55.0974789,22.3716309 L55.0974789,22.3716309 L57.3625832,22.3716309 C57.6447072,22.3716309 57.9845179,22.3716309 58.2684446,22.3142467 C58.5505686,22.2577734 58.77771,22.2003892 59.0039501,22.0856208 C59.2301901,21.9708525 59.3437608,21.856995 59.4573315,21.6848425 C59.5141168,21.5136008 59.6276875,21.284975 59.6276875,20.8841966 L59.6276875,20.8841966 L55.0974789,20.8841966 C54.9280242,20.8841966 54.7576681,20.8268124 54.5882135,20.7120441 C54.3610721,20.5408024 54.3042867,20.2547924 54.3042867,19.7975407 L54.3042867,19.7975407 L54.3042867,18.4239639 C54.3042867,18.3665797 54.3042867,18.3091955 54.3610721,18.2518114 C54.4746428,18.0231855 54.7576681,17.9084172 55.1542642,17.9084172 L55.1542642,17.9084172 L59.5141168,17.9084172 C59.4573315,17.5085497 59.3437608,17.2225396 59.2301901,17.0503871 C59.1175207,16.9356188 59.0039501,16.8217613 58.8344954,16.7643771 C58.6641393,16.7069929 58.4378993,16.6496087 58.0422046,16.5922246 C57.7023939,16.5357513 57.3048965,16.5357513 56.8533178,16.5357513 Z M108.603696,16.4209829 L106.564831,16.4209829 L106.564831,16.4783671 L104.753108,18.8812156 L102.771931,16.4783671 L99.827205,16.4783671 L98.2985075,20.7694282 L96.8833806,16.4783671 L94.787731,16.4783671 L93.3167201,20.8268124 L91.6176666,16.4783671 L89.7491583,16.4783671 L91.8439066,21.5136008 C91.9574773,21.856995 92.1269319,22.0282367 92.2396013,22.143005 C92.4099573,22.2577734 92.749768,22.3716309 93.2031494,22.3716309 L93.2031494,22.3716309 L94.3920363,22.3716309 L95.7512791,18.1953381 L96.7698099,21.3414483 C96.8833806,21.7422266 97.0528353,22.0282367 97.2231913,22.2003892 C97.392646,22.3142467 97.7324567,22.3716309 98.2417221,22.3716309 L98.2417221,22.3716309 L99.3179396,22.3716309 L101.243233,17.2225396 L103.791363,20.1409349 L103.791363,22.3142467 L105.5463,22.3142467 L105.5463,20.2547924 L108.603696,16.4209829 Z M61.3826251,16.5357513 L59.2301901,16.5357513 L62.4579412,20.1974082 L62.4579412,22.3716309 L64.2137801,22.3716309 L64.2137801,20.3121765 L67.2702739,16.5357513 L65.1755256,16.5357513 L63.3638027,18.9385998 L61.3826251,16.5357513 Z M79.4439702,16.4783671 L74.2918268,16.4783671 L74.2918268,22.3142467 L76.1594337,22.3142467 L76.1594337,20.7120441 L78.7643488,20.7120441 C79.0482755,20.7120441 79.2745155,20.7694282 79.4439702,20.8268124 C79.5007555,20.8268124 79.5007555,20.8841966 79.5575409,20.9415808 C79.6702102,21.0554382 79.6702102,21.1702066 79.6702102,21.3414483 L79.6702102,21.3414483 L79.6702102,22.3142467 L81.4260492,22.3142467 L81.4260492,21.1128224 C81.4260492,20.8268124 81.3692638,20.5408024 81.1989078,20.3686499 C81.0862384,20.2547924 80.8032131,20.0835507 80.406617,19.9113982 C80.7464277,19.854014 81.0294531,19.7401565 81.1430238,19.6253882 C81.3692638,19.4541465 81.5387185,18.9959839 81.5387185,18.4239639 C81.5387185,17.8519439 81.4260492,17.3937813 81.2556931,17.1077713 C81.0862384,16.8791454 80.8590971,16.7069929 80.4634023,16.5922246 C80.2371623,16.5357513 79.8973516,16.4783671 79.4439702,16.4783671 L79.4439702,16.4783671 Z M87.539938,16.4783671 L84.4266589,16.4783671 C84.0300628,16.4783671 83.7470375,16.4783671 83.4640121,16.5357513 C83.3504414,16.5357513 83.1818881,16.5922246 83.0683174,16.7069929 C82.8420774,16.8217613 82.614936,17.0503871 82.4445799,17.279013 C82.2751253,17.6224072 82.1624559,18.0805697 82.1624559,18.6525897 L82.1624559,18.6525897 L82.1624559,20.1409349 C82.1624559,20.6555707 82.2183399,21.0554382 82.388696,21.3414483 C82.614936,21.856995 83.011532,22.143005 83.5207974,22.2003892 C83.6902521,22.2577734 84.1436335,22.2577734 84.823255,22.2577734 L87.739486,22.2576159 C88.2495267,22.2563565 88.584608,22.2450213 88.7865115,22.143005 C89.0695369,22.0856208 89.2966782,21.9143792 89.4661329,21.7422266 C89.7491583,21.3988324 89.918613,20.8841966 89.918613,20.1409349 L89.918613,20.1409349 L89.918613,18.3665797 C89.918613,17.8519439 89.8059436,17.4511655 89.5788023,17.1077713 C89.2966782,16.9356188 89.0127515,16.7069929 88.6170568,16.5922246 C88.3899154,16.5357513 88.0501047,16.4783671 87.539938,16.4783671 L87.539938,16.4783671 Z M87.0876382,18.0235499 C87.4274489,18.0235499 87.6536889,18.0800232 87.7672596,18.1374074 C87.9652196,18.2378297 88.0769172,18.4693589 88.1017485,18.7941623 L88.1070703,18.9389641 L88.1070703,20.02562 L88.1638557,20.02562 C88.1638557,20.2551567 88.1638557,20.4263984 88.1070703,20.5411667 C88.050285,20.6559351 87.9934996,20.7124084 87.9376157,20.8271767 C87.8402693,20.9255496 87.6177635,20.9810935 87.3427531,20.9949556 L87.2012089,20.9984184 L85.1064606,20.9984184 C84.6530792,20.9984184 84.3700538,20.9419451 84.2573845,20.8271767 C84.1154211,20.6366552 84.012892,20.4455011 83.9826591,20.2215603 L83.9734578,20.0830042 L83.9734578,18.9389641 C83.9734578,18.6529541 84.0302431,18.4234174 84.1438138,18.3095599 C84.2573845,18.1947915 84.3132685,18.1374074 84.4268392,18.0800232 C84.5169746,18.0348445 84.6440296,18.0258088 84.8075425,18.0240017 L87.0876382,18.0235499 Z M8.01468865,19.249715 C8.07129463,18.676948 8.12790062,18.3331053 8.07129463,18.5045706 C8.01468865,18.6194888 7.90237519,19.0207906 7.8457692,19.5360985 C7.73255723,20.0514064 7.73255723,20.3952491 7.78916322,20.3377899 C7.8457692,20.2812429 7.90237519,19.822482 8.01468865,19.249715 Z M37.9287054,18.5045706 C37.8720994,18.3331053 37.9287054,18.676948 37.9853114,19.249715 C38.0985233,19.822482 38.1542308,20.2812429 38.2108368,20.3377899 C38.2674428,20.3377899 38.2674428,20.0514064 38.1542308,19.5360985 C38.0985233,19.0782497 37.9853114,18.6194888 37.9287054,18.5045706 Z M37.533362,17.9318036 C37.4210485,17.8177974 37.3644425,18.16164 37.4776545,18.7918662 C37.589968,19.4786394 37.7597859,20.0514064 37.8720994,20.1088655 C37.9853114,20.1663246 37.9853114,19.7650229 37.9287054,19.1922559 C37.8163919,18.6194888 37.7031799,18.1041809 37.533362,17.9318036 Z M8.57895148,18.7918662 C8.63555747,18.1041809 8.63555747,17.7603383 8.523244,17.8743445 C8.41003203,17.9892627 8.24111259,18.5620297 8.12790062,19.1347968 C8.01468865,19.7075638 8.07129463,20.1088655 8.1845066,20.0514064 C8.29682006,19.9939473 8.46663802,19.4211803 8.57895148,18.7918662 Z M36.6869677,17.1875713 C36.4048363,17.072653 36.2916243,17.4739548 36.4048363,18.2181871 C36.5180483,18.9633315 36.8001797,19.6501047 37.0257051,19.7075638 C37.3078365,19.822482 37.4210485,19.3071741 37.3078365,18.676948 C37.1389171,17.9892627 36.9124932,17.4164957 36.6869677,17.1875713 Z M9.76408313,18.2181871 C9.8772951,17.4739548 9.70837565,17.072653 9.42534573,17.1875713 C9.14321431,17.3590365 8.8610829,17.9892627 8.74876944,18.6194888 C8.69216345,19.3071741 8.74876944,19.822482 9.03090085,19.7075638 C9.31303227,19.6501047 9.65176967,18.9633315 9.76408313,18.2181871 Z M34.9366747,16.499886 C34.4856239,16.3275087 34.2034925,16.8437286 34.3167044,17.7028792 C34.4856239,18.5620297 34.9932807,19.3637212 35.3886241,19.4211803 C35.8405735,19.4786394 36.0660989,18.9058724 35.9528869,18.16164 C35.8405735,17.3590365 35.4452301,16.6713513 34.9366747,16.499886 Z M11.8531135,17.5879609 C12.022033,16.7862695 11.6832956,16.2700495 11.1756387,16.4424269 C10.7236894,16.6138922 10.3292445,17.3015774 10.1594265,18.1041809 C10.0462145,18.8484132 10.2726385,19.4211803 10.7236894,19.3637212 C11.2322447,19.249715 11.7399016,18.5045706 11.8531135,17.5879609 Z M79.0478248,17.9085083 C79.3317515,17.9085083 79.5003049,17.9658924 79.6138756,18.0232766 C79.7274463,18.0806608 79.7833302,18.3092866 79.7833302,18.5952967 C79.7833302,18.8813067 79.7274463,19.0534592 79.6697596,19.1682275 C79.6231896,19.2631088 79.5759936,19.3187725 79.4634912,19.3346914 L79.3876355,19.3394692 L76.1030991,19.3394692 L76.1030991,17.9085083 L79.0478248,17.9085083 Z M32.227674,15.7547416 C31.4944918,15.5823643 30.9859364,16.1560434 31.0991484,17.1301121 C31.2680678,18.0467218 31.9455426,18.9058724 32.6796234,19.0207906 C33.3570982,19.0782497 33.7524416,18.4480235 33.6392296,17.5305018 C33.5260177,16.6138922 32.9617548,15.8696598 32.227674,15.7547416 Z M15.239589,17.0151939 C15.296195,16.0411251 14.7876397,15.4683581 14.1667708,15.6398234 C13.3769826,15.8122007 12.7561138,16.5564331 12.6429018,17.4739548 C12.5296898,18.3905644 12.9250332,19.0207906 13.659114,18.9633315 C14.3922963,18.8484132 15.1263771,17.9892627 15.239589,17.0151939 Z M19.8669037,16.5564331 C19.8669037,15.4683581 19.1337214,14.838132 18.1741152,15.0105093 C17.157903,15.1245155 16.3681147,15.9262069 16.2549027,16.9002757 C16.1982967,17.9318036 16.8191656,18.676948 17.8353778,18.6194888 C18.85159,18.5054827 19.7545902,17.5879609 19.8669037,16.5564331 Z M28.2769357,14.9530502 C27.3173295,14.838132 26.5841472,15.4683581 26.6407532,16.499886 C26.7530666,17.5305018 27.6560669,18.5054827 28.6722791,18.5620297 C29.6318853,18.6194888 30.2527541,17.8743445 30.1395422,16.9002757 C29.9706227,15.9262069 29.2365419,15.1245155 28.2769357,14.9530502 Z M23.1976717,14.6092076 C22.1248535,14.6666667 21.2218533,15.410899 21.1652473,16.4424269 C21.1652473,17.4739548 22.01254,18.3331053 23.2542777,18.3331053 C24.4394093,18.3331053 25.3424096,17.4739548 25.2858036,16.4424269 C25.2291976,15.410899 24.3261974,14.6666667 23.1976717,14.6092076 Z M37.3644425,16.2700495 C37.2512306,16.0985843 37.3078365,16.3275087 37.4776545,16.8437286 C37.646574,17.3015774 37.7597859,17.7603383 37.8163919,17.9318036 C37.8720994,18.0467218 37.8163919,17.7603383 37.7031799,17.3015774 C37.533362,16.8437286 37.4210485,16.3849678 37.3644425,16.2700495 Z M8.73888585,16.2253591 L8.69932193,16.2799933 C8.58913457,16.454306 8.44297732,16.8484915 8.29682006,17.2441183 C8.1845066,17.7028792 8.12790062,17.9892627 8.1845066,17.8743445 C8.24111259,17.7028792 8.41003203,17.2441183 8.57895148,16.7288104 C8.65442613,16.4980619 8.70833659,16.3256846 8.73888585,16.2253591 L8.73888585,16.2253591 Z M36.7435737,15.410899 C36.6303617,15.1819746 36.6303617,15.410899 36.8001797,15.983666 C36.9690991,16.499886 37.1946246,17.072653 37.3644425,17.2441183 C37.4776545,17.4164957 37.4776545,17.1301121 37.3078365,16.6138922 C37.1389171,16.0411251 36.9124932,15.5823643 36.7435737,15.410899 Z M9.25642628,15.8696598 C9.48195171,15.2968928 9.48195171,15.1245155 9.25642628,15.3534399 C9.08750684,15.5258172 8.8610829,16.0411251 8.69216345,16.5564331 C8.523244,17.0151939 8.523244,17.3015774 8.63555747,17.1875713 C8.80447691,17.0151939 9.08750684,16.4424269 9.25642628,15.8696598 Z M35.7839675,14.322824 C35.4452301,14.1504467 35.3886241,14.3802831 35.5584421,15.0105093 C35.8405735,15.6398234 36.1793109,16.3275087 36.4614423,16.499886 C36.7435737,16.6138922 36.7435737,16.3275087 36.5737558,15.7547416 C36.3482303,15.1819746 36.0094929,14.6092076 35.7839675,14.322824 Z M10.5547699,14.8955911 C10.7802953,14.2653649 10.6679819,14.0364405 10.3849519,14.2653649 C10.1028205,14.4942893 9.70837565,15.0679684 9.5385577,15.6398234 C9.31303227,16.2135025 9.36963825,16.5564331 9.65176967,16.3849678 C9.99050707,16.2135025 10.3849519,15.5258172 10.5547699,14.8955911 Z M34.034573,13.233837 C33.5826236,13.0049126 33.3004922,13.2912961 33.5260177,13.9789814 C33.7524416,14.6666667 34.3167044,15.410899 34.7677553,15.5823643 C35.2197047,15.7547416 35.3886241,15.3534399 35.1630987,14.7241258 C34.9366747,14.0938996 34.4856239,13.5202206 34.034573,13.233837 Z M12.6995078,13.8640632 C12.9250332,13.1763779 12.6429018,12.9474535 12.1918509,13.1198309 C11.7399016,13.3487553 11.2322447,13.9789814 11.0067193,14.6092076 C10.7802953,15.2968928 10.9501133,15.6972825 11.4011642,15.5258172 C11.9097195,15.2968928 12.4730838,14.5517484 12.6995078,13.8640632 Z M35.7273615,13.2912961 C35.5584421,13.0623717 35.5584421,13.1763779 35.7839675,13.5776797 C36.0660989,14.0364405 36.4048363,14.6092076 36.5180483,14.7806728 C36.6869677,15.0105093 36.6303617,14.7806728 36.4614423,14.3802831 C36.2350184,13.9789814 35.9528869,13.5202206 35.7273615,13.2912961 Z M10.2726385,13.5202206 C10.4981639,13.0623717 10.4981639,12.9474535 10.3849519,13.1763779 C10.1594265,13.4062144 9.82068912,13.8640632 9.65176967,14.322824 C9.42534573,14.7241258 9.36963825,14.8955911 9.5385577,14.7241258 C9.70837565,14.4942893 10.0462145,13.9789814 10.2726385,13.5202206 Z M31.3246738,12.2023091 C30.6480975,11.9733847 30.1961481,12.3172274 30.4216736,13.0049126 C30.5914915,13.750057 31.3246738,14.5517484 32.0587546,14.7241258 C32.7362294,14.8955911 33.0183608,14.4368302 32.8485429,13.750057 C32.6230174,13.0049126 32.0021486,12.4321456 31.3246738,12.2023091 Z M15.9727713,12.9474535 C16.1416908,12.2023091 15.6906399,11.8584665 14.9574576,12.088303 C14.2799828,12.3172274 13.602508,12.9474535 13.4326901,13.6351388 C13.2637706,14.3802831 13.545902,14.838132 14.2799828,14.6666667 C15.0140636,14.4368302 15.8038519,13.6925979 15.9727713,12.9474535 Z M27.5994609,11.2866115 C26.7530666,11.1716933 26.1321978,11.572083 26.1888038,12.3172274 C26.3020158,13.0049126 27.14841,13.8066041 28.1080163,13.9215223 C29.0676225,14.0364405 29.5752793,13.5202206 29.4629659,12.7759882 C29.2365419,12.088303 28.5024611,11.4580768 27.5994609,11.2866115 Z M20.2056411,12.2597683 C20.2622471,11.572083 19.6422767,11.1142342 18.738378,11.2291524 C17.8919837,11.3440706 17.1021955,11.9733847 16.9323775,12.7185291 C16.8191656,13.4627614 17.3277209,13.9789814 18.2873271,13.8640632 C19.2469334,13.750057 20.0933276,13.0049126 20.2056411,12.2597683 Z M34.5988358,12.2023091 C34.3167044,11.9159256 34.2600984,12.0308439 34.4856239,12.4886927 C34.7677553,12.9474535 35.2197047,13.5202206 35.5018361,13.750057 C35.7839675,13.9789814 35.7839675,13.8066041 35.5584421,13.3487553 C35.2754121,12.8899944 34.8809673,12.3746865 34.5988358,12.2023091 Z M11.6832956,12.3172274 C11.9097195,11.8584665 11.8531135,11.7444603 11.5709821,11.9733847 C11.2322447,12.2023091 10.8935073,12.7185291 10.6113759,13.1763779 C10.3849519,13.6351388 10.3849519,13.8640632 10.6679819,13.5776797 C10.9501133,13.3487553 11.4011642,12.7759882 11.6832956,12.3172274 Z M23.3559371,10.9959058 L23.1976717,11.000228 C22.1814595,11.000228 21.4482772,11.5155359 21.3916712,12.2597683 C21.3350652,13.0049126 22.1248535,13.6351388 23.1976717,13.6351388 C24.2695914,13.6351388 25.0602781,13.0049126 25.0036722,12.2597683 C24.9470662,11.4580768 24.1572779,10.9427689 23.1976717,11.000228 Z M34.6545433,11.7444603 C34.4290179,11.5155359 34.4290179,11.5155359 34.6545433,11.8584665 C34.8809673,12.1457621 35.2754121,12.66107 35.4452301,12.8899944 C35.6707555,13.1198309 35.5584421,13.0049126 35.3886241,12.66107 C35.1630987,12.3172274 34.8809673,11.9159256 34.6545433,11.7444603 Z M11.4577701,11.6870012 C11.6832956,11.4006177 11.6275881,11.3440706 11.4577701,11.572083 C11.2322447,11.8019194 10.8935073,12.2597683 10.6679819,12.5461518 C10.4415579,12.8325353 10.4415579,12.9474535 10.6113759,12.7185291 C10.7802953,12.4886927 11.1756387,12.0308439 11.4577701,11.6870012 Z M32.7928354,10.9427689 C32.340886,10.7129324 32.1153606,10.7703916 32.397492,11.2866115 C32.6796234,11.7444603 33.2438862,12.3746865 33.6958356,12.6036109 C34.1468865,12.8325353 34.3167044,12.6036109 34.034573,12.1457621 C33.8090476,11.6870012 33.3004922,11.1716933 32.7928354,10.9427689 Z M13.8280334,11.1142342 C14.0535589,10.6563854 13.8280334,10.5414672 13.3769826,10.8278507 C12.8684272,11.0567751 12.3607704,11.572083 12.1352449,12.0308439 C11.8531135,12.5461518 11.965427,12.7185291 12.4730838,12.4886927 C12.9250332,12.2023091 13.545902,11.6295421 13.8280334,11.1142342 Z M33.4137042,10.5414672 C33.1315728,10.2550836 33.0183608,10.3125428 33.3004922,10.5989263 C33.5260177,10.9427689 34.034573,11.4006177 34.3167044,11.6870012 C34.5988358,11.9159256 34.6545433,11.8584665 34.3733104,11.5155359 C34.091179,11.1716933 33.6958356,10.7703916 33.4137042,10.5414672 Z M12.8684272,10.484008 C13.1505586,10.1401654 13.0382452,10.1401654 12.6995078,10.4265489 C12.3607704,10.6563854 12.022033,11.1142342 11.7399016,11.4006177 C11.5143761,11.7444603 11.5143761,11.8019194 11.8531135,11.572083 C12.1352449,11.2866115 12.5862958,10.8278507 12.8684272,10.484008 Z M30.2527541,9.79632278 C29.6884913,9.56739838 29.2931479,9.68231661 29.4629659,10.1976245 C29.6884913,10.6563854 30.4216736,11.2866115 31.0991484,11.4580768 C31.7200172,11.6870012 32.0021486,11.4006177 31.7766232,10.9427689 C31.4944918,10.484008 30.9293304,9.96870012 30.2527541,9.79632278 Z M16.8191656,10.0827063 C16.9889835,9.62485749 16.5936401,9.45248015 15.9727713,9.62485749 C15.352801,9.8537819 14.7310337,10.3690898 14.4489023,10.8278507 C14.2233768,11.3440706 14.5055082,11.572083 15.182983,11.4006177 C15.8604578,11.1716933 16.6502461,10.5989263 16.8191656,10.0827063 Z M31.6634112,9.33847398 C31.2123603,9.10863752 31.0425424,9.10863752 31.2680678,9.39502104 C31.5510977,9.68231661 32.1153606,10.1976245 32.5664114,10.4265489 C32.9617548,10.7129324 33.0749668,10.5989263 32.8485429,10.3125428 C32.5664114,9.96870012 32.1153606,9.56739838 31.6634112,9.33847398 Z M26.9794906,8.82225401 C26.1888038,8.70824783 25.624541,8.87971312 25.7377529,9.39502104 C25.8500664,9.91124101 26.5841472,10.4265489 27.4871474,10.5414672 C28.2769357,10.7129324 28.7854911,10.4265489 28.6156731,9.91124101 C28.4467537,9.45248015 27.7692788,8.99463135 26.9794906,8.82225401 Z M20.6009845,9.45248015 C20.6575904,8.93717223 20.0933276,8.70824783 19.3601453,8.87971312 C18.5694586,8.99463135 17.8919837,9.39502104 17.7230643,9.91124101 C17.5532463,10.3690898 18.0618017,10.6563854 18.908196,10.5414672 C19.7545902,10.4265489 20.4877725,9.91124101 20.6009845,9.45248015 Z M14.9574576,9.28101486 C15.182983,8.99463135 14.9574576,8.99463135 14.5055082,9.16609664 C14.0535589,9.45248015 13.602508,9.8537819 13.3203766,10.1401654 C13.0948512,10.484008 13.2071646,10.5989263 13.659114,10.3125428 C14.1101649,10.0827063 14.7310337,9.56739838 14.9574576,9.28101486 Z M23.1410657,8.53587049 C22.3512774,8.53587049 21.6738026,8.87971312 21.6171967,9.33847398 C21.6171967,9.8537819 22.2380655,10.2550836 23.1976717,10.2550836 C24.1006719,10.2550836 24.7781467,9.8537819 24.7215407,9.39502104 C24.6649348,8.87971312 23.98746,8.53587049 23.1410657,8.53587049 Z M29.3497539,8.24948697 C28.7854911,8.02056257 28.4467537,8.07710963 28.6156731,8.3644052 C28.8411985,8.5933296 29.4629659,9.05209046 30.0838347,9.28101486 C30.6480975,9.50993927 30.9293304,9.39502104 30.6480975,9.10863752 C30.4216736,8.82225401 29.8574107,8.47841138 29.3497539,8.24948697 Z M17.6664583,8.30694609 C17.8353778,8.02056257 17.4966404,7.96310346 16.8757715,8.19202786 C16.3115087,8.42095226 15.7472459,8.76479489 15.5217204,9.05209046 C15.296195,9.33847398 15.5783264,9.39502104 16.1982967,9.22355575 C16.8191656,8.99463135 17.4966404,8.5933296 17.6664583,8.30694609 Z M30.5914915,8.30694609 C30.1961481,8.13456875 30.0272287,8.07710963 30.1961481,8.24948697 C30.4216736,8.42095226 30.9293304,8.76479489 31.3812798,8.99463135 C31.7766232,9.22355575 31.8889366,9.22355575 31.6634112,9.05209046 C31.4378858,8.87971312 30.9859364,8.5933296 30.5914915,8.30694609 Z M15.9727713,8.19202786 C16.1982967,8.02056257 15.9727713,8.07710963 15.5783264,8.24948697 C15.182983,8.47841138 14.7310337,8.76479489 14.5055082,8.99463135 C14.2799828,9.16609664 14.3922963,9.16609664 14.7876397,8.93717223 C15.239589,8.70824783 15.8038519,8.3644052 15.9727713,8.19202786 Z M26.4152278,7.44779554 C25.7377529,7.33287731 25.2858036,7.39033642 25.3424096,7.67671994 C25.3990155,7.96310346 26.0764904,8.30694609 26.8096726,8.42095226 C27.5437534,8.5933296 27.9381983,8.42095226 27.8258848,8.13456875 C27.6560669,7.90564434 27.091804,7.61926083 26.4152278,7.44779554 Z M20.9397219,7.67671994 C21.0529338,7.44779554 20.5443785,7.33287731 19.8669037,7.39033642 C19.1903274,7.56271376 18.6260645,7.79163817 18.4562466,8.07710963 C18.2873271,8.3644052 18.738378,8.53587049 19.4724588,8.42095226 C20.2056411,8.24948697 20.8831159,7.96310346 20.9397219,7.67671994 Z M28.3901477,7.44779554 C27.9381983,7.2754182 27.6560669,7.21887113 27.7692788,7.39033642 C27.9381983,7.50525465 28.5590671,7.79163817 29.0676225,7.96310346 C29.6318853,8.19202786 29.8008048,8.19202786 29.6318853,8.02056257 C29.4629659,7.84818523 28.9544105,7.61926083 28.3901477,7.44779554 Z M23.1410657,7.16141202 C22.4635909,7.16141202 21.8993281,7.33287731 21.8427221,7.61926083 C21.8427221,7.90564434 22.4069849,8.13456875 23.1976717,8.13456875 C23.98746,8.13456875 24.5517228,7.96310346 24.4951168,7.67671994 C24.3828033,7.39033642 23.874248,7.21887113 23.1410657,7.16141202 Z M18.4562466,7.33287731 C18.5694586,7.16141202 18.2873271,7.21887113 17.8353778,7.33287731 C17.3277209,7.50525465 16.8191656,7.79163817 16.6502461,7.90564434 C16.4247207,8.07710963 16.6502461,8.07710963 17.2145089,7.90564434 C17.7230643,7.73417905 18.3439331,7.44779554 18.4562466,7.33287731 Z M27.6560669,7.04649379 C27.205016,6.8750285 26.9794906,6.81756939 27.091804,6.93248761 C27.2607235,6.98903468 27.7126729,7.16141202 28.2203297,7.33287731 C28.6722791,7.50525465 28.8978045,7.56271376 28.7288851,7.44779554 C28.6156731,7.33287731 28.1646222,7.16141202 27.6560669,7.04649379 Z M19.0771154,6.81756939 C19.1903274,6.76011028 18.908196,6.81756939 18.3996406,6.93248761 C17.9485897,7.04649379 17.5532463,7.21887113 17.3843269,7.33287731 C17.2145089,7.39033642 17.4409329,7.39033642 17.9485897,7.21887113 C18.3996406,7.04649379 18.9648019,6.8750285 19.0771154,6.81756939 Z M25.9066724,6.81756939 C25.3424096,6.76011028 24.9470662,6.76011028 25.0036722,6.8750285 C25.0602781,6.98903468 25.624541,7.16141202 26.2454098,7.2754182 C26.9228846,7.39033642 27.2607235,7.33287731 27.14841,7.21887113 C26.9794906,7.04649379 26.4709352,6.8750285 25.9066724,6.81756939 Z M21.2784593,6.81756939 C21.3350652,6.64519205 20.8831159,6.64519205 20.375459,6.76011028 C19.8111962,6.8750285 19.2469334,7.04649379 19.1337214,7.16141202 C19.0214079,7.33287731 19.4158528,7.33287731 20.0367216,7.21887113 C20.6575904,7.10395291 21.2218533,6.93248761 21.2784593,6.81756939 Z M23.1410657,6.47372676 C22.5201969,6.47372676 22.069146,6.58864498 22.01254,6.70265116 C21.9559341,6.81756939 22.4635909,6.93248761 23.1410657,6.93248761 C23.8185405,6.93248761 24.3261974,6.8750285 24.2695914,6.76011028 C24.2129854,6.64519205 23.7053285,6.53118587 23.1410657,6.47372676 Z M25.4556215,6.53118587 C25.0036722,6.41626765 24.6083288,6.41626765 24.6649348,6.47372676 C24.7781467,6.53118587 25.2291976,6.64519205 25.7934604,6.70265116 C26.3020158,6.81756939 26.6407532,6.81756939 26.5275412,6.76011028 C26.4709352,6.70265116 25.9632784,6.58864498 25.4556215,6.53118587 Z M21.5039847,6.41626765 C21.5605907,6.35880853 21.1652473,6.35880853 20.6575904,6.47372676 C20.2056411,6.53118587 19.7545902,6.64519205 19.6422767,6.70265116 C19.5856708,6.76011028 19.8669037,6.76011028 20.432065,6.64519205 C20.9963278,6.58864498 21.4482772,6.47372676 21.5039847,6.41626765 Z M23.1410657,6.30134942 C22.5768029,6.30134942 22.2380655,6.30134942 22.1814595,6.35880853 C22.1814595,6.35880853 22.5768029,6.41626765 23.1410657,6.41626765 C23.7053285,6.41626765 24.1572779,6.41626765 24.1006719,6.35880853 C24.0440659,6.35880853 23.6487226,6.30134942 23.1410657,6.30134942 Z" id="path-1"></path></defs><g id="components/logotypes/CyfrowyPolsat" stroke="none" stroke-width="1" fill="none" fill-rule="evenodd"><g id="style/Color/Main/Grey02" transform="translate(14.000000, 13.000000)"><mask id="mask-2" fill="white"><use xlink:href="#path-1"></use></mask><use id="Mask" fill="#000000" xlink:href="#path-1"></use><g id="style/Color/Main/Black" mask="url(#mask-2)" fill="#000000"><g transform="translate(-14.000000, -13.000000)" id="colorprimary"><rect x="0" y="0" width="140" height="70"></rect></g></g></g></g></svg> 