<?xml version="1.0" encoding="UTF-8"?> <svg xmlns="http://www.w3.org/2000/svg" xmlns:xlink="http://www.w3.org/1999/xlink" width="140px" height="70px" viewBox="0 0 140 70"><!-- Generator: Sketch 60.1 (88133) - https://sketch.com --><title>components/logotypes/DeutscheBank</title><desc>Created with Sketch.</desc><defs><path d="M82.8706,47.4501 C84.8346,47.4311 86.5396,48.2561 86.5396,49.8981 L86.5396,49.8981 L86.5456,55.7241 L84.7046,55.7241 L84.6306,54.5531 C84.1466,55.6011 82.9076,56.0961 81.8226,55.9841 C80.3036,55.9361 79.2686,54.9991 79.2686,53.4551 C79.2686,52.2471 79.9016,51.4921 80.7196,51.0891 C81.8476,50.5421 83.3656,50.6241 84.4946,50.5621 C84.6056,49.2101 84.0916,48.6601 82.9446,48.6601 C82.1876,48.6711 81.6186,49.1291 81.6616,49.9921 L81.6616,49.9921 L79.6036,49.9921 C79.6346,48.1081 80.9986,47.4811 82.8706,47.4501 Z M21.4366,47.6851 L21.4366,52.6141 C21.4246,53.7791 21.8526,54.4161 22.9056,54.4351 C23.8546,54.4351 24.6226,53.8711 24.6226,52.3091 L24.6226,52.3091 L24.6226,47.6851 L26.7426,47.6851 L26.7426,55.7241 L24.6356,55.7241 L24.6216,54.4045 L24.5578896,54.5741348 C24.1826715,55.4553831 23.3316674,55.9267768 22.2808937,55.9791856 L22.0816,55.9841 C20.6626,55.9841 19.3106,55.0801 19.2996,52.9221 L19.2996,52.9221 L19.2996,47.6851 L21.4366,47.6851 Z M37.2329,47.4186 C38.7009,47.4186 40.2999,47.9466 40.2079,49.8866 L40.2079,49.8866 L38.2239,49.8866 C38.2239,49.5946 38.1619,49.2726 37.9269,49.0796 C37.4929,48.6776 36.1669,48.6286 35.7449,49.2916 C35.2799,50.4196 36.7239,50.5006 38.3169,50.9526 C39.3209,51.1816 39.9959,51.6146 40.3129,52.2596 C40.6659,52.9926 40.6299,53.8506 40.2189,54.5536 C39.4879,55.7126 37.9079,55.9976 36.6929,55.9736 C34.9579,55.8536 33.4079,55.3896 33.4829,53.2326 L33.4829,53.2326 L35.5889,53.2326 C35.5769,54.1696 36.1349,54.5106 36.9409,54.5416 C37.7149,54.5416 38.4839,54.2676 38.4839,53.5246 C38.4839,52.9296 37.9449,52.6686 37.2519,52.5086 C36.4639,52.3276 35.8869,52.2476 35.0069,51.8826 C34.2949,51.5216 33.5939,50.9326 33.5939,49.8066 C33.5939,48.8696 34.2949,48.1566 35.2059,47.7726 C35.8509,47.5206 36.5399,47.4016 37.2329,47.4186 Z M45.0055,47.3768 C46.6915,47.3768 48.4385,48.1818 48.4385,50.3868 L48.4385,50.3868 L46.3695,50.3698 C46.3695,49.3408 45.8305,48.7098 44.8075,48.7578 C44.5355,48.7858 44.2715,48.8678 44.0325,48.9998 C43.3945,49.3838 43.2015,50.4628 43.2015,51.5468 C43.2015,52.6948 43.4615,53.8028 43.9455,54.2068 C44.2685,54.5278 44.8375,54.6218 45.3335,54.5278 C46.1585,54.3848 46.4065,53.5488 46.4185,52.8238 L46.4185,52.8238 L48.4445,52.8048 C48.4695,55.1108 46.6605,55.9788 44.7755,55.9488 C42.2535,55.8478 41.088481,54.1438 41.088481,51.6148 C41.0825,49.0548 42.4955,47.3768 45.0055,47.3768 Z M61.6012,47.3951 C64.5332,47.3951 65.5432,49.7491 65.3762,52.1671 L65.3762,52.1671 L59.7362,52.1791 C59.7552,53.4991 60.2002,54.5781 61.6142,54.5781 C62.4502,54.5781 63.1632,53.9761 63.1632,53.0651 L63.1632,53.0651 L65.2092,53.0651 C65.0842,55.3341 63.3182,55.9661 61.3232,55.9491 C58.8192,55.8681 57.6402,54.0511 57.6402,51.6151 C57.6402,49.5701 58.6572,47.3951 61.6012,47.3951 Z M14.517,47.3951 C17.467,47.3951 18.471,49.7491 18.297,52.1671 L18.297,52.1671 L12.664,52.1791 C12.676,53.4991 13.128,54.5781 14.535,54.5781 C15.372,54.5781 16.085,53.9761 16.085,53.0651 L16.085,53.0651 L18.13,53.0651 C18.006,55.3341 16.24,55.9661 14.244,55.9491 C11.734,55.8731 10.556,54.0511 10.556,51.6151 C10.556,49.5701 11.579,47.3951 14.517,47.3951 Z M30.9499,45.319 L30.9499,47.717 L32.9149,47.717 L32.9149,49.279 L30.9499,49.279 L30.9499,53.165 C30.9499,53.953 31.2169,54.404 31.9849,54.435 C32.2769,54.435 32.5429,54.466 32.9269,54.355 L32.9269,54.355 L32.9269,55.744 C31.9229,55.892 30.7579,56.164 29.8029,55.632 C29.0789,55.228 28.8919,54.516 28.8919,53.394 L28.8919,53.394 L28.8919,49.285 L27.2439,49.285 L27.2439,47.723 L28.8919,47.723 L28.8919,46.447 L30.9499,45.319 Z M92.6426,47.4741 C93.9256,47.4741 95.2396,48.2491 95.2396,50.1831 L95.2396,50.1831 L95.2396,55.7311 L93.1016,55.7311 L93.1016,50.7911 C93.1196,49.7491 92.6236,48.9751 91.6506,48.9751 C90.6906,48.9751 89.8966,49.6191 89.8966,51.1021 L89.8966,51.1021 L89.8966,55.7241 L87.7776,55.7241 L87.7776,47.6851 L89.9156,47.6851 L89.9156,48.9751 C90.4736,47.9281 91.4896,47.4741 92.6426,47.4741 Z M51.5688,44.0901 L51.5688,48.9561 C52.0348,47.9991 53.0288,47.4171 54.0908,47.4741 C55.5098,47.4741 56.8608,48.5911 56.8608,50.1831 L56.8608,50.1831 L56.8608,55.7311 L54.7548,55.7311 L54.7548,50.7911 C54.7548,49.7011 54.3068,48.9751 53.3038,48.9751 C52.3618,48.9751 51.5558,49.6191 51.5558,51.1021 L51.5558,51.1021 L51.5558,55.7241 L49.4358,55.7241 L49.4358,44.0901 L51.5688,44.0901 Z M98.61,44.0905 L98.61,55.7245 L96.503,55.7245 L96.503,44.0905 L98.61,44.0905 Z M104.1203,47.6846 L101.0713,51.0386 L104.6663,55.7246 L101.9213,55.7246 L98.6733,51.1196 L101.6103,47.6846 L104.1203,47.6846 Z M73.7906,44.1085 C75.7116,44.1085 77.7206,44.7425 77.8006,46.9805 C77.8446,48.3975 76.9206,49.2975 75.7556,49.7005 C76.6546,49.9415 77.3796,50.2145 77.8816,51.0825 C78.3086,51.9115 78.3486,52.8875 77.9866,53.7485 C77.6506,54.5235 76.9986,55.1195 76.1956,55.3835 C75.4646,55.6255 74.5406,55.7245 73.5306,55.7245 L73.5306,55.7245 L69.4896,55.7245 L69.4896,44.1085 Z M3.6876,44.0786 C7.5856,44.0786 9.6746,46.0566 9.6746,49.8916 C9.6746,53.6916 7.9386,55.7236 3.6816,55.7236 L3.6816,55.7236 L-0.0004,55.7236 L-0.0004,44.0786 Z M84.5136,51.8071 C83.4466,51.8071 81.3826,51.6341 81.3706,53.3191 C81.3706,54.0951 81.8356,54.4971 82.6226,54.5591 C84.4566,54.5351 84.5566,53.1461 84.5136,51.8071 Z M71.6096,50.5865 L71.6096,54.0015 L73.9336,54.0015 C75.4766,54.0015 75.9726,53.2155 75.9726,52.2305 C75.9726,51.4725 75.4516,50.5865 74.0076,50.6055 L74.0076,50.6055 L71.6096,50.5865 Z M3.4206,45.8506 L2.2126,45.8506 L2.2126,53.9526 L3.3906,53.9526 C6.4396,54.0206 7.4116,52.4706 7.4116,49.9106 C7.4116,47.0916 6.0056,45.8506 3.4206,45.8506 L3.4206,45.8506 Z M14.461,48.7651 C13.296,48.7651 12.806,49.7491 12.744,50.8091 L12.744,50.8091 L16.085,50.8091 C16.128,49.6381 15.577,48.7651 14.461,48.7651 Z M61.5332,48.7651 C60.3742,48.7651 59.8792,49.7491 59.8162,50.8091 L59.8162,50.8091 L63.1572,50.8091 C63.2072,49.6381 62.6492,48.7651 61.5332,48.7651 Z M73.7976,45.8515 L71.6156,45.8515 L71.6156,48.8575 L73.8286,48.8575 C74.9866,48.8575 75.5946,48.3605 75.5946,47.3765 C75.5946,46.4585 74.8936,45.8515 73.7976,45.8515 L73.7976,45.8515 Z M67.616,0.0005 L67.616,30.5665 L37.049,30.5665 L37.049,0.0005 L67.616,0.0005 Z M63.371,4.2455 L41.295,4.2455 L41.295,26.3175 L63.371,26.3175 L63.371,4.2455 Z M60.9914,7.2607 L49.0604,23.2627 L43.6704,23.2627 L55.5584,7.2607 L60.9914,7.2607 Z" id="path-1"></path></defs><g id="components/logotypes/DeutscheBank" stroke="none" stroke-width="1" fill="none" fill-rule="evenodd"><g id="style/Color/Main/Grey02" transform="translate(17.000000, 4.000000)"><mask id="mask-2" fill="white"><use xlink:href="#path-1"></use></mask><use id="Mask" fill="#275498" xlink:href="#path-1"></use><g id="style/Color/Main/Black" mask="url(#mask-2)" fill="#000000"><g transform="translate(-17.000000, -4.000000)" id="colorprimary"><rect x="0" y="0" width="140" height="70"></rect></g></g></g></g></svg> 