<?xml version="1.0" encoding="UTF-8"?> <svg xmlns="http://www.w3.org/2000/svg" xmlns:xlink="http://www.w3.org/1999/xlink" width="140px" height="70px" viewBox="0 0 140 70"><!-- Generator: Sketch 60.1 (88133) - https://sketch.com --><title>components/logotypes/GetInBank</title><desc>Created with Sketch.</desc><defs><path d="M52.7469,0.0004 L75.7329,16.8224 L52.7469,33.6444 L52.7469,27.0204 L-0.0001,27.0204 L-0.0001,6.6254 L52.7469,6.6254 L52.7469,0.0004 Z M16.4929,11.2584 C15.6839,11.2584 14.9509,11.4034 14.2949,11.6914 C13.6359,11.9834 13.0769,12.3754 12.6109,12.8804 C12.1489,13.3864 11.7919,13.9744 11.5449,14.6484 C11.2929,15.3184 11.1719,16.0464 11.1719,16.8224 C11.1719,17.6014 11.2929,18.3264 11.5449,18.9994 C11.7919,19.6734 12.1489,20.2604 12.6109,20.7634 C13.0769,21.2674 13.6359,21.6654 14.2949,21.9514 C14.9509,22.2424 15.6839,22.3874 16.4929,22.3874 C16.7389,22.3874 16.9979,22.3644 17.2689,22.3134 C17.5389,22.2624 17.8049,22.1834 18.0689,22.0724 C18.3319,21.9644 18.5879,21.8224 18.8309,21.6474 C19.0759,21.4734 19.2869,21.2544 19.4649,20.9964 L19.4649,20.9964 L19.6299,22.1624 L21.4239,22.1624 L21.4239,16.3144 L16.9399,16.3144 L16.9399,18.3794 L18.8829,18.3794 C18.8029,18.8664 18.5479,19.2574 18.1109,19.5514 C17.6819,19.8454 17.1179,19.9924 16.4329,19.9924 C15.9839,19.9924 15.6029,19.9054 15.2909,19.7254 C14.9739,19.5454 14.7169,19.3034 14.5169,19.0074 C14.3159,18.7084 14.1749,18.3674 14.0859,17.9894 C13.9959,17.6124 13.9509,17.2224 13.9509,16.8224 C13.9509,16.4224 13.9959,16.0364 14.0859,15.6564 C14.1749,15.2774 14.3159,14.9374 14.5169,14.6374 C14.7169,14.3414 14.9739,14.1014 15.2909,13.9214 C15.6029,13.7424 15.9839,13.6524 16.4329,13.6524 C16.9979,13.6524 17.4799,13.7814 17.8739,14.0424 C18.2679,14.2994 18.4909,14.6584 18.5409,15.1174 L18.5409,15.1174 L21.3179,15.1174 C21.2589,14.4494 21.0769,13.8714 20.7729,13.3844 C20.4689,12.8934 20.0939,12.4914 19.6469,12.1764 C19.1979,11.8644 18.6949,11.6324 18.1429,11.4804 C17.5899,11.3334 17.0389,11.2584 16.4929,11.2584 Z M94.629,11.4825 L98.621,22.1665 L95.719,22.1665 L95.062,20.2505 L91.338,20.2505 L90.669,22.1665 L87.81,22.1665 L91.803,11.4825 L94.629,11.4825 Z M112.5411,11.4825 L112.5411,15.5825 L116.0531,11.4825 L119.5051,11.4825 L115.5591,15.6875 L119.9991,22.1665 L116.5451,22.1665 L113.6761,17.6765 L112.5411,18.8705 L112.5411,22.1665 L109.7601,22.1665 L109.7601,11.4825 L112.5411,11.4825 Z M83.7181,11.482 C84.1781,11.475 84.6371,11.506 85.0951,11.571 C85.5551,11.643 85.9671,11.78 86.3361,11.978 C86.7071,12.177 87.0031,12.453 87.2341,12.798 C87.4621,13.15 87.5781,13.604 87.5781,14.16 C87.5781,14.638 87.4481,15.066 87.1901,15.44 C86.9271,15.814 86.5901,16.105 86.1721,16.314 C86.7411,16.485 87.1901,16.795 87.5171,17.252 C87.8471,17.702 88.0121,18.233 88.0121,18.845 C88.0121,19.482 87.9031,20.011 87.6831,20.436 C87.4621,20.86 87.1671,21.2 86.7911,21.453 C86.4181,21.707 85.9781,21.889 85.4681,22.001 C84.9581,22.108 84.4201,22.166 83.8531,22.166 L83.8531,22.166 L78.7261,22.166 L78.7261,11.482 Z M101.9735,11.4834 L105.6805,18.0664 L105.7115,18.0664 L105.7115,11.4834 L108.3275,11.4834 L108.3275,22.1664 L105.4705,22.1664 L101.7645,15.5074 L101.7345,15.5074 L101.7345,22.1664 L99.1185,22.1664 L99.1185,11.4834 L101.9735,11.4834 Z M53.8809,11.4804 L51.0249,11.4804 L51.0249,22.1634 L53.6389,22.1634 L53.6389,15.5074 L53.6699,15.5074 L57.3789,22.1634 L60.2339,22.1634 L60.2339,11.4804 L57.6169,11.4804 L57.6169,18.0674 L57.5869,18.0674 L53.8809,11.4804 Z M41.9069,11.4804 L32.7569,11.4804 L32.7569,13.8744 L35.9419,13.8744 L35.9419,22.1634 L38.7219,22.1634 L38.7219,13.8744 L41.9069,13.8744 L41.9069,11.4804 Z M31.4979,11.4804 L22.9899,11.4804 L22.9899,22.1634 L31.6449,22.1634 L31.6449,19.7694 L25.7689,19.7694 L25.7689,17.7354 L31.0009,17.7354 L31.0009,15.5824 L25.7689,15.5824 L25.7689,13.7094 L31.4979,13.7094 L31.4979,11.4804 Z M49.1289,11.4804 L46.3459,11.4804 L46.3459,22.1624 L49.1289,22.1624 L49.1289,11.4804 Z M83.7361,17.483 L81.5041,17.483 L81.5041,19.934 L83.7361,19.934 C84.1731,19.934 84.5321,19.846 84.8111,19.665 C85.0901,19.487 85.2291,19.176 85.2291,18.739 C85.2291,18.269 85.0851,17.942 84.7941,17.76 C84.5061,17.573 84.1541,17.483 83.7361,17.483 L83.7361,17.483 Z M93.223,14.4465 L93.196,14.4465 L91.981,18.1875 L94.404,18.1875 L93.223,14.4465 Z M83.6591,13.64 L81.5041,13.64 L81.5041,15.687 L83.6591,15.687 C83.7791,15.687 83.9061,15.667 84.0411,15.633 C84.1761,15.597 84.2931,15.543 84.4071,15.461 C84.5141,15.383 84.6091,15.277 84.6851,15.149 C84.7591,15.017 84.7941,14.86 84.7941,14.671 C84.7941,14.279 84.6781,14.011 84.4441,13.861 C84.2101,13.712 83.9481,13.64 83.6591,13.64 L83.6591,13.64 Z" id="path-1"></path></defs><g id="components/logotypes/GetInBank" stroke="none" stroke-width="1" fill="none" fill-rule="evenodd"><g id="style/Color/Main/Grey02" transform="translate(10.000000, 19.000000)"><mask id="mask-2" fill="white"><use xlink:href="#path-1"></use></mask><use id="Mask" fill="#00B140" xlink:href="#path-1"></use><g id="style/Color/Main/Black" mask="url(#mask-2)" fill="#000000"><g transform="translate(-10.000000, -19.000000)" id="colorprimary"><rect x="0" y="0" width="140" height="70"></rect></g></g></g></g></svg> 