<?xml version="1.0" encoding="UTF-8"?> <svg xmlns="http://www.w3.org/2000/svg" xmlns:xlink="http://www.w3.org/1999/xlink" width="140px" height="70px" viewBox="0 0 140 70"><!-- Generator: Sketch 60.1 (88133) - https://sketch.com --><title>components/logotypes/Orange</title><desc>Created with Sketch.</desc><defs><path d="M64.0001,0.0002 L64.0001,64.0002 L0.0001,64.0002 L0.0001,0.0002 L64.0001,0.0002 Z M42.4221,49.475199 C40.5311,49.4802 38.8441,51.1482 38.8441,54.1292 C38.8441,57.1372 40.4771,58.5802 42.5561,58.5802 C43.9161,58.5802 44.4821,57.9482 44.8551,57.2812 L44.8551,57.2812 L44.8871,57.3122 L44.8871,58.3492 C44.8871,59.7412 44.3021,60.3222 43.0871,60.3222 C41.7761,60.3222 41.5071,59.8862 41.4101,59.4482 L41.4101,59.4482 L39.0981,59.8212 C39.4211,61.3502 41.0461,62.0522 42.7991,62.0402 C47.0401,62.0172 47.1571,59.5602 47.1571,58.0752 L47.1571,58.0752 L47.1571,49.6412 L45.1771,49.6412 L44.9921,50.6582 C44.8031,50.2212 44.1341,49.4742 42.4221,49.475199 Z M7.8771,49.4392 C5.5591,49.4392 3.4691,50.9142 3.4691,54.1382 C3.4691,57.3642 5.5591,58.8392 7.8771,58.8392 C10.1941,58.8392 12.2821,57.3642 12.2821,54.1382 C12.2821,50.9142 10.1941,49.4392 7.8771,49.4392 Z M52.7241,49.4722 C50.1551,49.4722 48.5711,51.1582 48.5711,54.1222 C48.5711,57.0522 50.1371,58.7422 52.7621,58.7422 C54.5921,58.7422 55.9531,58.0812 56.7071,56.8162 L56.7071,56.8162 L54.9921,55.8662 C54.4421,56.6472 53.8541,57.0052 52.9701,57.0052 C51.5911,57.0052 50.8891,56.1552 50.8721,54.4652 L50.8721,54.4652 L56.8031,54.4652 C56.8031,54.3122 56.8221,54.1612 56.8221,54.0052 C56.8221,51.1102 55.2931,49.4722 52.7241,49.4722 Z M23.7651,49.4852 C22.0661,49.4852 20.8011,50.0662 19.9711,51.2282 L19.9711,51.2282 L21.5531,52.1282 C22.0841,51.4642 22.8201,51.1022 23.7281,51.1022 C24.6351,51.1022 25.1241,51.4822 25.1241,52.1282 L25.1241,52.1282 L25.1241,52.6262 C21.3481,53.0512 19.5151,54.1042 19.5151,56.1002 C19.5151,57.5842 20.5001,58.6902 22.1611,58.6902 C23.2181,58.6902 24.1991,58.4012 25.1061,57.8052 L25.1061,57.8052 L25.3141,58.5852 L27.3941,58.5852 C27.3901,58.5692 27.3941,52.1282 27.3941,52.1282 C27.3941,50.4912 26.0881,49.4852 23.7651,49.4852 Z M18.6733963,49.4916444 L18.5741,49.4912 C17.5931,49.4912 16.5451,50.1552 16.1201,50.7202 L16.1201,50.7202 L16.1201,49.6742 L13.8891,49.6742 L13.8891,58.5802 L16.2691,58.5802 L16.2691,52.6552 C16.6291,51.8642 17.7451,51.7052 18.7641,51.7052 L18.7641,51.7052 L18.8791,51.7052 L18.8791,49.5032 C18.7821,49.4912 18.6681,49.4912 18.5741,49.4912 Z M34.4581,49.4722 C33.3651,49.4722 32.4951,49.8982 31.4011,50.6992 L31.4011,50.6992 L31.1861,49.6442 L29.2451,49.9102 L29.2451,58.5712 L31.5661,58.5712 L31.5661,52.1842 C32.3651,51.5122 33.0641,51.1972 33.7621,51.1972 C34.6101,51.1972 34.8931,51.6882 34.8931,52.7782 L34.8931,52.7782 L34.8931,58.5712 L37.2381,58.5712 L37.2381,52.3722 C37.2381,50.4442 36.2911,49.4722 34.4581,49.4722 Z M25.0517,54.0397 L25.0517,56.1477 C24.3327,56.7837 23.6157,57.0877 22.8797,57.0877 C22.1987,57.0877 21.8237,56.5277 21.8237,55.9277 C21.8237,54.8747 22.8617,54.3097 25.0517,54.0397 L25.0517,54.0397 Z M7.8769,51.4199 C9.6289,51.4199 9.9479,52.9989 9.9479,54.1389 C9.9479,55.2789 9.6289,56.8599 7.8769,56.8599 C6.1239,56.8599 5.8049,55.2789 5.8049,54.1389 C5.8049,52.9989 6.1239,51.4199 7.8769,51.4199 Z M42.9595,51.1396 C44.2245,51.1396 44.9035,52.2676 44.9035,53.6646 C44.9035,54.8426 44.7515,56.6546 42.9755,56.6656 C41.2545,56.6806 41.1775,54.8576 41.1775,53.7606 C41.1775,51.7546 42.1185,51.1396 42.9595,51.1396 Z M52.7246,51.0537 C53.8366,51.0537 54.5206,51.7547 54.5206,52.9447 L54.5206,52.9447 L50.9106,52.9447 C51.0036,51.7407 51.6656,51.0537 52.7246,51.0537 Z M59.0921,46.2942 L58.3411,46.2942 L58.3411,49.2402 L58.8271,49.2402 L58.8271,46.7812 L58.8401,46.7812 L59.8071,49.2402 L60.1171,49.2402 L61.0781,46.7812 L61.0921,46.7812 L61.0921,49.2402 L61.5781,49.2402 L61.5781,46.2942 L60.8351,46.2942 L59.9711,48.5272 L59.0921,46.2942 Z M57.7441,46.2942 L55.4141,46.2942 L55.4141,46.6842 L56.3341,46.6842 L56.3341,49.2402 L56.8211,49.2402 L56.8211,46.6842 L57.7441,46.6842 L57.7441,46.2942 Z" id="path-1"></path></defs><g id="components/logotypes/Orange" stroke="none" stroke-width="1" fill="none" fill-rule="evenodd"><g id="style/Color/Main/Grey02" transform="translate(38.000000, 3.000000)"><mask id="mask-2" fill="white"><use xlink:href="#path-1"></use></mask><use id="Mask" fill="#000000" xlink:href="#path-1"></use><g id="style/Color/Main/Black" mask="url(#mask-2)" fill="#000000"><g transform="translate(-38.000000, -3.000000)" id="colorprimary"><rect x="0" y="0" width="140" height="70"></rect></g></g></g></g></svg> 