<?xml version="1.0" encoding="UTF-8"?> <svg xmlns="http://www.w3.org/2000/svg" xmlns:xlink="http://www.w3.org/1999/xlink" width="140px" height="70px" viewBox="0 0 140 70"><!-- Generator: Sketch 60.1 (88133) - https://sketch.com --><title>components/logotypes/pracujpl</title><desc>Created with Sketch.</desc><defs><path d="M87.906,0.0002 C93.746,0.0002 100,5.0272 100,12.5112 C100,19.4092 94.574,25.0202 87.906,25.0202 L87.906,25.0202 L12.12,25.0202 C5.436,25.0202 0,19.4092 0,12.5112 C0,5.0272 6.267,0.0002 12.12,0.0002 L12.12,0.0002 Z M66.536,7.7162 L64.721,7.7162 L64.721,18.2472 C64.721,19.2292 64.486,19.5622 63.698,19.5622 C63.441,19.5622 63.207,19.5622 62.951,19.5252 L62.951,19.5252 L62.951,20.8762 C63.272,20.9322 63.592,20.9512 63.889,20.9512 C65.49,20.9512 66.536,20.2092 66.536,18.5072 L66.536,18.5072 L66.536,7.7162 Z M80.722,7.4942 C79.208,7.4942 77.8,7.9572 77.202,9.0122 L77.202,9.0122 L77.159,9.0122 L77.159,7.7162 L75.346,7.7162 L75.346,20.9502 L77.16,20.9502 L77.16,16.0082 L77.203,16.0082 C78.013,17.1372 79.635,17.5072 80.765,17.5072 C84.135,17.5072 85.801,15.2312 85.801,12.5292 C85.801,9.8262 84.114,7.4942 80.722,7.4942 Z M15.521,7.4942 C14.007,7.4942 12.599,7.9572 12.002,9.0122 L12.002,9.0122 L11.959,9.0122 L11.959,7.7162 L10.145,7.7162 L10.145,20.9502 L11.959,20.9502 L11.959,16.0082 L12.001,16.0082 C12.812,17.1372 14.433,17.5072 15.563,17.5072 C18.934,17.5072 20.598,15.2312 20.598,12.5292 C20.598,9.8262 18.913,7.4942 15.521,7.4942 Z M54.566,7.7162 L52.753,7.7162 L52.753,14.0092 C52.753,16.0652 53.648,17.5082 56.549,17.5082 C58.13,17.5082 59.367,16.9522 60.133,15.7682 L60.133,15.7682 L60.176,15.7682 L60.176,17.2852 L61.882,17.2852 L61.883,17.2842 L61.883,7.7162 L60.07,7.7162 L60.07,13.1212 C60.07,14.8422 59.004,16.1192 56.806,16.1192 C55.419,16.1192 54.566,15.3602 54.566,14.1952 L54.566,14.1952 L54.566,7.7162 Z M34.34,7.4942 C31.886,7.4942 29.774,8.3272 29.667,10.6962 L29.667,10.6962 L31.48,10.6962 C31.566,9.2902 32.697,8.8822 34.233,8.8822 C35.385,8.8822 36.686,9.1052 36.686,10.4752 C36.686,11.6592 34.98,11.5472 32.974,11.8812 C31.096,12.1952 29.24,12.6582 29.24,14.8232 C29.24,16.7302 30.884,17.5072 32.888,17.5072 C34.425,17.5072 35.769,17.0452 36.771,16.0262 C36.771,17.0642 37.368,17.5082 38.307,17.5082 C38.884,17.5082 39.289,17.4142 39.609,17.2482 L39.609,17.2482 L39.609,16.0262 C39.374,16.1012 39.203,16.1182 39.053,16.1182 C38.479,16.1182 38.479,15.7862 38.479,15.0452 L38.479,15.0452 L38.479,10.1232 C38.479,7.8822 36.323,7.4942 34.34,7.4942 Z M45.904,7.4942 C42.405,7.4942 40.697,9.7512 40.697,12.6212 C40.697,15.4712 42.49,17.5072 45.861,17.5072 C48.634,17.5072 50.319,16.1192 50.724,13.7862 L50.724,13.7862 L48.868,13.7862 C48.634,15.2312 47.589,16.1182 45.84,16.1182 C43.536,16.1182 42.618,14.3792 42.618,12.6212 C42.618,10.6782 43.428,8.8822 46.053,8.8822 C47.546,8.8822 48.506,9.5852 48.783,10.7892 L48.783,10.7892 L50.66,10.7892 C50.405,8.5112 48.399,7.4942 45.904,7.4942 Z M89.855,4.0702 L88.041,4.0702 L88.041,17.2852 L89.855,17.2852 L89.855,4.0702 Z M72.124,15.2302 L69.757,15.2302 L69.757,17.2852 L72.124,17.2852 L72.124,15.2302 Z M28.472,7.4942 C26.509,7.4382 25.294,8.1982 24.42,9.7352 L24.42,9.7352 L24.376,9.7352 L24.376,7.7162 L22.67,7.7162 L22.67,17.2852 L24.483,17.2852 L24.483,13.0282 C24.483,10.6042 25.55,9.1592 28.472,9.1592 L28.472,9.1592 Z M36.6649,12.3434 L36.6649,13.9534 C36.6649,14.8224 35.6839,16.1184 33.2939,16.1184 C32.1849,16.1184 31.1609,15.7484 31.1609,14.7124 C31.1609,13.5464 32.1849,13.1754 33.3799,12.9904 C34.5949,12.8064 35.9599,12.7874 36.6649,12.3434 L36.6649,12.3434 Z M80.4675,8.8818 C82.8135,8.8818 83.8795,10.6218 83.8795,12.4168 C83.8795,14.2878 83.0475,16.1188 80.5735,16.1188 C78.0775,16.1188 77.0955,14.3788 77.0955,12.4918 C77.0955,10.6958 78.0335,8.8818 80.4675,8.8818 Z M15.2649,8.8818 C17.6119,8.8818 18.6779,10.6218 18.6779,12.4168 C18.6779,14.2878 17.8469,16.1188 15.3719,16.1188 C12.8749,16.1188 11.8949,14.3788 11.8949,12.4918 C11.8949,10.6958 12.8329,8.8818 15.2649,8.8818 Z M66.536,4.0702 L64.722,4.0702 L64.722,5.9952 L66.536,5.9952 L66.536,4.0702 Z" id="path-1"></path></defs><g id="components/logotypes/pracujpl" stroke="none" stroke-width="1" fill="none" fill-rule="evenodd"><g id="style/Color/Main/Grey02" transform="translate(20.000000, 22.000000)"><mask id="mask-2" fill="white"><use xlink:href="#path-1"></use></mask><use id="Mask" fill="#CC7272" xlink:href="#path-1"></use><g id="style/Color/Main/Black" mask="url(#mask-2)" fill="#000000"><g transform="translate(-20.000000, -22.000000)" id="colorprimary"><rect x="0" y="0" width="140" height="70"></rect></g></g></g></g></svg> 