<?xml version="1.0" encoding="UTF-8"?> <svg xmlns="http://www.w3.org/2000/svg" xmlns:xlink="http://www.w3.org/1999/xlink" width="140px" height="70px" viewBox="0 0 140 70"><!-- Generator: Sketch 60.1 (88133) - https://sketch.com --><title>components/logotypes/Sage</title><desc>Created with Sketch.</desc><defs><path d="M43.2945817,0 C45.7942763,0 47.6248049,0.871719169 49.1585409,2.63755714 L49.1585409,2.63755714 L49.1585409,0.423726448 L53.72288,0.423726448 L53.72288,18.8651601 C53.72288,21.6800477 52.5808735,24.332538 50.769701,25.7427817 C48.8783391,27.2164911 46.7196795,28.0219447 44.0356416,27.999545 C41.5036869,27.979012 39.1569972,26.9056962 37.1955849,25.3293218 L37.1955849,25.3293218 L40.2225013,22.3315038 C41.0354551,22.8914947 42.4613502,23.6950817 43.949922,23.6950817 C45.590577,23.6950817 46.7722173,23.2302892 47.7151331,22.4733682 C48.6552838,21.7164471 49.1585409,20.7607293 49.1585409,19.304753 L49.1585409,19.304753 L49.1585409,18.0653065 C47.744628,19.6696804 45.701183,20.5945987 43.2945817,20.5945987 C40.8087129,20.5945987 37.8343343,19.2300875 36.6093734,16.7885272 C35.7337429,15.0432222 35.7107,12.7724591 35.7107,10.2767663 C35.7107,7.62800939 35.8056368,5.83603851 36.0821516,4.89712043 C36.8259767,2.37156147 39.0251918,0 43.2945817,0 Z M63.4991561,0.000373327267 C75.2620996,0.000373327267 72.781761,12.5003036 72.781761,12.5003036 L72.781761,12.5003036 L58.5817997,12.5003036 C58.5817997,15.1135944 60.7293986,17.0240967 63.9166936,17.0240967 C66.3297469,17.0240967 67.9510459,16.2541092 69.3483678,14.9679968 L69.3483678,14.9679968 L71.982633,17.6746195 C71.982633,17.6746195 69.0303757,21.2417615 63.8512518,21.2417615 C59.76344,21.2417615 54.03866,18.8804666 54.03866,10.6504669 C54.03866,4.02017468 57.7817499,0.000373327267 63.4991561,0.000373327267 Z M9.12683484,0 C13.9271334,0 16.8591129,2.17649797 17.6462586,2.84568709 L17.6462586,2.84568709 L14.9861854,5.64377496 C14.3796961,5.20138215 12.2929303,3.86953713 9.12683484,3.86953713 C7.14606651,3.86953713 4.9975458,4.65352439 4.9975458,6.11043405 C4.9975458,8.5687941 10.1241319,8.3578642 11.8938272,8.59119374 C16.0056036,9.13158496 18.0131017,11.0019546 18.0131017,14.1453702 C18.0131017,18.8856931 14.3031936,21.2413882 9.22914535,21.2413882 C5.95152218,21.2413882 2.62596975,20.0663406 0,17.3998506 L0,17.3998506 L2.86285084,14.3852329 C4.63623301,16.0624057 6.44924898,17.107722 9.47432189,17.107722 C11.3315802,17.107722 13.7289644,16.1921369 13.7289644,14.5448303 C13.7289644,12.7743258 12.1611249,12.6501945 10.4439674,12.4737973 C7.60876809,12.1816687 0.819405794,12.1835354 0.819405794,6.26443154 C0.819405794,2.40609424 4.7542127,0 9.12683484,0 Z M26.5683803,0.000373327267 C32.6111524,0.000373327267 35.3938139,2.46060002 35.3938139,7.21958936 L35.3938139,7.21958936 L35.3938139,20.8255016 L31.0055226,20.8255016 L31.0055226,18.7694017 C29.7105112,20.3971086 27.8320533,21.2417615 25.3489496,21.2417615 C20.4020982,21.2417615 18.3291583,18.4530068 18.3291583,14.6637351 C18.3291583,9.50621887 22.725745,8.91542847 24.9609071,8.91542847 L24.9609071,8.91542847 L31.0055226,8.9116952 L31.0055226,6.91439432 C31.0055226,5.3109537 29.9934781,3.89324341 26.6024838,3.89324341 C23.7765016,3.89324341 21.9551902,5.21108866 21.4205947,5.65534811 L21.4205947,5.65534811 L18.7365569,2.84046051 C19.2711523,2.36446825 22.1404552,0.000373327267 26.5683803,0.000373327267 Z M31.0359392,12.5003036 L25.8687976,12.5003036 C23.2714011,12.5003036 22.0151018,13.044428 22.0151018,14.6880013 C22.0151018,16.4519727 23.5580548,17.1267617 25.974795,17.1267617 C28.3629619,17.1267617 31.0359392,17.3386249 31.0359392,13.4046889 L31.0359392,13.4046889 L31.0359392,12.5003036 Z M44.5942017,3.84713749 C41.9553279,3.84713749 40.434496,5.54017665 40.1985367,6.69189127 C40.080557,7.27334848 39.9856202,7.99947002 39.9856202,10.2860995 C39.9856202,11.8232746 40.04461,12.6016619 40.1220342,13.1896524 C40.5054682,16.1258713 43.9268791,16.5057318 44.5942017,16.5057318 C47.2616487,16.5057318 48.7308645,14.8220258 49.0083011,13.5415133 C49.1336545,12.9619227 49.1585409,11.8232746 49.1585409,10.2860995 L49.1581115,10.000694 C49.1537775,8.58918127 49.1160267,7.41888779 49.0175183,6.87202167 C48.8654351,6.02830205 47.8275825,3.84713749 44.5942017,3.84713749 Z M63.9950395,3.72711277 C61.1893351,3.72711277 58.5882517,5.42668516 58.5882517,8.94529465 L58.5882517,8.94529465 L69.3299335,8.94529465 C69.3299335,5.45655134 66.8007439,3.72711277 63.9950395,3.72711277 Z" id="path-1"></path></defs><g id="components/logotypes/Sage" stroke="none" stroke-width="1" fill="none" fill-rule="evenodd"><g id="style/Color/Main/Grey02" transform="translate(33.000000, 24.000000)"><mask id="mask-2" fill="white"><use xlink:href="#path-1"></use></mask><use id="Mask" fill="#00DC00" xlink:href="#path-1"></use><g id="style/Color/Main/Black" mask="url(#mask-2)" fill="#000000"><g transform="translate(-33.000000, -24.000000)" id="colorprimary"><rect x="0" y="0" width="140" height="70"></rect></g></g></g></g></svg> 