<?xml version="1.0" encoding="UTF-8"?> <svg xmlns="http://www.w3.org/2000/svg" xmlns:xlink="http://www.w3.org/1999/xlink" width="140px" height="70px" viewBox="0 0 140 70"><!-- Generator: Sketch 60.1 (88133) - https://sketch.com --><title>components/logotypes/Santander</title><desc>Created with Sketch.</desc><defs><path d="M12.1,-0.0002 C12.2,0.5998 12.4,1.0998 12.7,1.5998 L12.7,1.5998 L16.4,7.9998 C16.8,8.6998 17.1,9.4998 17.1,10.2998 C21,11.3998 23.8,13.5998 23.6,16.0998 C23.6,19.5998 18.3,22.4998 11.8,22.4998 C5.3,22.4998 -1.93622895e-13,19.5998 -1.93622895e-13,16.0998 C-1.93622895e-13,13.4998 2.7,11.2998 6.7,10.2998 C6.7,11.2998 6.9,12.1998 7.4,13.0998 L7.4,13.0998 L11.1,19.4998 C11.4,19.9998 11.6,20.5998 11.7,21.0998 L11.7,21.0998 L11.9,20.7998 C12.8,19.2998 12.8,17.2998 11.9,15.6998 L11.9,15.6998 L8.9,10.4998 C8,8.8998 8,6.9998 8.9,5.3998 L8.9,5.3998 L9.1,5.0998 C9.2,5.6998 9.4,6.1998 9.7,6.6998 L9.7,6.6998 L11.4,9.6998 L14.1,14.3998 C14.4,14.8998 14.6,15.4998 14.7,15.9998 L14.7,15.9998 L14.9,15.5998 C15.8,14.0998 15.8,12.0998 14.9,10.4998 L14.9,10.4998 L11.9,5.3998 C11,3.8998 11,1.8998 11.9,0.2998 L11.9,0.2998 Z M67.6998,6.2 L67.6998,10.4 L71.5998,10.4 C71.5998,11.2 71.4998,11.8 71.3998,12.5 L71.3998,12.5 L67.7998,12.5 L67.7998,18 C67.7998,19.4 68.4998,20 69.6998,20 C70.3998,20 71.0998,19.9 71.5998,19.7 L71.5998,19.7 L71.2998,21.8 C70.5998,22.1 69.8998,22.2 69.1998,22.2 C66.7998,22.2 65.2998,21.1 65.2998,18.4 L65.2998,18.4 L65.2998,6.6 C66.0998,6.4 66.9998,6.2 67.6998,6.2 L67.6998,6.2 Z M107.8002,6.2002 L107.8002,21.8002 L105.6002,21.8002 L105.5002,20.4002 C104.9002,21.4002 103.9002,22.0992 102.3002,22.0992 C99.4002,22.0992 97.4002,20.0002 97.4002,16.2002 C97.4002,12.3002 99.5002,10.1002 103.6002,10.1002 C104.1992,10.1002 104.8002,10.2002 105.4002,10.3002 L105.4002,10.3002 L105.4002,6.6002 C106.1002,6.3002 107.0002,6.2002 107.8002,6.2002 L107.8002,6.2002 Z M78.6998,10.0998 C80.1998,9.9998 81.5008,10.1998 82.7998,10.6998 L82.7998,10.6998 L82.7998,21.7998 L80.5998,21.7998 L80.5008,20.4998 C79.8998,21.4998 78.8998,22.0998 77.3998,22.0998 C74.5008,22.0998 72.5008,19.9998 72.5008,16.1998 C72.5008,12.2998 74.5998,10.0998 78.6998,10.0998 Z M46.2999,10.0998 C47.7999,9.9998 49.0999,10.1998 50.3999,10.6998 L50.3999,10.6998 L50.3999,21.7998 L48.1999,21.7998 L48.0999,20.4998 C47.4999,21.4998 46.4999,22.0998 44.9999,22.0998 C42.0999,22.0998 40.0999,19.9998 40.0999,16.1998 C40.0999,12.2998 42.1999,10.0998 46.2999,10.0998 Z M33.8001,6.0001 C35.2001,6.0001 36.6001,6.2001 37.9001,6.6001 C37.8001,7.5001 37.7001,8.2001 37.5001,8.8001 C36.3001,8.4001 34.9001,8.2001 33.9001,8.2001 C32.0001,8.2001 31.1001,9.0001 31.1001,10.1001 C31.1001,11.3001 32.0001,11.9001 33.5001,12.6001 L33.5001,12.6001 L34.7001,13.1001 C37.5001,14.3001 38.7001,15.6001 38.7001,17.7001 C38.7001,20.3001 36.8001,22.0001 33.0001,22.0001 C31.0001,22.1001 29.5001,21.9001 28.2001,21.3001 C28.2001,20.4001 28.4001,19.8001 28.6001,19.1001 C29.8001,19.7001 31.4001,20.0001 32.7001,20.0001 C34.8001,20.0001 35.9001,19.3001 35.9001,18.0001 C35.9001,16.7001 35.1001,16.1001 33.0001,15.2001 L33.0001,15.2001 L31.9001,14.7001 C29.8001,13.8001 28.4001,12.6001 28.4001,10.2001 C28.4001,7.7001 30.2001,6.0001 33.8001,6.0001 Z M115.0006,10 C118.5006,10 120.0006,12.3 120.0006,15.1 C120.1996,15.8 120.0996,16.4 120.0006,17 L120.0006,17 L112.1996,17 C112.5006,19 113.6996,19.9 115.8006,19.9 C117.0996,19.9 118.5006,19.6 119.6996,19.1 C119.5996,19.7 119.5006,20.6 119.3006,21.3 C118.1996,21.8 117.0006,22 115.6996,22 C111.5996,22 109.5996,19.7 109.5996,15.9 C109.5996,12.6 111.0996,10 115.0006,10 Z M90.1,10.1001 C94,10.0001 95.4,11.6001 95.4,14.3001 L95.4,14.3001 L95.4,21.8001 L93,21.8001 L93,14.7001 C93,12.9001 92.4,12.1001 90,12.1001 C89.4,12.1001 88.7,12.2001 88.1,12.3001 L88.1,12.3001 L88.1,21.8001 L85.7,21.8001 L85.7,10.7001 C87.3,10.3001 89,10.1001 90.1,10.1001 Z M57.4999,10.1001 C61.5999,10.0001 62.8999,11.6001 62.8999,14.3001 L62.8999,14.3001 L62.8999,21.8001 L60.4999,21.8001 L60.4999,14.7001 C60.4999,12.9001 59.8999,12.1001 57.4999,12.1001 C56.8999,12.1001 56.1999,12.2001 55.5999,12.3001 L55.5999,12.3001 L55.5999,21.8001 L53.0999,21.8001 L53.0999,10.7001 C54.6999,10.3001 56.3999,10.1001 57.4999,10.1001 Z M126.6,10.1001 C127.2,10.0001 128.1,10.1001 128.6,10.1001 C128.6,10.8001 128.5,11.7001 128.4,12.2001 C127.8,12.1001 127.2,12.1001 126.6,12.1001 C126,12.1001 125.4,12.1001 124.8,12.2001 L124.8,12.2001 L124.8,21.7001 L122.4,21.7001 L122.4,10.7001 C123.4,10.3001 125.2,10.1001 126.6,10.1001 Z M78.5998,12.1998 C76.0998,12.1998 74.8998,13.7998 74.8998,16.2998 C74.8998,18.5998 75.7998,20.1998 78.0008,20.1998 C79.0008,20.0998 79.6998,19.6998 80.3998,19.2998 L80.3998,19.2998 L80.3998,12.2998 C79.8998,12.1998 79.2998,12.1998 78.5998,12.1998 Z M46.1999,12.1998 C43.6999,12.1998 42.4999,13.7998 42.4999,16.2998 C42.4999,18.5998 43.3999,20.1998 45.5999,20.1998 C46.5999,20.0998 47.2999,19.6998 47.9999,19.2998 L47.9999,19.2998 L47.9999,12.2998 C47.4999,12.1998 46.8999,12.1998 46.1999,12.1998 Z M103.3002,12.1002 C100.9002,12.1002 99.6992,13.6002 99.6992,16.2002 C99.6992,18.5002 100.6002,20.0992 102.8002,20.0992 C103.9002,20.0992 104.6992,19.7002 105.3002,19.2002 L105.3002,19.2002 L105.3002,12.3002 C104.6992,12.2002 104.0002,12.1002 103.3002,12.1002 Z M115.0006,12.1 C113.3006,12.1 112.3996,13.1 112.1996,15 L112.1996,15 L117.6996,15 C117.6996,13.2 116.6996,12.1 115.0006,12.1 Z" id="path-1"></path></defs><g id="components/logotypes/Santander" stroke="none" stroke-width="1" fill="none" fill-rule="evenodd"><g id="style/Color/Main/Grey02" transform="translate(6.000000, 20.000000)"><mask id="mask-2" fill="white"><use xlink:href="#path-1"></use></mask><use id="Mask" fill="#000000" xlink:href="#path-1"></use><g id="style/Color/Main/Black" mask="url(#mask-2)" fill="#000000"><g transform="translate(-6.000000, -20.000000)" id="colorprimary"><rect x="0" y="0" width="140" height="70"></rect></g></g></g></g></svg> 