<?xml version="1.0" encoding="UTF-8"?> <svg xmlns="http://www.w3.org/2000/svg" xmlns:xlink="http://www.w3.org/1999/xlink" width="140px" height="70px" viewBox="0 0 140 70"><!-- Generator: Sketch 60.1 (88133) - https://sketch.com --><title>components/logotypes/Seachange</title><desc>Created with Sketch.</desc><defs><path d="M91.7557,5.6282 C93.0717,5.6282 94.1057,6.0862 94.8587,7.0032 L94.9757,5.8412 L97.3117,5.8412 L97.3117,17.0262 C97.3117,18.5412 96.8407,19.7352 95.8987,20.6092 C94.9567,21.4832 93.6857,21.9212 92.0867,21.9212 C91.2407,21.9212 90.4137,21.7452 89.6077,21.3932 C88.8007,21.0412 88.1867,20.5812 87.7677,20.0122 L88.9937,18.4552 C89.7907,19.4002 90.7717,19.8742 91.9367,19.8742 C92.7977,19.8742 93.4757,19.6412 93.9737,19.1752 C94.4717,18.7102 94.7207,18.0252 94.7207,17.1222 L94.7207,16.3442 C93.9737,17.1762 92.9787,17.5912 91.7347,17.5912 C90.3837,17.5912 89.2807,17.0552 88.4237,15.9822 C87.5667,14.9082 87.1387,13.4222 87.1387,11.5242 C87.1387,9.7332 87.5597,8.3022 88.4027,7.2322 C89.2447,6.1632 90.3627,5.6282 91.7557,5.6282 Z M104.9113,5.3265 C106.5223,5.3265 107.7673,5.8405 108.6463,6.8685 C109.5243,7.8965 109.9633,9.3515 109.9633,11.2325 L109.9633,12.3045 L102.2313,12.3045 C102.3113,13.2815 102.6373,14.0545 103.2103,14.6225 C103.7823,15.1915 104.5023,15.4755 105.3703,15.4755 C106.5883,15.4755 107.5793,14.9835 108.3443,13.9995 L109.7783,15.3665 C109.3033,16.0735 108.6713,16.6225 107.8803,17.0125 C107.0893,17.4025 106.2013,17.5975 105.2173,17.5975 C103.5323,17.5975 102.1673,17.0665 101.1213,16.0065 C100.0743,14.9455 99.5513,13.5325 99.5513,11.7675 L99.5513,11.4405 C99.5513,10.2595 99.7803,9.2035 100.2363,8.2735 C100.6913,7.3445 101.3313,6.6205 102.1543,6.1025 C102.9783,5.5855 103.8973,5.3265 104.9113,5.3265 Z M18.5008,5.6276 C20.0708,5.6276 21.2848,6.1286 22.1418,7.1316 C22.9988,8.1336 23.4268,9.5516 23.4268,11.3856 L23.4268,12.4306 L15.8878,12.4306 C15.9658,13.3836 16.2838,14.1366 16.8418,14.6916 C17.4008,15.2456 18.1018,15.5236 18.9478,15.5236 C20.1348,15.5236 21.1028,15.0436 21.8488,14.0836 L23.2458,15.4166 C22.7828,16.1066 22.1668,16.6406 21.3958,17.0216 C20.6238,17.4016 19.7588,17.5916 18.7988,17.5916 C17.1568,17.5916 15.8258,17.0746 14.8058,16.0406 C13.7858,15.0066 13.2758,13.6286 13.2758,11.9086 L13.2758,11.5886 C13.2758,10.4366 13.4978,9.4076 13.9418,8.5016 C14.3858,7.5946 15.0098,6.8896 15.8138,6.3846 C16.6168,5.8806 17.5118,5.6276 18.5008,5.6276 Z M30.0696,5.6277 C31.4206,5.6277 32.4976,5.9677 33.3006,6.6467 C34.1046,7.3247 34.5166,8.2797 34.5376,9.5087 L34.5376,14.7127 C34.5376,15.7507 34.6836,16.5787 34.9756,17.1967 L34.9756,17.3787 L32.3306,17.3787 C32.2166,17.1587 32.1176,16.7987 32.0316,16.3017 C31.2066,17.1617 30.1976,17.5917 29.0036,17.5917 C27.8446,17.5917 26.8996,17.2607 26.1666,16.5997 C25.4346,15.9397 25.0686,15.1217 25.0686,14.1477 C25.0686,12.9177 25.5256,11.9737 26.4386,11.3167 C27.3526,10.6587 28.6586,10.3307 30.3576,10.3307 L31.9466,10.3307 L31.9466,9.5727 C31.9466,8.9757 31.7796,8.4977 31.4456,8.1387 C31.1116,7.7797 30.6026,7.6007 29.9206,7.6007 C29.3306,7.6007 28.8476,7.7477 28.4706,8.0427 C28.0936,8.3377 27.9056,8.7127 27.9056,9.1677 L25.3136,9.1677 C25.3136,8.5357 25.5236,7.9437 25.9436,7.3927 C26.3626,6.8417 26.9336,6.4097 27.6546,6.0967 C28.3766,5.7837 29.1816,5.6277 30.0696,5.6277 Z M43.3876,1.64 C45.1006,1.64 46.4806,2.104 47.5246,3.032 C48.5696,3.959 49.1786,5.272 49.3486,6.971 L46.6616,6.971 C46.5336,5.855 46.2086,5.051 45.6856,4.556 C45.1636,4.062 44.3976,3.815 43.3876,3.815 C42.2156,3.815 41.3136,4.244 40.6846,5.101 C40.0566,5.958 39.7346,7.216 39.7206,8.874 L39.7206,10.251 C39.7206,11.93 40.0196,13.211 40.6206,14.093 C41.2216,14.975 42.1016,15.416 43.2596,15.416 C44.3196,15.416 45.1156,15.178 45.6486,14.702 C46.1816,14.226 46.5196,13.433 46.6616,12.324 L49.3486,12.324 C49.1926,13.981 48.5806,15.273 47.5146,16.2 C46.4486,17.128 45.0296,17.592 43.2596,17.592 C42.0236,17.592 40.9336,17.299 39.9916,16.712 C39.0496,16.126 38.3236,15.292 37.8116,14.212 C37.2996,13.131 37.0326,11.876 37.0116,10.448 L37.0116,8.997 C37.0116,7.533 37.2706,6.243 37.7896,5.127 C38.3086,4.011 39.0536,3.15 40.0236,2.546 C40.9946,1.942 42.1156,1.64 43.3876,1.64 Z M68.2654,5.6277 C69.6154,5.6277 70.6924,5.9677 71.4964,6.6467 C72.2994,7.3247 72.7114,8.2797 72.7334,9.5087 L72.7334,14.7127 C72.7334,15.7507 72.8794,16.5787 73.1704,17.1967 L73.1704,17.3787 L70.5254,17.3787 C70.4124,17.1587 70.3124,16.7987 70.2274,16.3017 C69.4024,17.1617 68.3934,17.5917 67.1984,17.5917 C66.0404,17.5917 65.0944,17.2607 64.3624,16.5997 C63.6294,15.9397 63.2644,15.1217 63.2644,14.1477 C63.2644,12.9177 63.7204,11.9737 64.6344,11.3167 C65.5474,10.6587 66.8544,10.3307 68.5524,10.3307 L70.1414,10.3307 L70.1414,9.5727 C70.1414,8.9757 69.9754,8.4977 69.6404,8.1387 C69.3064,7.7797 68.7984,7.6007 68.1154,7.6007 C67.5254,7.6007 67.0424,7.7477 66.6654,8.0427 C66.2894,8.3377 66.1004,8.7127 66.1004,9.1677 L63.5094,9.1677 C63.5094,8.5357 63.7194,7.9437 64.1384,7.3927 C64.5584,6.8417 65.1284,6.4097 65.8504,6.0967 C66.5714,5.7837 67.3764,5.6277 68.2654,5.6277 Z M5.9818,1.6402 C7.0628,1.6402 8.0258,1.8382 8.8718,2.2372 C9.7178,2.6352 10.3828,3.2022 10.8658,3.9382 C11.3488,4.6732 11.5908,5.4892 11.5908,6.3852 L8.9038,6.3852 C8.9038,5.5742 8.6498,4.9402 8.1408,4.4822 C7.6328,4.0232 6.9058,3.7942 5.9608,3.7942 C5.0788,3.7942 4.3948,3.9822 3.9078,4.3592 C3.4208,4.7352 3.1778,5.2612 3.1778,5.9372 C3.1778,6.5052 3.4408,6.9802 3.9668,7.3602 C4.4928,7.7412 5.3598,8.1102 6.5688,8.4692 C7.7768,8.8282 8.7478,9.2372 9.4798,9.6952 C10.2118,10.1542 10.7488,10.6802 11.0898,11.2742 C11.4308,11.8672 11.6018,12.5622 11.6018,13.3592 C11.6018,14.6522 11.1058,15.6812 10.1138,16.4452 C9.1218,17.2102 7.7768,17.5912 6.0778,17.5912 C4.9548,17.5912 3.9228,17.3842 2.9808,16.9682 C2.0378,16.5522 1.3058,15.9782 0.7838,15.2462 C0.2608,14.5142 -0.0002,13.6612 -0.0002,12.6872 L2.6978,12.6872 C2.6978,13.5682 2.9888,14.2512 3.5718,14.7342 C4.1548,15.2172 4.9898,15.4592 6.0778,15.4592 C7.0158,15.4592 7.7218,15.2692 8.1948,14.8882 C8.6678,14.5082 8.9038,14.0052 8.9038,13.3802 C8.9038,12.6972 8.6638,12.1722 8.1838,11.8012 C7.7038,11.4322 6.8388,11.0592 5.5878,10.6822 C4.3368,10.3052 3.3418,9.8862 2.6018,9.4232 C1.1868,8.5352 0.4798,7.3772 0.4798,5.9472 C0.4798,4.6962 0.9898,3.6662 2.0098,2.8552 C3.0298,2.0452 4.3538,1.6402 5.9818,1.6402 Z M81.2851,5.6281 C83.6871,5.6281 84.9101,7.0031 84.9531,9.7551 L84.9531,17.3791 L82.3621,17.3791 L82.3621,9.9031 C82.3621,9.1721 82.2031,8.6291 81.8871,8.2781 C81.5711,7.9251 81.0541,7.7501 80.3351,7.7501 C79.2901,7.7501 78.5121,8.2221 78.0001,9.1681 L78.0001,17.3791 L75.4101,17.3791 L75.4101,5.8411 L77.8511,5.8411 L77.9261,7.1741 C78.7791,6.1431 79.8981,5.6281 81.2851,5.6281 Z M54.062,0.9994 L54.062,7.0994 C54.908,6.1184 55.978,5.6274 57.271,5.6274 C59.731,5.6274 60.979,7.0314 61.014,9.8394 L61.014,17.3784 L58.423,17.3784 L58.423,9.9354 C58.423,9.1394 58.25,8.5764 57.906,8.2454 C57.561,7.9144 57.055,7.7494 56.386,7.7494 C55.349,7.7494 54.574,8.2124 54.062,9.1364 L54.062,17.3784 L51.471,17.3784 L51.471,0.9994 L54.062,0.9994 Z M31.9466,11.9617 L30.5496,11.9617 C29.5896,11.9617 28.8686,12.1287 28.3856,12.4627 C27.9016,12.7967 27.6606,13.2697 27.6606,13.8807 C27.6606,14.3787 27.8256,14.7747 28.1556,15.0697 C28.4866,15.3647 28.9286,15.5127 29.4836,15.5127 C29.9956,15.5127 30.4766,15.3877 30.9286,15.1397 C31.3796,14.8907 31.7186,14.5567 31.9466,14.1367 L31.9466,11.9617 Z M70.1414,11.9617 L68.7454,11.9617 C67.7854,11.9617 67.0634,12.1287 66.5804,12.4627 C66.0974,12.7967 65.8554,13.2697 65.8554,13.8807 C65.8554,14.3787 66.0214,14.7747 66.3514,15.0697 C66.6814,15.3647 67.1244,15.5127 67.6784,15.5127 C68.1904,15.5127 68.6714,15.3877 69.1234,15.1397 C69.5744,14.8907 69.9144,14.5567 70.1414,14.1367 L70.1414,11.9617 Z M92.4167,7.7502 C91.5637,7.7502 90.9007,8.0872 90.4287,8.7632 C89.9557,9.4382 89.7197,10.4332 89.7197,11.7482 C89.7197,12.9072 89.9557,13.8182 90.4287,14.4832 C90.9007,15.1482 91.5567,15.4802 92.3957,15.4802 C93.4407,15.4802 94.2157,15.0322 94.7207,14.1372 L94.7207,9.0612 C94.2297,8.1872 93.4617,7.7502 92.4167,7.7502 Z M18.4898,7.7076 C17.7788,7.7076 17.2048,7.9556 16.7678,8.4536 C16.3308,8.9506 16.0508,9.6446 15.9308,10.5326 L20.8678,10.5326 L20.8678,10.3416 C20.8108,9.4736 20.5798,8.8176 20.1748,8.3736 C19.7698,7.9296 19.2078,7.7076 18.4898,7.7076 Z M104.9003,7.4595 C104.1713,7.4595 103.5823,7.7145 103.1343,8.2245 C102.6853,8.7355 102.3993,9.4465 102.2753,10.3575 L107.3393,10.3575 L107.3393,10.1605 C107.2803,9.2715 107.0433,8.5985 106.6283,8.1425 C106.2123,7.6875 105.6363,7.4595 104.9003,7.4595 Z M108.5687,1.0626 C108.8267,1.0626 109.0677,1.1306 109.2897,1.2636 C109.5107,1.3976 109.6857,1.5806 109.8117,1.8136 C109.9367,2.0466 109.9997,2.2986 109.9997,2.5706 C109.9997,2.8356 109.9397,3.0836 109.8187,3.3156 C109.6977,3.5466 109.5257,3.7326 109.3027,3.8736 C109.0797,4.0136 108.8357,4.0846 108.5687,4.0846 C108.3037,4.0846 108.0597,4.0146 107.8377,3.8756 C107.6147,3.7366 107.4427,3.5506 107.3197,3.3196 C107.1977,3.0876 107.1357,2.8386 107.1357,2.5706 C107.1357,2.2986 107.1987,2.0466 107.3247,1.8136 C107.4507,1.5806 107.6247,1.3976 107.8467,1.2636 C108.0707,1.1306 108.3107,1.0626 108.5687,1.0626 Z M108.5687,1.3046 C108.3537,1.3046 108.1537,1.3606 107.9677,1.4716 C107.7817,1.5826 107.6357,1.7366 107.5287,1.9326 C107.4217,2.1286 107.3677,2.3416 107.3677,2.5696 C107.3677,2.8006 107.4217,3.0146 107.5297,3.2116 C107.6367,3.4086 107.7837,3.5636 107.9687,3.6746 C108.1537,3.7866 108.3537,3.8416 108.5687,3.8416 C108.7857,3.8416 108.9867,3.7856 109.1727,3.6716 C109.3587,3.5576 109.5037,3.4036 109.6097,3.2086 C109.7147,3.0136 109.7677,2.8006 109.7677,2.5696 C109.7677,2.3396 109.7147,2.1276 109.6097,1.9336 C109.5037,1.7386 109.3587,1.5856 109.1727,1.4736 C108.9867,1.3616 108.7857,1.3046 108.5687,1.3046 Z M108.5447,1.6906 C108.7507,1.6906 108.9097,1.7346 109.0237,1.8226 C109.1377,1.9106 109.1947,2.0386 109.1947,2.2076 C109.1947,2.3726 109.1087,2.4996 108.9367,2.5866 C109.1007,2.6536 109.1827,2.7916 109.1847,2.9986 L109.1847,3.1216 C109.1847,3.2376 109.1957,3.3206 109.2187,3.3716 L109.2187,3.4036 L108.9267,3.4036 C108.9067,3.3556 108.8977,3.2696 108.8977,3.1446 C108.8977,3.0206 108.8957,2.9466 108.8917,2.9236 C108.8697,2.7946 108.7817,2.7276 108.6277,2.7216 L108.2727,2.7216 L108.2727,3.4036 L107.9877,3.4036 L107.9877,1.6906 L108.5447,1.6906 Z M108.5507,1.9486 L108.2727,1.9486 L108.2727,2.4636 L108.5877,2.4636 C108.6837,2.4606 108.7617,2.4376 108.8217,2.3936 C108.8807,2.3486 108.9097,2.2906 108.9097,2.2186 C108.9097,2.1206 108.8837,2.0506 108.8317,2.0106 C108.7787,1.9696 108.6847,1.9486 108.5507,1.9486 Z" id="path-1"></path></defs><g id="components/logotypes/Seachange" stroke="none" stroke-width="1" fill="none" fill-rule="evenodd"><g id="style/Color/Main/Grey02" transform="translate(15.000000, 24.000000)"><mask id="mask-2" fill="white"><use xlink:href="#path-1"></use></mask><use id="Mask" fill="#4159B1" xlink:href="#path-1"></use><g id="style/Color/Main/Black" mask="url(#mask-2)" fill="#000000"><g transform="translate(-15.000000, -24.000000)" id="colorprimary"><rect x="0" y="0" width="140" height="70"></rect></g></g></g></g></svg> 