<?xml version="1.0" encoding="UTF-8"?>
<svg xmlns="http://www.w3.org/2000/svg" xmlns:xlink="http://www.w3.org/1999/xlink" width="60.799999pt" height="70.400002pt" viewBox="0 0 60.799999 70.400002" version="1.1">
<g id="surface1">
<path style=" stroke:none;fill-rule:nonzero;fill:rgb(51%,51%,51%);fill-opacity:1;" d="M 0.398438 52.6875 L 0.398438 17.710938 L 30.398438 0.210938 L 60.398438 17.710938 L 60.398438 52.6875 L 30.398438 70.1875 Z M 2.800781 51.308594 L 30.398438 67.410156 L 58 51.308594 L 58 19.085938 L 30.398438 2.988281 L 2.800781 19.085938 Z M 2.800781 51.308594 "/>
<path style=" stroke:none;fill-rule:nonzero;fill:rgb(51%,51%,51%);fill-opacity:1;" d="M 29.042969 31.222656 L 27.296875 29.578125 L 32.386719 24.183594 L 46 29.585938 L 46 38.691406 L 34.683594 44.5 L 33.585938 42.367188 L 43.601562 37.226562 L 43.601562 31.214844 L 33.015625 27.015625 Z M 29.042969 31.222656 "/>
<path style=" stroke:none;fill-rule:nonzero;fill:rgb(51%,51%,51%);fill-opacity:1;" d="M 28.171875 29.199219 L 28.171875 31.601562 L 17.199219 31.601562 L 17.199219 29.199219 Z M 28.171875 29.199219 "/>
<path style=" stroke:none;fill-rule:nonzero;fill:rgb(51%,51%,51%);fill-opacity:1;" d="M 33.027344 32.527344 L 38.074219 42.699219 L 27.199219 48.578125 L 15.382812 41.503906 L 16.617188 39.445312 L 27.261719 45.820312 L 34.894531 41.691406 L 32.324219 36.507812 L 27.328125 41.25 L 22.773438 37.890625 L 27.113281 29.832031 L 29.226562 30.96875 L 25.871094 37.195312 L 27.132812 38.125 Z M 33.027344 32.527344 "/>
<path style=" stroke:none;fill-rule:nonzero;fill:rgb(51%,51%,51%);fill-opacity:1;" d="M 10 46 L 10 26.800781 L 17.199219 26.800781 L 17.199219 46 Z M 12.398438 43.601562 L 14.800781 43.601562 L 14.800781 29.199219 L 12.398438 29.199219 Z M 12.398438 43.601562 "/>
<path style=" stroke:none;fill-rule:nonzero;fill:rgb(51%,51%,51%);fill-opacity:1;" d="M 43.601562 46 L 43.601562 26.800781 L 50.800781 26.800781 L 50.800781 46 Z M 46 43.601562 L 48.398438 43.601562 L 48.398438 29.199219 L 46 29.199219 Z M 46 43.601562 "/>
<path style=" stroke:none;fill-rule:nonzero;fill:rgb(100%,100%,100%);fill-opacity:1;" d="M 16.613281 59.324219 L 2.902344 51.316406 L 2.902344 19.082031 L 16.570312 11.101562 C 24.089844 6.710938 30.3125 3.117188 30.402344 3.117188 C 30.492188 3.117188 36.714844 6.710938 44.230469 11.101562 L 57.902344 19.082031 L 57.902344 51.316406 L 44.230469 59.296875 C 36.714844 63.683594 30.507812 67.285156 30.441406 67.300781 C 30.375 67.316406 24.152344 63.726562 16.613281 59.324219 Z M 31.667969 46.21875 C 34.121094 44.890625 37.796875 42.953125 39.835938 41.90625 L 43.546875 40.003906 L 43.566406 43.023438 L 43.589844 46.046875 L 50.84375 46.046875 L 50.84375 26.773438 L 43.585938 26.773438 L 43.585938 27.660156 C 43.585938 28.148438 43.566406 28.546875 43.542969 28.546875 C 43.519531 28.546875 41.03125 27.566406 38.011719 26.371094 C 34.992188 25.171875 32.476562 24.191406 32.421875 24.191406 C 32.363281 24.191406 31.253906 25.316406 29.957031 26.691406 L 27.601562 29.191406 L 17.21875 29.191406 L 17.21875 26.773438 L 9.960938 26.773438 L 9.960938 46.046875 L 17.214844 46.046875 L 17.234375 44.363281 L 17.257812 42.679688 L 22.214844 45.648438 C 24.945312 47.285156 27.183594 48.621094 27.195312 48.625 C 27.203125 48.625 29.21875 47.542969 31.667969 46.21875 Z M 31.667969 46.21875 "/>
<path style=" stroke:none;fill-rule:nonzero;fill:rgb(100%,100%,100%);fill-opacity:1;" d="M 22.195312 42.734375 L 17.21875 39.75 L 17.21875 31.613281 L 21.65625 31.613281 C 24.097656 31.613281 26.082031 31.636719 26.0625 31.671875 C 25.105469 33.402344 22.773438 37.835938 22.792969 37.898438 C 22.808594 37.941406 23.832031 38.726562 25.066406 39.636719 L 27.3125 41.292969 L 27.648438 40.992188 C 27.832031 40.828125 28.9375 39.78125 30.105469 38.671875 C 31.273438 37.5625 32.257812 36.640625 32.289062 36.628906 C 32.332031 36.613281 34.636719 41.214844 34.78125 41.609375 C 34.792969 41.648438 34.539062 41.820312 34.214844 41.996094 C 33.890625 42.167969 32.214844 43.078125 30.484375 44.019531 C 28.757812 44.957031 27.308594 45.722656 27.261719 45.722656 C 27.214844 45.722656 24.933594 44.378906 22.195312 42.734375 Z M 22.195312 42.734375 "/>
<path style=" stroke:none;fill-rule:nonzero;fill:rgb(100%,100%,100%);fill-opacity:1;" d="M 12.460938 36.410156 L 12.460938 29.273438 L 14.796875 29.273438 L 14.796875 43.546875 L 12.460938 43.546875 Z M 12.460938 36.410156 "/>
<path style=" stroke:none;fill-rule:nonzero;fill:rgb(100%,100%,100%);fill-opacity:1;" d="M 35.042969 36.488281 C 33.960938 34.292969 33.046875 32.503906 33.011719 32.515625 C 32.980469 32.527344 31.640625 33.78125 30.039062 35.304688 L 27.128906 38.070312 L 26.777344 37.8125 C 26.582031 37.675781 26.3125 37.464844 26.179688 37.347656 L 25.941406 37.136719 L 29.191406 31.136719 L 31.082031 29.136719 C 32.121094 28.035156 33.027344 27.136719 33.097656 27.140625 C 33.167969 27.144531 35.554688 28.070312 38.40625 29.195312 L 43.585938 31.25 L 43.546875 37.203125 L 40.359375 38.839844 C 38.609375 39.742188 37.140625 40.480469 37.09375 40.480469 C 37.050781 40.480469 36.125 38.683594 35.042969 36.488281 Z M 35.042969 36.488281 "/>
<path style=" stroke:none;fill-rule:nonzero;fill:rgb(100%,100%,100%);fill-opacity:1;" d="M 46.007812 36.410156 L 46.007812 29.273438 L 48.34375 29.273438 L 48.34375 43.546875 L 46.007812 43.546875 Z M 46.007812 36.410156 "/>
</g>
</svg>
