<?xml version="1.0" encoding="UTF-8" standalone="no"?>
<svg
   width="76px"
   height="88px"
   viewBox="0 0 76 88"
   version="1.1"
   id="svg1107"
   sodipodi:docname="Trust.svg"
   inkscape:version="1.1.1 (3bf5ae0d25, 2021-09-20)"
   xmlns:inkscape="http://www.inkscape.org/namespaces/inkscape"
   xmlns:sodipodi="http://sodipodi.sourceforge.net/DTD/sodipodi-0.dtd"
   xmlns="http://www.w3.org/2000/svg"
   xmlns:svg="http://www.w3.org/2000/svg">
  <defs
     id="defs1111" />
  <sodipodi:namedview
     id="namedview1109"
     pagecolor="#505050"
     bordercolor="#eeeeee"
     borderopacity="1"
     inkscape:pageshadow="0"
     inkscape:pageopacity="0"
     inkscape:pagecheckerboard="0"
     showgrid="false"
     inkscape:zoom="9.9204545"
     inkscape:cx="37.95189"
     inkscape:cy="44"
     inkscape:window-width="2560"
     inkscape:window-height="1377"
     inkscape:window-x="-8"
     inkscape:window-y="472"
     inkscape:window-maximized="1"
     inkscape:current-layer="svg1107" />
  <!-- Generator: Sketch 55.2 (78181) - https://sketchapp.com -->
  <title
     id="title1095">Billennium/icons/Trust</title>
  <desc
     id="desc1097">Created with Sketch.</desc>
  <g
     id="Billennium/icons/Trust"
     stroke="none"
     stroke-width="1"
     fill="none"
     fill-rule="evenodd">
    <path
       d="M0.5,65.8580175 L0.5,22.1363676 L37.9975677,0.26348781 L75.5,22.1363102 L75.5,65.8580749 L37.9975677,87.7366277 L0.5,65.8580175 Z M3.5,64.1351061 L37.9976677,84.2633723 L72.5,64.1350486 L72.5,23.8595639 L37.9976677,3.73651219 L3.5,23.8595065 L3.5,64.1351061 Z"
       id="Stroke-3"
       fill="#FF5A00"
       fill-rule="nonzero" />
    <polygon
       id="Stroke-1"
       fill="#FF5A00"
       fill-rule="nonzero"
       points="36.3050147 39.0294994 34.1231523 36.9705006 40.4836058 30.2305094 57.5 36.9813571 57.5 48.3639754 43.3527294 55.6260804 41.9827198 52.9571716 54.5 46.5317766 54.5 39.0186429 41.2688255 33.7694906" />
    <polygon
       id="polygon1101"
       fill="#FF5A00"
       fill-rule="nonzero"
       points="35.2140835 36.5 35.2140835 39.5 21.5 39.5 21.5 36.5" />
    <polygon
       id="Stroke-4"
       fill="#FF5A00"
       fill-rule="nonzero"
       points="41.283976 40.6586782 47.5945737 53.3758911 33.9998773 60.7243614 19.229348 51.8790788 20.770652 49.3052914 34.0758529 57.2730669 43.6195098 52.1143433 40.4032799 45.6329477 34.1591215 51.5642073 28.4650713 47.3623935 33.8936007 37.2884347 36.5345663 38.7115653 32.3408369 46.4940519 33.9166087 47.656862" />
    <path
       d="M12.5,57.5 L12.5,33.5 L21.5,33.5 L21.5,57.5 L12.5,57.5 Z M15.5,54.5 L18.5,54.5 L18.5,36.5 L15.5,36.5 L15.5,54.5 Z"
       id="Stroke-6"
       fill="#FF5A00"
       fill-rule="nonzero" />
    <path
       d="M54.5,57.5 L54.5,33.5 L63.5,33.5 L63.5,57.5 L54.5,57.5 Z M57.5,54.5 L60.5,54.5 L60.5,36.5 L57.5,36.5 L57.5,54.5 Z"
       id="Stroke-8"
       fill="#FF5A00"
       fill-rule="nonzero" />
  </g>
  <path
     style="fill:#ffffff;stroke-width:0.100802"
     d="M 20.765178,74.154986 3.628866,64.147559 V 43.99997 23.852381 l 17.085911,-9.977738 c 9.39725,-5.487755 17.176632,-9.9777369 17.287514,-9.9777369 0.110882,0 7.890263,4.4899819 17.287514,9.9777369 l 17.085911,9.977738 V 44 64.147619 l -17.085911,9.972327 c -9.397251,5.484781 -17.153952,9.98811 -17.237113,10.007399 -0.08316,0.01929 -7.862543,-4.468273 -17.287514,-9.972359 z M 39.586915,57.771493 c 3.064769,-1.656607 7.658904,-4.082158 10.20919,-5.390113 l 4.636885,-2.378102 0.02641,3.777285 0.02641,3.777284 h 4.534871 4.53487 V 45.512027 33.466208 h -4.536083 -4.536082 v 1.108821 c 0,0.609851 -0.02457,1.10882 -0.0546,1.10882 -0.03003,0 -3.141208,-1.224742 -6.913735,-2.72165 -3.772528,-1.496907 -6.917633,-2.721649 -6.989122,-2.721649 -0.07149,0 -1.456614,1.406185 -3.078057,3.124857 l -2.948078,3.124856 H 28.010489 21.521182 V 34.978236 33.466208 H 16.9851 12.449017 v 12.045819 12.04582 h 4.534078 4.534077 l 0.02721,-2.103995 0.0272,-2.103994 6.199313,3.71238 c 3.409622,2.04181 6.209301,3.71438 6.221508,3.716824 0.01221,0.0024 2.529734,-1.350962 5.594502,-3.007569 z"
     id="path1150" />
  <path
     style="fill:#ffffff;stroke-width:0.100802"
     d="M 27.745704,53.419849 21.521191,49.68885 v -5.087266 -5.087266 h 5.55005 c 3.052527,0 5.531173,0.03402 5.508103,0.0756 -1.19946,2.161767 -4.112472,7.707049 -4.087398,7.780871 0.01924,0.05663 1.297719,1.035418 2.841075,2.175088 l 2.806101,2.072126 0.419558,-0.376743 c 0.230755,-0.207207 1.614008,-1.513011 3.073895,-2.901785 1.459887,-1.388774 2.687978,-2.5375 2.729091,-2.552725 0.05564,-0.0206 2.933638,5.732919 3.114552,6.226413 0.01685,0.04595 -0.30068,0.26191 -0.705613,0.47991 -0.404932,0.217999 -2.503266,1.356032 -4.662962,2.528963 -2.159697,1.17293 -3.97413,2.131748 -4.032073,2.130705 -0.05794,-10e-4 -2.906383,-1.680845 -6.329866,-3.732894 z"
     id="path1189" />
  <path
     style="fill:#ffffff;stroke-width:0.100802"
     d="m 15.573883,45.512027 v -8.920962 h 1.461627 1.461626 v 8.920962 8.920963 H 17.03551 15.573883 Z"
     id="path1228" />
  <path
     style="fill:#ffffff;stroke-width:0.100802"
     d="m 43.805234,45.610197 c -1.353381,-2.745777 -2.495758,-4.979797 -2.538616,-4.96449 -0.04286,0.01531 -1.714929,1.583175 -3.715716,3.48415 l -3.637793,3.456318 -0.443642,-0.3186 c -0.244004,-0.17523 -0.578538,-0.437789 -0.74341,-0.583465 l -0.299766,-0.264866 2.031986,-3.749964 2.031986,-3.749963 2.360517,-2.49975 c 1.298284,-1.374863 2.432305,-2.49707 2.520046,-2.493795 0.08774,0.0033 3.074143,1.159977 6.636449,2.570447 l 6.476919,2.564491 -0.0256,3.721295 -0.0256,3.721296 -3.981673,2.047806 c -2.18992,1.126293 -4.027509,2.048617 -4.083531,2.04961 -0.05602,10e-4 -1.209172,-2.244742 -2.562552,-4.99052 z"
     id="path1267" />
  <path
     style="fill:#ffffff;stroke-width:0.100802"
     d="m 57.507446,45.512027 v -8.920962 h 1.461626 1.461627 v 8.920962 8.920963 h -1.461627 -1.461626 z"
     id="path1306" />
</svg>
