<?xml version="1.0" encoding="UTF-8"?>
<svg xmlns="http://www.w3.org/2000/svg" xmlns:xlink="http://www.w3.org/1999/xlink" width="60.799999pt" height="70.400002pt" viewBox="0 0 60.799999 70.400002" version="1.1">
<g id="surface1">
<path style=" stroke:none;fill-rule:nonzero;fill:rgb(51%,51%,51%);fill-opacity:1;" d="M 0.398438 52.6875 L 0.398438 17.710938 L 30.398438 0.210938 L 60.398438 17.710938 L 60.398438 52.6875 L 30.398438 70.1875 Z M 2.800781 51.308594 L 30.398438 67.410156 L 58 51.308594 L 58 19.085938 L 30.398438 2.988281 L 2.800781 19.085938 Z M 2.800781 51.308594 "/>
<path style=" stroke:none;fill-rule:nonzero;fill:rgb(51%,51%,51%);fill-opacity:1;" d="M 21.101562 33.644531 L 30.398438 38.960938 L 39.699219 33.644531 L 39.699219 23.042969 L 30.398438 17.726562 L 21.101562 23.039062 Z M 30.398438 14.960938 L 42.101562 21.648438 L 42.101562 35.039062 L 30.398438 41.726562 L 18.699219 35.039062 L 18.699219 21.648438 Z M 30.398438 14.960938 "/>
<path style=" stroke:none;fill-rule:nonzero;fill:rgb(51%,51%,51%);fill-opacity:1;" d="M 23.199219 44.800781 L 37.601562 44.800781 L 37.601562 47.199219 L 23.199219 47.199219 Z M 23.199219 44.800781 "/>
<path style=" stroke:none;fill-rule:nonzero;fill:rgb(51%,51%,51%);fill-opacity:1;" d="M 23.199219 49.601562 L 37.601562 49.601562 L 37.601562 52 L 23.199219 52 Z M 23.199219 49.601562 "/>
<path style=" stroke:none;fill-rule:nonzero;fill:rgb(100%,100%,100%);fill-opacity:1;" d="M 16.613281 59.324219 L 2.902344 51.316406 L 2.902344 19.082031 L 16.570312 11.101562 C 24.089844 6.710938 30.3125 3.117188 30.402344 3.117188 C 30.492188 3.117188 36.714844 6.710938 44.230469 11.101562 L 57.902344 19.082031 L 57.902344 51.316406 L 44.230469 59.296875 C 36.714844 63.683594 30.507812 67.285156 30.441406 67.300781 C 30.375 67.316406 24.152344 63.726562 16.613281 59.324219 Z M 37.621094 50.804688 L 37.621094 49.59375 L 23.183594 49.59375 L 23.183594 52.015625 L 37.621094 52.015625 Z M 37.621094 46.007812 L 37.621094 44.757812 L 23.183594 44.757812 L 23.183594 47.257812 L 37.621094 47.257812 Z M 36.347656 38.375 L 42.136719 35.066406 L 42.117188 28.328125 L 42.09375 21.589844 L 36.894531 18.613281 C 34.03125 16.976562 31.398438 15.476562 31.039062 15.277344 L 30.382812 14.917969 L 24.546875 18.253906 L 18.707031 21.589844 L 18.667969 35.066406 L 24.496094 38.410156 C 27.699219 40.25 30.375 41.738281 30.441406 41.71875 C 30.503906 41.699219 33.164062 40.195312 36.347656 38.375 Z M 36.347656 38.375 "/>
<path style=" stroke:none;fill-rule:nonzero;fill:rgb(100%,100%,100%);fill-opacity:1;" d="M 25.765625 36.257812 L 21.207031 33.648438 L 21.207031 23.027344 L 25.804688 20.402344 L 30.402344 17.773438 L 35 20.402344 L 39.59375 23.027344 L 39.59375 33.664062 L 35.039062 36.261719 C 32.53125 37.695312 30.445312 38.863281 30.402344 38.867188 C 30.355469 38.867188 28.269531 37.695312 25.765625 36.257812 Z M 25.765625 36.257812 "/>
</g>
</svg>
