<?xml version="1.0" encoding="UTF-8"?>
<svg xmlns="http://www.w3.org/2000/svg" xmlns:xlink="http://www.w3.org/1999/xlink" width="60.799999pt" height="70.400002pt" viewBox="0 0 60.799999 70.400002" version="1.1">
<g id="surface1">
<path style=" stroke:none;fill-rule:nonzero;fill:rgb(51%,51%,51%);fill-opacity:1;" d="M 27.878906 30.648438 L 39.152344 24.101562 L 40.355469 26.175781 L 30.277344 32.027344 L 30.277344 44.425781 L 19.003906 50.96875 L 17.796875 48.894531 L 27.878906 43.042969 Z M 27.878906 30.648438 "/>
<path style=" stroke:none;fill-rule:nonzero;fill:rgb(51%,51%,51%);fill-opacity:1;" d="M 31.679688 21.835938 L 32.882812 19.761719 L 40.953125 24.449219 L 40.953125 33.816406 L 38.554688 33.816406 L 38.554688 25.828125 Z M 31.679688 21.835938 "/>
<path style=" stroke:none;fill-rule:nonzero;fill:rgb(51%,51%,51%);fill-opacity:1;" d="M 0.398438 52.6875 L 0.398438 17.710938 L 30.398438 0.210938 L 60.398438 17.710938 L 60.398438 52.6875 L 30.398438 70.1875 Z M 2.800781 51.308594 L 30.398438 67.410156 L 58 51.308594 L 58 19.085938 L 30.398438 2.988281 L 2.800781 19.085938 Z M 2.800781 51.308594 "/>
<path style=" stroke:none;fill-rule:nonzero;fill:rgb(100%,100%,100%);fill-opacity:1;" d="M 16.613281 59.324219 L 2.902344 51.316406 L 2.902344 19.082031 L 16.570312 11.101562 C 24.089844 6.710938 30.3125 3.117188 30.402344 3.117188 C 30.492188 3.117188 36.714844 6.710938 44.230469 11.101562 L 57.902344 19.082031 L 57.902344 51.316406 L 44.230469 59.296875 C 36.714844 63.683594 30.507812 67.285156 30.441406 67.300781 C 30.375 67.316406 24.152344 63.726562 16.613281 59.324219 Z M 24.691406 47.722656 L 30.28125 44.476562 L 30.289062 32.054688 L 34.332031 29.714844 C 36.554688 28.429688 38.402344 27.367188 38.441406 27.351562 C 38.476562 27.335938 38.507812 28.796875 38.507812 30.597656 L 38.507812 33.871094 L 41.007812 33.871094 L 40.988281 29.136719 L 40.964844 24.402344 L 36.972656 22.082031 C 34.777344 20.804688 32.945312 19.761719 32.902344 19.761719 C 32.800781 19.761719 31.640625 21.769531 31.695312 21.855469 C 31.714844 21.890625 32.964844 22.632812 34.472656 23.507812 C 35.980469 24.382812 37.199219 25.125 37.175781 25.160156 C 37.15625 25.195312 35.050781 26.433594 32.5 27.914062 L 27.863281 30.601562 L 27.855469 43.023438 L 22.859375 45.914062 C 20.109375 47.507812 17.839844 48.839844 17.816406 48.878906 C 17.761719 48.964844 18.921875 50.964844 19.023438 50.964844 C 19.066406 50.964844 21.617188 49.503906 24.691406 47.722656 Z M 24.691406 47.722656 "/>
</g>
</svg>
