<?xml version="1.0" encoding="UTF-8"?>
<svg xmlns="http://www.w3.org/2000/svg" xmlns:xlink="http://www.w3.org/1999/xlink" width="60.799999pt" height="70.400002pt" viewBox="0 0 60.799999 70.400002" version="1.1">
<g id="surface1">
<path style=" stroke:none;fill-rule:nonzero;fill:rgb(51%,51%,51%);fill-opacity:1;" d="M 0.398438 52.6875 L 0.398438 17.710938 L 30.398438 0.210938 L 60.398438 17.710938 L 60.398438 52.6875 L 30.398438 70.1875 Z M 2.800781 51.308594 L 30.398438 67.410156 L 58 51.308594 L 58 19.085938 L 30.398438 2.988281 L 2.800781 19.085938 Z M 2.800781 51.308594 "/>
<path style=" stroke:none;fill-rule:nonzero;fill:rgb(51%,51%,51%);fill-opacity:1;" d="M 14.800781 43.601562 L 14.800781 26.800781 L 46 26.800781 L 46 43.601562 Z M 17.199219 41.199219 L 43.601562 41.199219 L 43.601562 29.199219 L 17.199219 29.199219 Z M 17.199219 41.199219 "/>
<path style=" stroke:none;fill-rule:nonzero;fill:rgb(51%,51%,51%);fill-opacity:1;" d="M 20.800781 36.398438 L 20.800781 34 L 37.601562 34 L 37.601562 36.398438 Z M 20.800781 36.398438 "/>
<path style=" stroke:none;fill-rule:nonzero;fill:rgb(51%,51%,51%);fill-opacity:1;" d="M 44.800781 36.398438 L 44.800781 34 L 50.800781 34 L 50.800781 36.398438 Z M 44.800781 36.398438 "/>
<path style=" stroke:none;fill-rule:nonzero;fill:rgb(93%,93%,93%);fill-opacity:1;" d="M 16.59375 59.300781 L 2.824219 51.265625 L 2.824219 19.125 L 16.550781 11.117188 C 24.097656 6.714844 30.332031 3.109375 30.402344 3.109375 C 30.472656 3.109375 36.703125 6.714844 44.253906 11.117188 L 57.980469 19.125 L 57.980469 51.265625 L 44.292969 59.253906 C 36.761719 63.648438 30.550781 67.265625 30.484375 67.289062 C 30.410156 67.316406 24.851562 64.121094 16.59375 59.300781 Z M 46.046875 40.039062 L 46.046875 36.449219 L 50.804688 36.449219 L 50.804688 33.949219 L 46.046875 33.949219 L 46.046875 26.773438 L 14.757812 26.773438 L 14.757812 43.628906 L 46.046875 43.628906 Z M 46.046875 40.039062 "/>
<path style=" stroke:none;fill-rule:nonzero;fill:rgb(93%,93%,93%);fill-opacity:1;" d="M 17.257812 35.199219 L 17.257812 29.273438 L 43.546875 29.273438 L 43.546875 41.128906 L 17.257812 41.128906 Z M 37.660156 35.199219 L 37.660156 33.949219 L 20.726562 33.949219 L 20.726562 36.449219 L 37.660156 36.449219 Z M 37.660156 35.199219 "/>
<path style=" stroke:none;fill-rule:nonzero;fill:rgb(93%,93%,93%);fill-opacity:1;" d="M 26.890625 65.210938 C 23.332031 63.167969 15.5625 58.652344 7.296875 53.820312 L 2.863281 51.226562 L 2.863281 19.15625 L 7.339844 16.542969 C 16.109375 11.425781 25.722656 5.839844 28.046875 4.507812 L 30.410156 3.15625 L 30.667969 3.300781 C 33.144531 4.714844 43.535156 10.75 52.296875 15.863281 L 57.941406 19.15625 L 57.941406 51.238281 L 48.425781 56.789062 C 38.644531 62.496094 30.890625 67.007812 30.601562 67.15625 C 30.460938 67.230469 29.921875 66.945312 26.890625 65.210938 Z M 46.046875 40.039062 L 46.046875 36.449219 L 50.804688 36.449219 L 50.804688 33.949219 L 46.046875 33.949219 L 46.046875 26.773438 L 14.757812 26.773438 L 14.757812 43.628906 L 46.046875 43.628906 Z M 46.046875 40.039062 "/>
<path style=" stroke:none;fill-rule:nonzero;fill:rgb(100%,100%,100%);fill-opacity:1;" d="M 28.949219 66.394531 C 26.699219 65.125 21.882812 62.332031 11.894531 56.507812 L 2.863281 51.238281 L 2.863281 19.15625 L 8.507812 15.863281 C 15.453125 11.808594 26.566406 5.347656 28.769531 4.082031 L 30.402344 3.144531 L 32.035156 4.082031 C 34.234375 5.34375 44.289062 11.1875 51.8125 15.578125 L 57.941406 19.15625 L 57.941406 51.238281 L 47.738281 57.191406 C 37.648438 63.078125 30.914062 66.992188 30.601562 67.152344 C 30.46875 67.222656 30.195312 67.097656 28.949219 66.394531 Z M 46.046875 40.039062 L 46.046875 36.449219 L 50.804688 36.449219 L 50.804688 33.949219 L 46.046875 33.949219 L 46.046875 26.773438 L 14.757812 26.773438 L 14.757812 43.628906 L 46.046875 43.628906 Z M 46.046875 40.039062 "/>
<path style=" stroke:none;fill-rule:nonzero;fill:rgb(100%,100%,100%);fill-opacity:1;" d="M 28.867188 66.300781 C 26.8125 65.144531 14.050781 57.734375 4.515625 52.160156 L 2.945312 51.242188 L 2.921875 35.199219 L 2.902344 19.152344 L 3.207031 18.988281 C 3.371094 18.894531 7.371094 16.570312 12.097656 13.816406 C 24.535156 6.566406 30.3125 3.226562 30.40625 3.226562 C 30.5 3.226562 35.789062 6.28125 48.023438 13.414062 C 52.589844 16.074219 56.679688 18.453125 57.113281 18.703125 L 57.894531 19.152344 L 57.878906 35.199219 L 57.859375 51.246094 L 48.425781 56.75 C 32.855469 65.835938 30.667969 67.09375 30.464844 67.09375 C 30.359375 67.09375 29.640625 66.738281 28.867188 66.300781 Z M 46.046875 40.039062 L 46.046875 36.449219 L 50.804688 36.449219 L 50.804688 33.949219 L 46.046875 33.949219 L 46.046875 26.773438 L 14.757812 26.773438 L 14.757812 43.628906 L 46.046875 43.628906 Z M 46.046875 40.039062 "/>
<path style=" stroke:none;fill-rule:nonzero;fill:rgb(100%,100%,100%);fill-opacity:1;" d="M 17.257812 35.199219 L 17.257812 29.273438 L 43.546875 29.273438 L 43.546875 41.128906 L 17.257812 41.128906 Z M 37.660156 35.199219 L 37.660156 33.949219 L 20.726562 33.949219 L 20.726562 36.449219 L 37.660156 36.449219 Z M 37.660156 35.199219 "/>
</g>
</svg>
