<?xml version="1.0" encoding="UTF-8" standalone="no"?>
<svg
   width="76px"
   height="88px"
   viewBox="0 0 76 88"
   version="1.1"
   id="svg35"
   sodipodi:docname="Energy.svg"
   inkscape:version="1.1.1 (3bf5ae0d25, 2021-09-20)"
   xmlns:inkscape="http://www.inkscape.org/namespaces/inkscape"
   xmlns:sodipodi="http://sodipodi.sourceforge.net/DTD/sodipodi-0.dtd"
   xmlns="http://www.w3.org/2000/svg"
   xmlns:svg="http://www.w3.org/2000/svg">
  <defs
     id="defs39" />
  <sodipodi:namedview
     id="namedview37"
     pagecolor="#505050"
     bordercolor="#eeeeee"
     borderopacity="1"
     inkscape:pageshadow="0"
     inkscape:pageopacity="0"
     inkscape:pagecheckerboard="0"
     showgrid="false"
     inkscape:zoom="9.9204545"
     inkscape:cx="47.27606"
     inkscape:cy="44.806415"
     inkscape:window-width="1335"
     inkscape:window-height="1081"
     inkscape:window-x="1261"
     inkscape:window-y="560"
     inkscape:window-maximized="0"
     inkscape:current-layer="svg35" />
  <!-- Generator: Sketch 55.2 (78181) - https://sketchapp.com -->
  <title
     id="title25">Billennium/icons/Energy</title>
  <desc
     id="desc27">Created with Sketch.</desc>
  <g
     id="Billennium/icons/Energy"
     stroke="none"
     stroke-width="1"
     fill="none"
     fill-rule="evenodd">
    <path
       d="M0.5,65.8580175 L0.5,22.1363676 L37.9975677,0.26348781 L75.5,22.1363102 L75.5,65.8580749 L37.9975677,87.7366277 L0.5,65.8580175 Z M3.5,64.1351061 L37.9976677,84.2633723 L72.5,64.1350486 L72.5,23.8595639 L37.9976677,3.73651219 L3.5,23.8595065 L3.5,64.1351061 Z"
       id="Stroke-3"
       fill="#FF5A00"
       fill-rule="nonzero" />
    <path
       d="M18.5,54.5 L18.5,33.5 L57.5,33.5 L57.5,54.5 L18.5,54.5 Z M21.5,51.5 L54.5,51.5 L54.5,36.5 L21.5,36.5 L21.5,51.5 Z"
       id="Stroke-1"
       fill="#FF5A00"
       fill-rule="nonzero" />
    <polygon
       id="polygon31"
       fill="#FF5A00"
       fill-rule="nonzero"
       points="26 45.5 26 42.5 47 42.5 47 45.5" />
    <polygon
       id="Stroke-3-Copy"
       fill="#FF5A00"
       fill-rule="nonzero"
       points="56 45.5 56 42.5 63.5 42.5 63.5 45.5" />
  </g>
  <path
     style="fill:#ececec;stroke-width:0.100802"
     d="M 20.739977,74.126988 3.5280641,64.08344 V 43.995239 23.907038 L 20.68683,13.897555 C 30.124151,8.3923383 37.916108,3.8880707 38.002291,3.8880707 c 0.08618,0 7.87814,4.5042676 17.315461,10.0094843 L 72.476518,23.907038 V 43.994684 64.08233 L 55.365353,74.069044 C 45.954213,79.561735 38.186172,84.081582 38.103039,84.113147 38.012365,84.147576 31.0654,80.152112 20.739977,74.126988 Z M 57.557847,50.04811 v -4.485682 h 2.973654 2.973654 V 44 42.437572 H 60.531501 57.557847 V 37.95189 33.466208 H 38.002291 18.446735 V 44 54.533792 h 19.555556 19.555556 z"
     id="path158" />
  <path
     style="fill:#ececec;stroke-width:0.100802"
     d="M 21.571592,44 V 36.591065 H 38.002291 54.43299 V 44 51.408935 H 38.002291 21.571592 Z m 25.502864,0 V 42.437572 H 36.490263 25.906071 V 44 45.562428 h 10.584192 10.584193 z"
     id="path197" />
  <path
     style="fill:#ececec;stroke-width:0.100802"
     d="M 33.614285,81.512027 C 29.164391,78.961693 19.453036,73.31712 9.1225659,67.276598 L 3.5784651,64.034803 V 43.989998 23.945193 L 9.1729668,20.680259 C 20.138166,14.281001 32.15127,7.2979757 35.058074,5.6336591 l 2.95269,-1.6905892 0.32337,0.1845043 c 3.097412,1.767285 16.083245,9.3082678 27.035855,15.6999488 l 7.056128,4.117788 V 43.996214 64.047117 L 60.531501,70.986891 C 48.306653,78.119336 38.612755,83.757543 38.25117,83.945674 38.076243,84.036688 37.40125,83.682421 33.614285,81.512027 Z M 57.557847,50.04811 v -4.485682 h 2.973654 2.973654 V 44 42.437572 H 60.531501 57.557847 V 37.95189 33.466208 H 38.002291 18.446735 V 44 54.533792 h 19.555556 19.555556 z"
     id="path248" />
  <path
     style="fill:#ffffff;stroke-width:0.100802"
     d="M 36.187858,82.993425 C 33.374124,81.405516 27.353156,77.914692 14.86827,70.632802 L 3.5784651,64.047949 V 43.99663 23.945311 L 10.634593,19.827625 C 19.317898,14.760379 33.208184,6.6858917 35.961583,5.1049268 l 2.041766,-1.1723548 2.040708,1.1709124 c 2.747987,1.5767331 15.316075,8.8830136 24.721121,14.3712746 l 7.660939,4.470498 v 20.051056 20.051055 l -12.751432,7.440659 c -12.616427,7.361881 -21.03006,12.253735 -21.420389,12.454242 -0.168011,0.0863 -0.512339,-0.0718 -2.066438,-0.948844 z M 57.557847,50.04811 v -4.485682 h 2.973654 2.973654 V 44 42.437572 H 60.531501 57.557847 V 37.95189 33.466208 H 38.002291 18.446735 V 44 54.533792 h 19.555556 19.555556 z"
     id="path287" />
  <path
     style="fill:#ffffff;stroke-width:0.100802"
     d="M 36.082483,82.876196 C 33.513898,81.429568 17.5624,72.167243 5.6449026,65.202447 L 3.6792669,64.053694 3.654697,43.997065 3.630127,23.940435 4.0075034,23.733318 C 4.2150604,23.619404 9.2158076,20.711027 15.120275,17.270258 30.670948,8.2082621 37.891653,4.0320733 38.00933,4.0320733 c 0.116217,0 6.724671,3.8217477 22.018161,12.7333657 5.710424,3.327502 10.823544,6.303127 11.362488,6.6125 L 72.369876,23.940435 72.347596,44 72.325315,64.059565 60.531501,70.939332 C 41.068279,82.292948 38.33478,83.867125 38.082875,83.867125 c -0.132514,0 -1.03269,-0.445918 -2.000392,-0.990929 z M 57.557847,50.04811 v -4.485682 h 2.973654 2.973654 V 44 42.437572 H 60.531501 57.557847 V 37.95189 33.466208 H 38.002291 18.446735 V 44 54.533792 h 19.555556 19.555556 z"
     id="path363" />
  <path
     style="fill:#ffffff;stroke-width:0.100802"
     d="M 21.571592,44 V 36.591065 H 38.002291 54.43299 V 44 51.408935 H 38.002291 21.571592 Z m 25.502864,0 V 42.437572 H 36.490263 25.906071 V 44 45.562428 h 10.584192 10.584193 z"
     id="path402" />
</svg>
