<?xml version="1.0" encoding="UTF-8"?>
<svg xmlns="http://www.w3.org/2000/svg" xmlns:xlink="http://www.w3.org/1999/xlink" width="60.799999pt" height="70.400002pt" viewBox="0 0 60.799999 70.400002" version="1.1">
<g id="surface1">
<path style=" stroke:none;fill-rule:nonzero;fill:rgb(51%,51%,51%);fill-opacity:1;" d="M 0.398438 52.6875 L 0.398438 17.710938 L 30.398438 0.210938 L 60.398438 17.710938 L 60.398438 52.6875 L 30.398438 70.1875 Z M 2.800781 51.308594 L 30.398438 67.410156 L 58 51.308594 L 58 19.085938 L 30.398438 2.988281 L 2.800781 19.085938 Z M 2.800781 51.308594 "/>
<path style=" stroke:none;fill-rule:nonzero;fill:rgb(100%,100%,100%);fill-opacity:1;" d="M 16.640625 59.308594 L 2.890625 51.285156 L 2.871094 35.195312 L 2.851562 19.101562 L 3.574219 18.683594 C 3.972656 18.453125 10.171875 14.839844 17.347656 10.65625 L 30.402344 3.046875 L 44.164062 11.070312 L 57.929688 19.097656 L 57.925781 35.195312 L 57.925781 51.289062 L 44.324219 59.21875 C 36.84375 63.582031 30.648438 67.1875 30.558594 67.238281 C 30.410156 67.316406 28.90625 66.460938 16.640625 59.308594 Z M 36.992188 49.539062 L 40.546875 47.371094 L 40.566406 39.597656 L 40.585938 31.820312 L 37.636719 30.027344 L 34.6875 28.238281 L 34.648438 25.621094 L 34.609375 23.007812 L 31.054688 20.84375 C 29.097656 19.652344 27.464844 18.679688 27.421875 18.679688 C 27.378906 18.683594 25.742188 19.65625 23.789062 20.847656 L 20.234375 23.015625 L 20.214844 30.765625 L 20.195312 38.511719 L 20.40625 38.648438 C 20.519531 38.726562 21.867188 39.550781 23.394531 40.480469 L 26.171875 42.171875 L 26.21875 47.382812 L 29.789062 49.550781 C 31.753906 50.742188 33.375 51.714844 33.398438 51.710938 C 33.417969 51.710938 35.035156 50.734375 36.992188 49.539062 Z M 36.992188 49.539062 "/>
<path style=" stroke:none;fill-rule:nonzero;fill:rgb(100%,100%,100%);fill-opacity:1;" d="M 24.398438 38.175781 L 22.703125 37.148438 L 22.734375 24.429688 L 24.960938 23.070312 C 26.1875 22.324219 27.242188 21.679688 27.308594 21.644531 C 27.394531 21.59375 28.058594 21.957031 29.769531 22.996094 L 32.109375 24.417969 L 32.109375 28.214844 L 26.25 31.777344 L 26.230469 35.496094 C 26.21875 37.542969 26.183594 39.214844 26.152344 39.210938 C 26.121094 39.210938 25.332031 38.742188 24.398438 38.175781 Z M 24.398438 38.175781 "/>
<path style=" stroke:none;fill-rule:nonzero;fill:rgb(100%,100%,100%);fill-opacity:1;" d="M 28.636719 36.238281 L 28.636719 33.242188 L 30.324219 32.226562 C 31.25 31.667969 32.039062 31.199219 32.078125 31.183594 C 32.117188 31.167969 32.148438 32.429688 32.144531 34.152344 L 32.144531 37.148438 L 30.457031 38.164062 C 29.53125 38.722656 28.742188 39.191406 28.703125 39.207031 C 28.664062 39.222656 28.632812 37.960938 28.636719 36.238281 Z M 28.636719 36.238281 "/>
<path style=" stroke:none;fill-rule:nonzero;fill:rgb(100%,100%,100%);fill-opacity:1;" d="M 30.957031 47.328125 L 28.628906 45.910156 L 28.652344 44.042969 L 28.671875 42.171875 L 31.65625 40.363281 L 34.644531 38.554688 L 34.664062 34.863281 L 34.6875 31.171875 L 38.085938 33.226562 L 38.046875 45.960938 L 35.753906 47.355469 C 34.492188 48.121094 33.421875 48.75 33.371094 48.746094 C 33.320312 48.746094 32.234375 48.105469 30.957031 47.328125 Z M 30.957031 47.328125 "/>
<path style=" stroke:none;fill-rule:nonzero;fill:rgb(51%,51%,51%);fill-opacity:1;" d="M 27.417969 40.050781 L 32.179688 37.164062 L 32.179688 24.414062 L 27.425781 21.523438 L 22.667969 24.414062 L 22.667969 37.164062 Z M 20.269531 23.042969 L 27.425781 18.695312 L 34.578125 23.042969 L 34.578125 38.535156 L 27.417969 42.878906 L 20.269531 38.535156 Z M 20.269531 23.042969 "/>
<path style=" stroke:none;fill-rule:nonzero;fill:rgb(51%,51%,51%);fill-opacity:1;" d="M 33.378906 48.847656 L 38.132812 45.960938 L 38.132812 33.210938 L 33.378906 30.324219 L 28.625 33.210938 L 28.625 45.960938 Z M 26.226562 31.839844 L 33.378906 27.496094 L 40.53125 31.839844 L 40.53125 47.332031 L 33.378906 51.675781 L 26.226562 47.332031 Z M 26.226562 31.839844 "/>
<path style=" stroke:none;fill-rule:nonzero;fill:rgb(51%,51%,51%);fill-opacity:1;" d="M 0.402344 52.683594 L 0.402344 17.683594 L 30.398438 0.191406 L 60.402344 17.683594 L 60.402344 52.683594 L 30.398438 70.183594 Z M 30.398438 67.382812 L 58 51.28125 L 58 19.085938 L 30.398438 2.988281 L 2.800781 19.082031 L 2.800781 51.28125 Z M 30.398438 67.382812 "/>
</g>
</svg>
