<?xml version="1.0" encoding="UTF-8" standalone="no"?>
<svg
   width="76px"
   height="88px"
   viewBox="0 0 76 88"
   version="1.1"
   id="svg39"
   sodipodi:docname="Responsibility.svg"
   inkscape:version="1.1.1 (3bf5ae0d25, 2021-09-20)"
   xmlns:inkscape="http://www.inkscape.org/namespaces/inkscape"
   xmlns:sodipodi="http://sodipodi.sourceforge.net/DTD/sodipodi-0.dtd"
   xmlns="http://www.w3.org/2000/svg"
   xmlns:svg="http://www.w3.org/2000/svg"
   xmlns:rdf="http://www.w3.org/1999/02/22-rdf-syntax-ns#"
   xmlns:cc="http://creativecommons.org/ns#"
   xmlns:dc="http://purl.org/dc/elements/1.1/">
  <defs
     id="defs43" />
  <sodipodi:namedview
     id="namedview41"
     pagecolor="#505050"
     bordercolor="#eeeeee"
     borderopacity="1"
     inkscape:pageshadow="0"
     inkscape:pageopacity="0"
     inkscape:pagecheckerboard="0"
     showgrid="false"
     inkscape:zoom="10.24"
     inkscape:cx="35.595703"
     inkscape:cy="45.117188"
     inkscape:window-width="1278"
     inkscape:window-height="1368"
     inkscape:window-x="0"
     inkscape:window-y="480"
     inkscape:window-maximized="0"
     inkscape:current-layer="Billennium/icons/Trust" />
  <!-- Generator: Sketch 55.2 (78181) - https://sketchapp.com -->
  <title
     id="title27">Billennium/icons/Trust</title>
  <desc
     id="desc29">Created with Sketch.</desc>
  <g
     id="Billennium/icons/Trust"
     stroke="none"
     stroke-width="1"
     fill="none"
     fill-rule="evenodd">
    <path
       d="M0.5,65.8580175 L0.5,22.1363676 L37.9975677,0.26348781 L75.5,22.1363102 L75.5,65.8580749 L37.9975677,87.7366277 L0.5,65.8580175 Z M3.5,64.1351061 L37.9976677,84.2633723 L72.5,64.1350486 L72.5,23.8595639 L37.9976677,3.73651219 L3.5,23.8595065 L3.5,64.1351061 Z"
       id="Stroke-3"
       fill="#FF5A00"
       fill-rule="nonzero" />
    <path
       style="fill:#ffffff;stroke-width:0.0976562"
       d="M 20.800781,74.133508 3.6132813,64.107094 3.5899823,43.992023 3.5666833,23.876953 4.4688885,23.353356 C 4.9651014,23.065379 12.713201,18.549502 21.686887,13.318076 L 38.00268,3.8063926 55.207395,13.83963 l 17.204714,10.033236 -0.0027,20.119232 -0.0027,20.11923 -16.99974,9.912109 c -9.349857,5.451661 -17.094001,9.962594 -17.209209,10.024297 -0.186837,0.100067 -2.066515,-0.97113 -17.396969,-9.914226 z m 25.439453,-12.208345 4.44336,-2.710192 0.02488,-9.720054 0.02488,-9.720054 -3.686993,-2.23916 -3.686993,-2.239159 -0.04883,-3.268075 -0.04883,-3.268075 -4.44336,-2.705993 c -2.443847,-1.488295 -4.487304,-2.704874 -4.541015,-2.703507 -0.05371,0.0014 -2.097168,1.22125 -4.541016,2.710853 l -4.443359,2.708369 -0.02489,9.684647 -0.02489,9.684645 0.263091,0.17346 c 0.1447,0.0954 1.825821,1.124635 3.735825,2.287183 l 3.472735,2.113722 0.02844,3.257372 0.02844,3.257371 4.463744,2.708773 c 2.455058,1.489826 4.485715,2.706365 4.512571,2.70342 0.02685,-0.0029 2.04834,-1.22494 4.492187,-2.715546 z"
       id="path904" />
    <path
       style="fill:#ffffff;stroke-width:0.0976562"
       d="m 30.496832,47.721688 -2.120355,-1.286141 0.02075,-7.950099 0.02075,-7.950099 2.783203,-1.698347 c 1.530762,-0.934091 2.850682,-1.736593 2.933156,-1.783338 0.109586,-0.06211 0.937691,0.393599 3.076172,1.692834 l 2.926219,1.777826 v 2.372834 2.372834 l -3.66211,2.224799 -3.662109,2.2248 -0.02536,4.651924 c -0.01395,2.558557 -0.05789,4.648411 -0.09766,4.644119 -0.03976,-0.0043 -1.026455,-0.586568 -2.192651,-1.293946 z"
       id="path943" />
    <path
       style="fill:#ffffff;stroke-width:0.0976562"
       d="m 35.79392,45.296224 0.0029,-3.74349 2.107199,-1.269531 c 1.158959,-0.698242 2.146421,-1.28418 2.194361,-1.302083 0.05019,-0.01875 0.08593,1.555185 0.08426,3.710937 l -0.0029,3.74349 -2.107198,1.269531 c -1.158959,0.698242 -2.146422,1.28418 -2.194361,1.302083 -0.05019,0.01875 -0.08593,-1.555185 -0.08426,-3.710937 z"
       id="path982" />
    <path
       style="fill:#ffffff;stroke-width:0.0976562"
       d="m 38.694591,59.159134 -2.906971,-1.77122 0.02611,-2.335701 0.02611,-2.3357 3.732253,-2.261577 3.732253,-2.261577 0.02751,-4.615398 0.02751,-4.615399 2.124591,1.286472 2.124591,1.286473 -0.02498,7.958962 -0.02498,7.958962 -2.866019,1.742035 c -1.57631,0.958118 -2.916642,1.740427 -2.978515,1.738461 -0.06187,-0.002 -1.420635,-0.800622 -3.019469,-1.774793 z"
       id="path1021" />
  </g>
  <g
     id="Billennium/icons/Responsibility"
     stroke="none"
     stroke-width="1"
     fill="none"
     fill-rule="evenodd"
     transform="matrix(1,0,0,1.0102107,-6.4993943,-0.77301892)">
    <g
       id="Group"
       transform="translate(7,1)"
       fill="#ff5a00"
       fill-rule="nonzero">
      <path
         d="M 33.774023,49.322631 39.7224,45.748335 V 29.973264 l -5.943,-3.573944 -5.943,3.573944 V 45.74904 Z M 24.8364,28.276687 l 8.943,-5.378056 8.943,5.378056 V 47.445616 L 33.772777,52.82332 24.8364,47.444912 Z"
         id="Stroke-2" />
      <path
         d="M 41.221056,60.207738 47.1639,56.633887 V 40.858581 L 41.223744,37.287302 35.2809,40.858757 V 56.634063 Z M 32.2809,39.161594 41.224056,33.787049 50.1639,39.16177 V 58.330464 L 41.220744,63.708613 32.2809,58.330288 Z"
         id="Stroke-3-7" />
      <path
         d="M 0,64.952915 V 21.646911 L 37.496938,0 75,21.646839 V 64.952987 L 37.496938,86.606076 Z M 37.497062,83.141875 72,63.220964 V 23.379112 L 37.497062,3.4639512 3,23.37904 v 39.841996 z"
         id="Stroke-4-8" />
    </g>
  </g>
  <metadata
     id="metadata1284">
    <rdf:RDF>
      <cc:Work
         rdf:about="">
        <dc:title>Billennium/icons/Trust</dc:title>
      </cc:Work>
    </rdf:RDF>
  </metadata>
</svg>
