<?xml version="1.0" encoding="UTF-8" standalone="no"?>
<svg
   width="113.823"
   height="109.08602"
   viewBox="0 0 113.823 109.08602"
   version="1.1"
   id="svg186"
   sodipodi:docname="Tiger.svg"
   inkscape:version="1.1.1 (3bf5ae0d25, 2021-09-20)"
   xmlns:inkscape="http://www.inkscape.org/namespaces/inkscape"
   xmlns:sodipodi="http://sodipodi.sourceforge.net/DTD/sodipodi-0.dtd"
   xmlns="http://www.w3.org/2000/svg"
   xmlns:svg="http://www.w3.org/2000/svg">
  <defs
     id="defs190" />
  <sodipodi:namedview
     id="namedview188"
     pagecolor="#505050"
     bordercolor="#eeeeee"
     borderopacity="1"
     inkscape:pageshadow="0"
     inkscape:pageopacity="0"
     inkscape:pagecheckerboard="0"
     showgrid="false"
     inkscape:zoom="6.0625"
     inkscape:cx="56"
     inkscape:cy="54.845361"
     inkscape:window-width="2560"
     inkscape:window-height="1377"
     inkscape:window-x="-8"
     inkscape:window-y="472"
     inkscape:window-maximized="1"
     inkscape:current-layer="svg186" />
  <!-- Generator: Sketch 62 (91390) - https://sketch.com -->
  <title
     id="title151">Stickers/Tiger</title>
  <desc
     id="desc153">Created with Sketch.</desc>
  <g
     id="Stickers/Tiger"
     stroke="none"
     stroke-width="1"
     fill="none"
     fill-rule="evenodd"
     transform="translate(-15.92436,-17.23698)">
    <g
       id="Group-55"
       transform="translate(21,23)">
      <path
         d="m 102.7246,14.021 c -0.157,-1.545 -1.154,-2.511 -1.816,-3.146 -7.257,-6.999 -14.652,-4.557 -19.545,-2.942 -1.251,0.411 -2.443,0.806 -3.326,0.931 L 77.0796,8.213 C 69.6596,3.001 60.9266,0.245 51.8316,0.23699018 42.7606,0.231 34.0366,2.976 26.6006,8.172 l 0.002,0.002 -0.962,0.655 c -0.881,-0.126 -2.072,-0.521 -3.323,-0.936 -4.894,-1.621 -12.285,-4.072 -19.553,2.916 -0.661,0.637 -1.659,1.598 -1.816,3.14 -0.141,1.371 0.364,2.744 1.352,3.7 l 7.966,9.254 c -4.047,5.315 -5.521,11.951 -5.473,16.903 0.085,8.327 2.077,17.49 2.164,17.876 l 0.192,0.877 19.846,11.196 3.679,9.609 c 1.214,3.168 3.545,5.804 6.568,7.427 1.141,0.608 6.317,1.865 9.243,2.545 1.803,0.476 3.062,2.116 3.058,3.985 l 4.021,0.002 c 0,-1.869 1.263,-3.507 3.045,-3.976 l 9.58,-2.422 0.213,-0.112 c 3.009,-1.596 5.341,-4.229 6.567,-7.41 l 3.696,-9.616 19.858,-11.168 0.194,-0.877 c 0.084,-0.386 2.09,-9.548 2.185,-17.87 0.057,-4.965 -1.416,-11.626 -5.48,-16.956 l 7.943,-9.2 c 0.989,-0.953 1.496,-2.322 1.359,-3.695"
         id="Fill-1"
         fill="#ff5900" />
      <path
         d="m 102.7246,14.021 c -0.157,-1.545 -1.154,-2.511 -1.816,-3.146 -7.257,-6.999 -14.652,-4.557 -19.545,-2.942 -1.251,0.411 -2.443,0.806 -3.326,0.931 L 77.0796,8.213 C 69.6596,3.001 60.9266,0.245 51.8316,0.23699018 42.7606,0.231 34.0366,2.976 26.6006,8.172 l 0.002,0.002 -0.962,0.655 c -0.881,-0.126 -2.072,-0.521 -3.323,-0.936 -4.894,-1.621 -12.285,-4.072 -19.553,2.916 -0.661,0.637 -1.659,1.598 -1.816,3.14 -0.141,1.371 0.364,2.744 1.352,3.7 l 7.966,9.254 c -4.047,5.315 -5.521,11.951 -5.473,16.903 0.085,8.327 2.077,17.49 2.164,17.876 l 0.192,0.877 19.846,11.196 3.679,9.609 c 1.214,3.168 3.545,5.804 6.568,7.427 1.141,0.608 6.317,1.865 9.243,2.545 1.803,0.476 3.062,2.116 3.058,3.985 l 4.021,0.002 c 0,-1.869 1.263,-3.507 3.045,-3.976 l 9.58,-2.422 0.213,-0.112 c 3.009,-1.596 5.341,-4.229 6.567,-7.41 l 3.696,-9.616 19.858,-11.168 0.194,-0.877 c 0.084,-0.386 2.09,-9.548 2.185,-17.87 0.057,-4.965 -1.416,-11.626 -5.48,-16.956 l 7.943,-9.2 c 0.989,-0.953 1.496,-2.322 1.359,-3.695 z"
         id="Stroke-3"
         stroke="#ff5900"
         stroke-width="12"
         stroke-linejoin="round" />
      <path
         d="m 76.5771,73.1118 19.441,-10.935 0.218,-0.988 c 0.083,-0.383 2.051,-9.368 2.145,-17.536 0.053,-4.848 -1.366,-11.327 -5.272,-16.569 l 7.595,-8.795 c 1.03,-0.998 1.554,-2.427 1.41,-3.854 -0.161,-1.63 -1.23,-2.655 -1.868,-3.267 -7.231,-6.973 -14.566,-4.551 -19.419,-2.95 -1.156,0.382 -2.261,0.748 -3.079,0.884 l -0.835,-0.567 C 69.6041,3.4038 61.0021,0.6888 52.0511,0.68278229 43.1161,0.6748 34.5261,3.3778 27.2071,8.4978 l -0.837,0.568 c -0.818,-0.135 -1.925,-0.502 -3.079,-0.887 -4.853,-1.606 -12.186,-4.037 -19.425,2.922 -0.64,0.614 -1.708,1.641 -1.872,3.268 -0.143,1.426 0.38,2.855 1.404,3.853 l 7.619,8.847 c -3.888,5.225 -5.31,11.689 -5.263,16.521 0.083,8.172 2.041,17.157 2.125,17.54 l 0.215,0.991 19.426,10.957 c 0.702,1.837 1.407,3.675 2.111,5.513 0.445,1.163 0.892,2.325 1.336,3.485 0.534,1.399 1.686,2.28 2.824,3.24 2.312,1.958 4.973,3.613 7.957,4.285 1.658,0.373 3.362,0.559 5.01,0.961 0.649,0.161 1.358,0.274 1.906,0.637 0.726,0.48 1.289,1.364 2.161,1.618 2.011,0.589 4.691,-1.018 6.667,-1.345 0.955,-0.158 1.894,-0.279 2.853,-0.479 2.036,-0.421 4.224,-1.201 6.129,-2.101 2.754,-1.301 5.23,-3.401 6.432,-6.236 0.165,-0.387 0.303,-0.786 0.453,-1.175 0.446,-1.162 0.893,-2.32 1.338,-3.479 0.624,-1.632 1.253,-3.263 1.88,-4.89"
         id="Fill-5"
         fill="#ffffff" />
      <polyline
         id="Stroke-7"
         stroke="#000000"
         stroke-width="4"
         points="41.4229 47.9096 52.0369 47.9176 62.6529 47.9236" />
      <path
         d="m 79.5957,22.312 -16.073,6.895 c -2.761,1.184 -4.57,3.889 -4.605,6.893 v 0.095 c -0.002,1.219 0.27,2.375 0.752,3.415 l 0.002,10e-4 4.164,11.015 -8.723,5.497 c -1.765,1.112 -4.008,1.128 -5.789,0.041 l -9.088,-5.553 3.427,-9.026 0.757,-1.985 c 0.483,-1.038 0.754,-2.193 0.754,-3.415 0,-0.033 0,-0.066 -0.002,-0.098 -0.031,-3.004 -1.833,-5.707 -4.593,-6.898 l -16.06,-6.914"
         id="Stroke-9"
         stroke="#000000"
         stroke-width="4" />
      <path
         d="m 72.376,55.2807 3.195,-10.44 6.831,4.764 c 0.286,-2.245 0.446,-4.131 0.471,-6.459 0.019,-1.517 -0.394,-4.063 -1.61,-6.241"
         id="Stroke-11"
         stroke="#000000"
         stroke-width="4" />
      <path
         d="m 46.7568,62.7231 c -3.386,3.294 -6.714,8.536 -4.949,13.475 0.285,0.792 0.914,2.605 1.623,3.102 0.514,0.36 1.539,-0.033 2.09,-0.193 1.859,-0.533 3.702,-1.293 5.59,-1.71 2.354,-0.524 4.099,0.892 6.344,1.367 0.896,0.188 1.983,0.672 2.922,0.466 0.913,-0.2 1.047,-0.956 1.315,-1.874 0.552,-1.89 0.992,-3.856 0.784,-5.839 -0.147,-1.414 -0.965,-2.414 -1.744,-3.558 -1.008,-1.481 -2.005,-2.957 -3.077,-4.397 -0.533,-0.718 -1.254,-1.55 -2.22,-1.528 -1.05,0.019 -1.894,0.994 -3.019,1.081 -0.919,0.072 -1.781,-0.067 -2.665,-0.256 -0.971,-0.206 -2.098,-0.392 -3.074,-0.055"
         id="Fill-13"
         fill="#ff5900" />
      <path
         d="m 33.6113,62.8256 c 0.92,-2.169 3.07,-3.693 5.578,-3.693 1.497,0.004 2.862,0.547 3.923,1.447 2.41,2.059 5.539,3.302 8.959,3.304002 3.418,0.002 6.549,-1.235002 8.96,-3.290002 1.059,-0.901 2.428,-1.443 3.925,-1.443 2.509,0.002 4.656,1.529 5.577,3.7"
         id="Stroke-15"
         stroke="#000000"
         stroke-width="4" />
      <path
         d="m 27.9775,9.8178 -1.554,1.059 c -4.55,0.034 -13.283,-7.045 -22.04,1.375 -0.571,0.548 -1.13,1.109 -1.212,1.897 -0.08,0.789 0.222,1.57 0.807,2.103 l 9.099,10.568"
         id="Stroke-17"
         stroke="#000000"
         stroke-width="4" />
      <path
         d="m 27.9775,9.8139 c 6.824,-4.769 15.12,-7.578 24.077,-7.5720096 C 61.0225,2.2489 69.3295,5.0629 76.1525,9.8509 l 1.551,1.058 c 4.55,0.041 13.291,-7.023 22.038,1.405 0.57,0.552 1.13,1.111 1.206,1.9 0.08,0.791 -0.221,1.57 -0.809,2.105 l -9.111,10.554"
         id="Stroke-19"
         stroke="#000000"
         stroke-width="4" />
      <path
         d="m 75.8076,63.5503 12.76,-7.063 c 0.566,-3.171 1.373,-8.47 1.426,-13.261 0.035,-2.932 -0.753,-6.646 -2.513,-9.795"
         id="Stroke-21"
         stroke="#000000"
         stroke-width="4" />
      <path
         d="m 60.9307,10.1098 -6.396,6.385 c -1.343,1.343 -3.517,1.339 -4.858,-0.002 l -6.385,-6.395"
         id="Stroke-23"
         stroke="#000000"
         stroke-width="4" />
      <line
         x1="46.086899"
         y1="61.509201"
         x2="41.205898"
         y2="73.919197"
         id="Stroke-25"
         stroke="#000000"
         stroke-width="4" />
      <line
         x1="58.055698"
         y1="61.519001"
         x2="62.918701"
         y2="73.931999"
         id="Stroke-27"
         stroke="#000000"
         stroke-width="4" />
      <path
         d="m 36.3447,61.5024 8.073,21.836 c 0.35,0.938 1.244,1.561 2.243,1.561 l 10.792,0.004 c 1.001,0 1.897,-0.621 2.245,-1.559 l 8.102,-21.821"
         id="Stroke-29"
         stroke="#000000"
         stroke-width="4" />
      <path
         d="m 60.1992,81.2319 c -1.745,-2.628 -4.732,-4.36 -8.128,-4.364002 -3.368,-0.002 -6.34,1.704002 -8.095,4.297002"
         id="Stroke-31"
         stroke="#000000"
         stroke-width="4" />
      <path
         d="m 28.3164,63.5171 -12.751,-7.081 c -0.562,-3.167 -1.361,-8.472 -1.409,-13.261 -0.031,-2.931 0.762,-6.644 2.525,-9.793"
         id="Stroke-33"
         stroke="#000000"
         stroke-width="4" />
      <path
         d="m 91.8086,16.4174 c -1.155,0.244 -2.236,0.885 -3.016,1.895 -1.74,2.255 -1.321,5.494 0.936,7.232 5.452,5.072 7.451,12.797 7.392,18.295 -0.094,8.216 -2.137,17.463 -2.137,17.463 l -19.709,11.082 -4.269,11.076"
         id="Stroke-35"
         stroke="#000000"
         stroke-width="4" />
      <g
         id="Group-40"
         transform="translate(59,28.561)">
        <path
           d="M 11.358401,6.5107 C 11.3564,9.5537 8.8854,12.0217 5.8394,12.019701 2.7954,12.0177 0.3274,9.5467 0.32939879,6.5017 0.3334,3.4577 2.8014,0.9897 5.8474,0.99169878 8.8924,0.9937 11.3604,3.4657 11.358401,6.5107"
           id="Fill-37"
           fill="#ff5900" />
        <path
           d="M 11.358401,6.5107 C 11.3564,9.5537 8.8854,12.0217 5.8394,12.019701 2.7954,12.0177 0.3274,9.5467 0.32939879,6.5017 0.3334,3.4577 2.8014,0.9897 5.8474,0.99169878 8.8924,0.9937 11.3604,3.4657 11.358401,6.5107"
           id="Stroke-39"
           stroke="#000000"
           stroke-width="4" />
      </g>
      <g
         id="Group-44"
         transform="translate(33,28.561)">
        <path
           d="m 11.776403,6.4922 c -0.002,3.045 -2.474003,5.511 -5.517003,5.511 -3.046,0 -5.513,-2.473 -5.51100122,-5.519 C 0.7504,3.4392 3.2214,0.9732 6.2644,0.9732 c 3.046,0.002 5.515,2.473 5.512003,5.519"
           id="Fill-41"
           fill="#ff5900" />
        <path
           d="m 11.776403,6.4922 c -0.002,3.045 -2.474003,5.511 -5.517003,5.511 -3.046,0 -5.513,-2.473 -5.51100122,-5.519 C 0.7504,3.4392 3.2214,0.9732 6.2644,0.9732 c 3.046,0.002 5.515,2.473 5.512003,5.519"
           id="Stroke-43"
           stroke="#000000"
           stroke-width="4" />
      </g>
      <path
         d="m 49.8652,22.2436 c -0.728,0.551 -1.572,0.946 -2.479,1.191 -3.095,0.837 -6.891,-0.06 -8.935,-2.339 -1.483,-1.652 -2.137,-3.297 -4.286,-4.266 -1.644,-0.739 -4.798,-0.576 -6.158,0.624"
         id="Stroke-45"
         stroke="#000000"
         stroke-width="4" />
      <path
         d="m 54.1758,22.2456 c 0.724,0.555 1.569,0.949 2.477,1.196 3.091,0.84 6.89,-0.053 8.941,-2.328 1.482,-1.649 2.137,-3.296 4.288,-4.261 1.646,-0.735 4.799,-0.57 6.155,0.633"
         id="Stroke-47"
         stroke="#000000"
         stroke-width="4" />
      <path
         d="m 12.3779,16.3628 c 1.158,0.247 2.235,0.889 3.014,1.898 1.735,2.259 1.313,5.498 -0.945,7.235 -5.459,5.063 -7.471,12.788 -7.415,18.283 0.082,8.217 2.112,17.465 2.112,17.465 l 19.696,11.108 4.242,11.085 c 0.75,1.953 2.11,3.616 3.882,4.73 0.472,0.297 0.956,0.579 1.453,0.844 1.076,0.577 8.809,2.375 8.809,2.375 2.623,0.693 4.555,3.086 4.553002,5.929"
         id="Stroke-49"
         stroke="#000000"
         stroke-width="4" />
      <path
         d="m 71.0059,83.4604 c -0.751,1.954 -2.115,3.615 -3.889,4.727 -0.469,0.296 -0.954,0.577 -1.455,0.843 -1.076,0.575 -8.809,2.363 -8.809,2.363 -2.623,0.692 -4.563,3.081 -4.563,5.921"
         id="Stroke-51"
         stroke="#000000"
         stroke-width="4" />
      <path
         d="m 31.7881,55.2807 -3.195,-10.44 -6.832,4.764 c -0.286,-2.245 -0.446,-4.131 -0.472,-6.459 -0.019,-1.517 0.395,-4.063 1.611,-6.241"
         id="Stroke-53"
         stroke="#000000"
         stroke-width="4" />
    </g>
  </g>
</svg>
